%TF.GenerationSoftware,KiCad,Pcbnew,10.0.0*%
%TF.CreationDate,2026-07-08T11:15:42+02:00*%
%TF.ProjectId,AC to DC Converter,41432074-6f20-4444-9320-436f6e766572,rev?*%
%TF.SameCoordinates,Original*%
%TF.FileFunction,Legend,Bot*%
%TF.FilePolarity,Positive*%
%FSLAX46Y46*%
G04 Gerber Fmt 4.6, Leading zero omitted, Abs format (unit mm)*
G04 Created by KiCad (PCBNEW 10.0.0) date 2026-07-08 11:15:42*
%MOMM*%
%LPD*%
G01*
G04 APERTURE LIST*
%ADD10C,0.100000*%
%ADD11C,0.010000*%
G04 APERTURE END LIST*
D10*
X113038141Y-63390259D02*
G75*
G02*
X110177059Y-63390259I-1430541J0D01*
G01*
X110177059Y-63390259D02*
G75*
G02*
X113038141Y-63390259I1430541J0D01*
G01*
X111209133Y-62332455D02*
X111909133Y-62565789D01*
X111909133Y-62565789D02*
X111209133Y-62799122D01*
X111909133Y-63399122D02*
X111909133Y-62999122D01*
X111909133Y-63199122D02*
X111209133Y-63199122D01*
X111209133Y-63199122D02*
X111309133Y-63132455D01*
X111309133Y-63132455D02*
X111375800Y-63065789D01*
X111375800Y-63065789D02*
X111409133Y-62999122D01*
X111842466Y-63699122D02*
X111875800Y-63732456D01*
X111875800Y-63732456D02*
X111909133Y-63699122D01*
X111909133Y-63699122D02*
X111875800Y-63665789D01*
X111875800Y-63665789D02*
X111842466Y-63699122D01*
X111842466Y-63699122D02*
X111909133Y-63699122D01*
X111209133Y-64165789D02*
X111209133Y-64232455D01*
X111209133Y-64232455D02*
X111242466Y-64299122D01*
X111242466Y-64299122D02*
X111275800Y-64332455D01*
X111275800Y-64332455D02*
X111342466Y-64365789D01*
X111342466Y-64365789D02*
X111475800Y-64399122D01*
X111475800Y-64399122D02*
X111642466Y-64399122D01*
X111642466Y-64399122D02*
X111775800Y-64365789D01*
X111775800Y-64365789D02*
X111842466Y-64332455D01*
X111842466Y-64332455D02*
X111875800Y-64299122D01*
X111875800Y-64299122D02*
X111909133Y-64232455D01*
X111909133Y-64232455D02*
X111909133Y-64165789D01*
X111909133Y-64165789D02*
X111875800Y-64099122D01*
X111875800Y-64099122D02*
X111842466Y-64065789D01*
X111842466Y-64065789D02*
X111775800Y-64032455D01*
X111775800Y-64032455D02*
X111642466Y-63999122D01*
X111642466Y-63999122D02*
X111475800Y-63999122D01*
X111475800Y-63999122D02*
X111342466Y-64032455D01*
X111342466Y-64032455D02*
X111275800Y-64065789D01*
X111275800Y-64065789D02*
X111242466Y-64099122D01*
X111242466Y-64099122D02*
X111209133Y-64165789D01*
X114286704Y-58656265D02*
X114286704Y-59132455D01*
X114572419Y-58561027D02*
X113572419Y-58894360D01*
X113572419Y-58894360D02*
X114572419Y-59227693D01*
X114477180Y-60132455D02*
X114524800Y-60084836D01*
X114524800Y-60084836D02*
X114572419Y-59941979D01*
X114572419Y-59941979D02*
X114572419Y-59846741D01*
X114572419Y-59846741D02*
X114524800Y-59703884D01*
X114524800Y-59703884D02*
X114429561Y-59608646D01*
X114429561Y-59608646D02*
X114334323Y-59561027D01*
X114334323Y-59561027D02*
X114143847Y-59513408D01*
X114143847Y-59513408D02*
X114000990Y-59513408D01*
X114000990Y-59513408D02*
X113810514Y-59561027D01*
X113810514Y-59561027D02*
X113715276Y-59608646D01*
X113715276Y-59608646D02*
X113620038Y-59703884D01*
X113620038Y-59703884D02*
X113572419Y-59846741D01*
X113572419Y-59846741D02*
X113572419Y-59941979D01*
X113572419Y-59941979D02*
X113620038Y-60084836D01*
X113620038Y-60084836D02*
X113667657Y-60132455D01*
X113905752Y-61180075D02*
X113905752Y-61561027D01*
X113572419Y-61322932D02*
X114429561Y-61322932D01*
X114429561Y-61322932D02*
X114524800Y-61370551D01*
X114524800Y-61370551D02*
X114572419Y-61465789D01*
X114572419Y-61465789D02*
X114572419Y-61561027D01*
X114572419Y-62037218D02*
X114524800Y-61941980D01*
X114524800Y-61941980D02*
X114477180Y-61894361D01*
X114477180Y-61894361D02*
X114381942Y-61846742D01*
X114381942Y-61846742D02*
X114096228Y-61846742D01*
X114096228Y-61846742D02*
X114000990Y-61894361D01*
X114000990Y-61894361D02*
X113953371Y-61941980D01*
X113953371Y-61941980D02*
X113905752Y-62037218D01*
X113905752Y-62037218D02*
X113905752Y-62180075D01*
X113905752Y-62180075D02*
X113953371Y-62275313D01*
X113953371Y-62275313D02*
X114000990Y-62322932D01*
X114000990Y-62322932D02*
X114096228Y-62370551D01*
X114096228Y-62370551D02*
X114381942Y-62370551D01*
X114381942Y-62370551D02*
X114477180Y-62322932D01*
X114477180Y-62322932D02*
X114524800Y-62275313D01*
X114524800Y-62275313D02*
X114572419Y-62180075D01*
X114572419Y-62180075D02*
X114572419Y-62037218D01*
X114572419Y-63561028D02*
X113572419Y-63561028D01*
X113572419Y-63561028D02*
X113572419Y-63799123D01*
X113572419Y-63799123D02*
X113620038Y-63941980D01*
X113620038Y-63941980D02*
X113715276Y-64037218D01*
X113715276Y-64037218D02*
X113810514Y-64084837D01*
X113810514Y-64084837D02*
X114000990Y-64132456D01*
X114000990Y-64132456D02*
X114143847Y-64132456D01*
X114143847Y-64132456D02*
X114334323Y-64084837D01*
X114334323Y-64084837D02*
X114429561Y-64037218D01*
X114429561Y-64037218D02*
X114524800Y-63941980D01*
X114524800Y-63941980D02*
X114572419Y-63799123D01*
X114572419Y-63799123D02*
X114572419Y-63561028D01*
X114477180Y-65132456D02*
X114524800Y-65084837D01*
X114524800Y-65084837D02*
X114572419Y-64941980D01*
X114572419Y-64941980D02*
X114572419Y-64846742D01*
X114572419Y-64846742D02*
X114524800Y-64703885D01*
X114524800Y-64703885D02*
X114429561Y-64608647D01*
X114429561Y-64608647D02*
X114334323Y-64561028D01*
X114334323Y-64561028D02*
X114143847Y-64513409D01*
X114143847Y-64513409D02*
X114000990Y-64513409D01*
X114000990Y-64513409D02*
X113810514Y-64561028D01*
X113810514Y-64561028D02*
X113715276Y-64608647D01*
X113715276Y-64608647D02*
X113620038Y-64703885D01*
X113620038Y-64703885D02*
X113572419Y-64846742D01*
X113572419Y-64846742D02*
X113572419Y-64941980D01*
X113572419Y-64941980D02*
X113620038Y-65084837D01*
X113620038Y-65084837D02*
X113667657Y-65132456D01*
X114477180Y-66894361D02*
X114524800Y-66846742D01*
X114524800Y-66846742D02*
X114572419Y-66703885D01*
X114572419Y-66703885D02*
X114572419Y-66608647D01*
X114572419Y-66608647D02*
X114524800Y-66465790D01*
X114524800Y-66465790D02*
X114429561Y-66370552D01*
X114429561Y-66370552D02*
X114334323Y-66322933D01*
X114334323Y-66322933D02*
X114143847Y-66275314D01*
X114143847Y-66275314D02*
X114000990Y-66275314D01*
X114000990Y-66275314D02*
X113810514Y-66322933D01*
X113810514Y-66322933D02*
X113715276Y-66370552D01*
X113715276Y-66370552D02*
X113620038Y-66465790D01*
X113620038Y-66465790D02*
X113572419Y-66608647D01*
X113572419Y-66608647D02*
X113572419Y-66703885D01*
X113572419Y-66703885D02*
X113620038Y-66846742D01*
X113620038Y-66846742D02*
X113667657Y-66894361D01*
X114572419Y-67465790D02*
X114524800Y-67370552D01*
X114524800Y-67370552D02*
X114477180Y-67322933D01*
X114477180Y-67322933D02*
X114381942Y-67275314D01*
X114381942Y-67275314D02*
X114096228Y-67275314D01*
X114096228Y-67275314D02*
X114000990Y-67322933D01*
X114000990Y-67322933D02*
X113953371Y-67370552D01*
X113953371Y-67370552D02*
X113905752Y-67465790D01*
X113905752Y-67465790D02*
X113905752Y-67608647D01*
X113905752Y-67608647D02*
X113953371Y-67703885D01*
X113953371Y-67703885D02*
X114000990Y-67751504D01*
X114000990Y-67751504D02*
X114096228Y-67799123D01*
X114096228Y-67799123D02*
X114381942Y-67799123D01*
X114381942Y-67799123D02*
X114477180Y-67751504D01*
X114477180Y-67751504D02*
X114524800Y-67703885D01*
X114524800Y-67703885D02*
X114572419Y-67608647D01*
X114572419Y-67608647D02*
X114572419Y-67465790D01*
X113905752Y-68227695D02*
X114572419Y-68227695D01*
X114000990Y-68227695D02*
X113953371Y-68275314D01*
X113953371Y-68275314D02*
X113905752Y-68370552D01*
X113905752Y-68370552D02*
X113905752Y-68513409D01*
X113905752Y-68513409D02*
X113953371Y-68608647D01*
X113953371Y-68608647D02*
X114048609Y-68656266D01*
X114048609Y-68656266D02*
X114572419Y-68656266D01*
X113905752Y-69037219D02*
X114572419Y-69275314D01*
X114572419Y-69275314D02*
X113905752Y-69513409D01*
X114524800Y-70275314D02*
X114572419Y-70180076D01*
X114572419Y-70180076D02*
X114572419Y-69989600D01*
X114572419Y-69989600D02*
X114524800Y-69894362D01*
X114524800Y-69894362D02*
X114429561Y-69846743D01*
X114429561Y-69846743D02*
X114048609Y-69846743D01*
X114048609Y-69846743D02*
X113953371Y-69894362D01*
X113953371Y-69894362D02*
X113905752Y-69989600D01*
X113905752Y-69989600D02*
X113905752Y-70180076D01*
X113905752Y-70180076D02*
X113953371Y-70275314D01*
X113953371Y-70275314D02*
X114048609Y-70322933D01*
X114048609Y-70322933D02*
X114143847Y-70322933D01*
X114143847Y-70322933D02*
X114239085Y-69846743D01*
X114572419Y-70751505D02*
X113905752Y-70751505D01*
X114096228Y-70751505D02*
X114000990Y-70799124D01*
X114000990Y-70799124D02*
X113953371Y-70846743D01*
X113953371Y-70846743D02*
X113905752Y-70941981D01*
X113905752Y-70941981D02*
X113905752Y-71037219D01*
X113905752Y-71227696D02*
X113905752Y-71608648D01*
X113572419Y-71370553D02*
X114429561Y-71370553D01*
X114429561Y-71370553D02*
X114524800Y-71418172D01*
X114524800Y-71418172D02*
X114572419Y-71513410D01*
X114572419Y-71513410D02*
X114572419Y-71608648D01*
X114524800Y-72322934D02*
X114572419Y-72227696D01*
X114572419Y-72227696D02*
X114572419Y-72037220D01*
X114572419Y-72037220D02*
X114524800Y-71941982D01*
X114524800Y-71941982D02*
X114429561Y-71894363D01*
X114429561Y-71894363D02*
X114048609Y-71894363D01*
X114048609Y-71894363D02*
X113953371Y-71941982D01*
X113953371Y-71941982D02*
X113905752Y-72037220D01*
X113905752Y-72037220D02*
X113905752Y-72227696D01*
X113905752Y-72227696D02*
X113953371Y-72322934D01*
X113953371Y-72322934D02*
X114048609Y-72370553D01*
X114048609Y-72370553D02*
X114143847Y-72370553D01*
X114143847Y-72370553D02*
X114239085Y-71894363D01*
X114572419Y-72799125D02*
X113905752Y-72799125D01*
X114096228Y-72799125D02*
X114000990Y-72846744D01*
X114000990Y-72846744D02*
X113953371Y-72894363D01*
X113953371Y-72894363D02*
X113905752Y-72989601D01*
X113905752Y-72989601D02*
X113905752Y-73084839D01*
D11*
%TO.C,REF\u002A\u002A*%
X90089406Y-75172949D02*
X90115127Y-75188647D01*
X90141778Y-75210227D01*
X90141778Y-75857684D01*
X90115127Y-75879264D01*
X90083767Y-75896739D01*
X90047966Y-75897575D01*
X90016528Y-75877082D01*
X90012652Y-75872416D01*
X90007186Y-75862949D01*
X90002979Y-75849267D01*
X89999867Y-75828748D01*
X89997687Y-75798768D01*
X89996276Y-75756704D01*
X89995471Y-75699932D01*
X89995107Y-75625830D01*
X89995022Y-75531773D01*
X89995022Y-75210227D01*
X90021673Y-75188647D01*
X90045386Y-75173877D01*
X90068400Y-75167067D01*
X90089406Y-75172949D01*
G36*
X90089406Y-75172949D02*
G01*
X90115127Y-75188647D01*
X90141778Y-75210227D01*
X90141778Y-75857684D01*
X90115127Y-75879264D01*
X90083767Y-75896739D01*
X90047966Y-75897575D01*
X90016528Y-75877082D01*
X90012652Y-75872416D01*
X90007186Y-75862949D01*
X90002979Y-75849267D01*
X89999867Y-75828748D01*
X89997687Y-75798768D01*
X89996276Y-75756704D01*
X89995471Y-75699932D01*
X89995107Y-75625830D01*
X89995022Y-75531773D01*
X89995022Y-75210227D01*
X90021673Y-75188647D01*
X90045386Y-75173877D01*
X90068400Y-75167067D01*
X90089406Y-75172949D01*
G37*
X97220137Y-75171463D02*
X97254291Y-75194776D01*
X97282000Y-75222485D01*
X97282000Y-75535537D01*
X97281959Y-75619567D01*
X97281701Y-75693789D01*
X97281030Y-75750541D01*
X97279752Y-75792512D01*
X97277673Y-75822389D01*
X97274599Y-75842861D01*
X97270334Y-75856614D01*
X97264684Y-75866337D01*
X97257455Y-75874717D01*
X97225991Y-75896181D01*
X97190826Y-75897947D01*
X97157822Y-75878267D01*
X97152516Y-75872398D01*
X97147066Y-75863314D01*
X97142900Y-75849973D01*
X97139846Y-75829757D01*
X97137732Y-75800049D01*
X97136386Y-75758232D01*
X97135638Y-75701689D01*
X97135314Y-75627802D01*
X97135245Y-75533956D01*
X97135284Y-75458294D01*
X97135539Y-75380385D01*
X97136183Y-75320375D01*
X97137387Y-75275648D01*
X97139324Y-75243585D01*
X97142164Y-75221571D01*
X97146079Y-75206987D01*
X97151242Y-75197218D01*
X97157822Y-75189645D01*
X97187006Y-75170623D01*
X97220137Y-75171463D01*
G36*
X97220137Y-75171463D02*
G01*
X97254291Y-75194776D01*
X97282000Y-75222485D01*
X97282000Y-75535537D01*
X97281959Y-75619567D01*
X97281701Y-75693789D01*
X97281030Y-75750541D01*
X97279752Y-75792512D01*
X97277673Y-75822389D01*
X97274599Y-75842861D01*
X97270334Y-75856614D01*
X97264684Y-75866337D01*
X97257455Y-75874717D01*
X97225991Y-75896181D01*
X97190826Y-75897947D01*
X97157822Y-75878267D01*
X97152516Y-75872398D01*
X97147066Y-75863314D01*
X97142900Y-75849973D01*
X97139846Y-75829757D01*
X97137732Y-75800049D01*
X97136386Y-75758232D01*
X97135638Y-75701689D01*
X97135314Y-75627802D01*
X97135245Y-75533956D01*
X97135284Y-75458294D01*
X97135539Y-75380385D01*
X97136183Y-75320375D01*
X97137387Y-75275648D01*
X97139324Y-75243585D01*
X97142164Y-75221571D01*
X97146079Y-75206987D01*
X97151242Y-75197218D01*
X97157822Y-75189645D01*
X97187006Y-75170623D01*
X97220137Y-75171463D01*
G37*
X96688562Y-69930850D02*
X96771313Y-69958053D01*
X96846406Y-70003484D01*
X96918298Y-70069302D01*
X96956846Y-70113567D01*
X96996256Y-70171961D01*
X97021446Y-70232586D01*
X97034861Y-70301865D01*
X97038948Y-70386222D01*
X97038669Y-70432307D01*
X97036460Y-70473450D01*
X97030894Y-70505582D01*
X97020586Y-70536122D01*
X97004148Y-70572489D01*
X96990200Y-70599728D01*
X96931665Y-70685429D01*
X96859619Y-70754617D01*
X96775947Y-70805741D01*
X96682531Y-70837250D01*
X96649434Y-70844225D01*
X96608960Y-70851094D01*
X96575999Y-70852919D01*
X96541698Y-70849947D01*
X96497200Y-70842426D01*
X96445934Y-70830002D01*
X96355434Y-70792112D01*
X96276345Y-70737836D01*
X96210528Y-70669770D01*
X96159840Y-70590511D01*
X96126140Y-70502654D01*
X96111286Y-70408795D01*
X96117136Y-70311530D01*
X96143399Y-70215220D01*
X96188418Y-70126494D01*
X96249373Y-70051419D01*
X96324184Y-69991641D01*
X96410768Y-69948809D01*
X96507043Y-69924571D01*
X96610928Y-69920576D01*
X96688562Y-69930850D01*
G36*
X96688562Y-69930850D02*
G01*
X96771313Y-69958053D01*
X96846406Y-70003484D01*
X96918298Y-70069302D01*
X96956846Y-70113567D01*
X96996256Y-70171961D01*
X97021446Y-70232586D01*
X97034861Y-70301865D01*
X97038948Y-70386222D01*
X97038669Y-70432307D01*
X97036460Y-70473450D01*
X97030894Y-70505582D01*
X97020586Y-70536122D01*
X97004148Y-70572489D01*
X96990200Y-70599728D01*
X96931665Y-70685429D01*
X96859619Y-70754617D01*
X96775947Y-70805741D01*
X96682531Y-70837250D01*
X96649434Y-70844225D01*
X96608960Y-70851094D01*
X96575999Y-70852919D01*
X96541698Y-70849947D01*
X96497200Y-70842426D01*
X96445934Y-70830002D01*
X96355434Y-70792112D01*
X96276345Y-70737836D01*
X96210528Y-70669770D01*
X96159840Y-70590511D01*
X96126140Y-70502654D01*
X96111286Y-70408795D01*
X96117136Y-70311530D01*
X96143399Y-70215220D01*
X96188418Y-70126494D01*
X96249373Y-70051419D01*
X96324184Y-69991641D01*
X96410768Y-69948809D01*
X96507043Y-69924571D01*
X96610928Y-69920576D01*
X96688562Y-69930850D01*
G37*
X89389767Y-75167068D02*
X89483890Y-75167158D01*
X89558405Y-75167498D01*
X89615811Y-75168239D01*
X89658611Y-75169535D01*
X89689304Y-75171537D01*
X89710391Y-75174396D01*
X89724373Y-75178266D01*
X89733750Y-75183298D01*
X89741022Y-75189645D01*
X89759828Y-75222362D01*
X89761275Y-75259939D01*
X89744917Y-75293178D01*
X89743557Y-75294631D01*
X89732354Y-75302992D01*
X89715252Y-75308547D01*
X89688082Y-75311840D01*
X89646678Y-75313418D01*
X89586873Y-75313822D01*
X89447511Y-75313822D01*
X89447511Y-75577589D01*
X89447436Y-75653417D01*
X89447028Y-75720083D01*
X89446046Y-75769867D01*
X89444250Y-75805784D01*
X89441399Y-75830850D01*
X89437253Y-75848081D01*
X89431571Y-75860492D01*
X89424114Y-75871100D01*
X89421824Y-75873906D01*
X89390646Y-75896548D01*
X89356266Y-75898112D01*
X89323334Y-75878267D01*
X89316355Y-75870191D01*
X89310883Y-75859593D01*
X89306863Y-75843749D01*
X89304072Y-75819773D01*
X89302288Y-75784774D01*
X89301289Y-75735864D01*
X89300852Y-75670154D01*
X89300756Y-75584756D01*
X89300756Y-75313822D01*
X89154820Y-75313822D01*
X89143720Y-75313821D01*
X89087202Y-75313596D01*
X89048358Y-75312457D01*
X89022965Y-75309657D01*
X89006804Y-75304450D01*
X88995652Y-75296089D01*
X88985289Y-75283826D01*
X88969441Y-75253138D01*
X88972543Y-75219358D01*
X88998187Y-75186822D01*
X89003129Y-75183105D01*
X89013338Y-75178269D01*
X89028764Y-75174506D01*
X89051886Y-75171683D01*
X89085183Y-75169670D01*
X89131137Y-75168333D01*
X89192228Y-75167542D01*
X89270935Y-75167163D01*
X89369740Y-75167067D01*
X89389767Y-75167068D01*
G36*
X89389767Y-75167068D02*
G01*
X89483890Y-75167158D01*
X89558405Y-75167498D01*
X89615811Y-75168239D01*
X89658611Y-75169535D01*
X89689304Y-75171537D01*
X89710391Y-75174396D01*
X89724373Y-75178266D01*
X89733750Y-75183298D01*
X89741022Y-75189645D01*
X89759828Y-75222362D01*
X89761275Y-75259939D01*
X89744917Y-75293178D01*
X89743557Y-75294631D01*
X89732354Y-75302992D01*
X89715252Y-75308547D01*
X89688082Y-75311840D01*
X89646678Y-75313418D01*
X89586873Y-75313822D01*
X89447511Y-75313822D01*
X89447511Y-75577589D01*
X89447436Y-75653417D01*
X89447028Y-75720083D01*
X89446046Y-75769867D01*
X89444250Y-75805784D01*
X89441399Y-75830850D01*
X89437253Y-75848081D01*
X89431571Y-75860492D01*
X89424114Y-75871100D01*
X89421824Y-75873906D01*
X89390646Y-75896548D01*
X89356266Y-75898112D01*
X89323334Y-75878267D01*
X89316355Y-75870191D01*
X89310883Y-75859593D01*
X89306863Y-75843749D01*
X89304072Y-75819773D01*
X89302288Y-75784774D01*
X89301289Y-75735864D01*
X89300852Y-75670154D01*
X89300756Y-75584756D01*
X89300756Y-75313822D01*
X89154820Y-75313822D01*
X89143720Y-75313821D01*
X89087202Y-75313596D01*
X89048358Y-75312457D01*
X89022965Y-75309657D01*
X89006804Y-75304450D01*
X88995652Y-75296089D01*
X88985289Y-75283826D01*
X88969441Y-75253138D01*
X88972543Y-75219358D01*
X88998187Y-75186822D01*
X89003129Y-75183105D01*
X89013338Y-75178269D01*
X89028764Y-75174506D01*
X89051886Y-75171683D01*
X89085183Y-75169670D01*
X89131137Y-75168333D01*
X89192228Y-75167542D01*
X89270935Y-75167163D01*
X89369740Y-75167067D01*
X89389767Y-75167068D01*
G37*
X88713734Y-75189645D02*
X88719366Y-75195835D01*
X88724456Y-75204041D01*
X88728543Y-75215817D01*
X88731721Y-75233276D01*
X88734087Y-75258530D01*
X88735738Y-75293690D01*
X88736769Y-75340869D01*
X88737277Y-75402177D01*
X88737359Y-75479727D01*
X88737109Y-75575631D01*
X88736625Y-75692000D01*
X88736557Y-75706175D01*
X88735971Y-75767937D01*
X88734648Y-75811620D01*
X88732103Y-75841001D01*
X88727848Y-75859855D01*
X88721396Y-75871959D01*
X88712262Y-75881089D01*
X88678804Y-75898506D01*
X88643856Y-75895604D01*
X88612953Y-75871100D01*
X88603944Y-75857897D01*
X88596492Y-75839361D01*
X88592124Y-75813333D01*
X88590069Y-75774787D01*
X88589556Y-75718700D01*
X88589556Y-75596045D01*
X88092845Y-75596045D01*
X88092845Y-75730871D01*
X88092772Y-75766662D01*
X88092009Y-75812992D01*
X88089833Y-75843526D01*
X88085536Y-75862557D01*
X88078412Y-75874374D01*
X88067755Y-75883271D01*
X88035504Y-75898341D01*
X88000217Y-75895673D01*
X87969486Y-75871100D01*
X87964831Y-75864845D01*
X87958895Y-75854321D01*
X87954364Y-75840391D01*
X87951048Y-75820317D01*
X87948759Y-75791360D01*
X87947308Y-75750780D01*
X87946505Y-75695840D01*
X87946162Y-75623799D01*
X87946089Y-75531920D01*
X87946089Y-75222485D01*
X87973798Y-75194776D01*
X88005177Y-75172533D01*
X88038406Y-75169844D01*
X88070267Y-75189645D01*
X88078553Y-75199415D01*
X88085965Y-75215307D01*
X88090302Y-75239275D01*
X88092338Y-75276148D01*
X88092845Y-75330756D01*
X88092845Y-75449289D01*
X88589556Y-75449289D01*
X88589556Y-75333776D01*
X88589994Y-75282078D01*
X88591958Y-75247554D01*
X88596474Y-75224978D01*
X88604567Y-75209126D01*
X88617265Y-75194776D01*
X88648643Y-75172533D01*
X88681872Y-75169844D01*
X88713734Y-75189645D01*
G36*
X88713734Y-75189645D02*
G01*
X88719366Y-75195835D01*
X88724456Y-75204041D01*
X88728543Y-75215817D01*
X88731721Y-75233276D01*
X88734087Y-75258530D01*
X88735738Y-75293690D01*
X88736769Y-75340869D01*
X88737277Y-75402177D01*
X88737359Y-75479727D01*
X88737109Y-75575631D01*
X88736625Y-75692000D01*
X88736557Y-75706175D01*
X88735971Y-75767937D01*
X88734648Y-75811620D01*
X88732103Y-75841001D01*
X88727848Y-75859855D01*
X88721396Y-75871959D01*
X88712262Y-75881089D01*
X88678804Y-75898506D01*
X88643856Y-75895604D01*
X88612953Y-75871100D01*
X88603944Y-75857897D01*
X88596492Y-75839361D01*
X88592124Y-75813333D01*
X88590069Y-75774787D01*
X88589556Y-75718700D01*
X88589556Y-75596045D01*
X88092845Y-75596045D01*
X88092845Y-75730871D01*
X88092772Y-75766662D01*
X88092009Y-75812992D01*
X88089833Y-75843526D01*
X88085536Y-75862557D01*
X88078412Y-75874374D01*
X88067755Y-75883271D01*
X88035504Y-75898341D01*
X88000217Y-75895673D01*
X87969486Y-75871100D01*
X87964831Y-75864845D01*
X87958895Y-75854321D01*
X87954364Y-75840391D01*
X87951048Y-75820317D01*
X87948759Y-75791360D01*
X87947308Y-75750780D01*
X87946505Y-75695840D01*
X87946162Y-75623799D01*
X87946089Y-75531920D01*
X87946089Y-75222485D01*
X87973798Y-75194776D01*
X88005177Y-75172533D01*
X88038406Y-75169844D01*
X88070267Y-75189645D01*
X88078553Y-75199415D01*
X88085965Y-75215307D01*
X88090302Y-75239275D01*
X88092338Y-75276148D01*
X88092845Y-75330756D01*
X88092845Y-75449289D01*
X88589556Y-75449289D01*
X88589556Y-75333776D01*
X88589994Y-75282078D01*
X88591958Y-75247554D01*
X88596474Y-75224978D01*
X88604567Y-75209126D01*
X88617265Y-75194776D01*
X88648643Y-75172533D01*
X88681872Y-75169844D01*
X88713734Y-75189645D01*
G37*
X93419133Y-75778396D02*
X93417163Y-75811175D01*
X93414235Y-75834095D01*
X93410158Y-75849897D01*
X93404743Y-75861319D01*
X93397803Y-75871100D01*
X93374406Y-75900845D01*
X93208714Y-75900251D01*
X93173918Y-75899953D01*
X93075435Y-75896522D01*
X92994473Y-75888839D01*
X92927379Y-75876282D01*
X92870496Y-75858227D01*
X92820169Y-75834052D01*
X92816810Y-75832135D01*
X92758998Y-75795417D01*
X92716644Y-75758451D01*
X92683828Y-75714966D01*
X92654628Y-75658689D01*
X92650346Y-75649073D01*
X92627769Y-75585887D01*
X92622034Y-75540333D01*
X92771279Y-75540333D01*
X92776892Y-75565061D01*
X92782618Y-75580939D01*
X92815548Y-75640847D01*
X92862886Y-75686600D01*
X92926652Y-75719736D01*
X93008861Y-75741790D01*
X93011655Y-75742292D01*
X93057940Y-75748255D01*
X93114336Y-75752483D01*
X93169274Y-75754089D01*
X93263156Y-75754089D01*
X93263156Y-75313822D01*
X93175667Y-75314270D01*
X93108747Y-75316746D01*
X93016349Y-75327998D01*
X92937034Y-75347537D01*
X92875060Y-75374511D01*
X92844120Y-75395240D01*
X92816000Y-75425006D01*
X92792660Y-75467434D01*
X92785533Y-75483400D01*
X92773709Y-75515902D01*
X92771279Y-75540333D01*
X92622034Y-75540333D01*
X92620797Y-75530509D01*
X92629399Y-75475483D01*
X92653541Y-75413351D01*
X92654337Y-75411658D01*
X92694788Y-75342236D01*
X92745473Y-75285638D01*
X92808198Y-75241070D01*
X92884774Y-75207741D01*
X92977009Y-75184861D01*
X93086712Y-75171636D01*
X93215691Y-75167275D01*
X93219263Y-75167270D01*
X93279283Y-75167410D01*
X93321214Y-75168446D01*
X93349328Y-75171040D01*
X93367897Y-75175853D01*
X93381194Y-75183544D01*
X93393491Y-75194776D01*
X93421200Y-75222485D01*
X93421200Y-75531920D01*
X93421175Y-75593526D01*
X93420950Y-75672311D01*
X93420332Y-75733021D01*
X93419775Y-75754089D01*
X93419133Y-75778396D01*
G36*
X93419133Y-75778396D02*
G01*
X93417163Y-75811175D01*
X93414235Y-75834095D01*
X93410158Y-75849897D01*
X93404743Y-75861319D01*
X93397803Y-75871100D01*
X93374406Y-75900845D01*
X93208714Y-75900251D01*
X93173918Y-75899953D01*
X93075435Y-75896522D01*
X92994473Y-75888839D01*
X92927379Y-75876282D01*
X92870496Y-75858227D01*
X92820169Y-75834052D01*
X92816810Y-75832135D01*
X92758998Y-75795417D01*
X92716644Y-75758451D01*
X92683828Y-75714966D01*
X92654628Y-75658689D01*
X92650346Y-75649073D01*
X92627769Y-75585887D01*
X92622034Y-75540333D01*
X92771279Y-75540333D01*
X92776892Y-75565061D01*
X92782618Y-75580939D01*
X92815548Y-75640847D01*
X92862886Y-75686600D01*
X92926652Y-75719736D01*
X93008861Y-75741790D01*
X93011655Y-75742292D01*
X93057940Y-75748255D01*
X93114336Y-75752483D01*
X93169274Y-75754089D01*
X93263156Y-75754089D01*
X93263156Y-75313822D01*
X93175667Y-75314270D01*
X93108747Y-75316746D01*
X93016349Y-75327998D01*
X92937034Y-75347537D01*
X92875060Y-75374511D01*
X92844120Y-75395240D01*
X92816000Y-75425006D01*
X92792660Y-75467434D01*
X92785533Y-75483400D01*
X92773709Y-75515902D01*
X92771279Y-75540333D01*
X92622034Y-75540333D01*
X92620797Y-75530509D01*
X92629399Y-75475483D01*
X92653541Y-75413351D01*
X92654337Y-75411658D01*
X92694788Y-75342236D01*
X92745473Y-75285638D01*
X92808198Y-75241070D01*
X92884774Y-75207741D01*
X92977009Y-75184861D01*
X93086712Y-75171636D01*
X93215691Y-75167275D01*
X93219263Y-75167270D01*
X93279283Y-75167410D01*
X93321214Y-75168446D01*
X93349328Y-75171040D01*
X93367897Y-75175853D01*
X93381194Y-75183544D01*
X93393491Y-75194776D01*
X93421200Y-75222485D01*
X93421200Y-75531920D01*
X93421175Y-75593526D01*
X93420950Y-75672311D01*
X93420332Y-75733021D01*
X93419775Y-75754089D01*
X93419133Y-75778396D01*
G37*
X100510817Y-75352427D02*
X100510870Y-75433041D01*
X100510622Y-75533956D01*
X100510583Y-75609617D01*
X100510328Y-75687526D01*
X100509684Y-75747536D01*
X100508480Y-75792264D01*
X100506543Y-75824326D01*
X100503703Y-75846340D01*
X100499788Y-75860924D01*
X100494626Y-75870694D01*
X100488045Y-75878267D01*
X100481077Y-75884501D01*
X100468079Y-75891801D01*
X100448931Y-75896554D01*
X100419528Y-75899292D01*
X100375762Y-75900545D01*
X100313528Y-75900845D01*
X100264582Y-75900469D01*
X100157722Y-75896041D01*
X100068494Y-75885953D01*
X99993696Y-75869365D01*
X99930125Y-75845435D01*
X99874579Y-75813321D01*
X99823854Y-75772182D01*
X99817866Y-75766330D01*
X99780999Y-75717821D01*
X99749899Y-75657013D01*
X99728417Y-75592769D01*
X99723136Y-75554026D01*
X99870353Y-75554026D01*
X99888635Y-75604961D01*
X99918305Y-75650878D01*
X99965002Y-75693287D01*
X100026392Y-75723090D01*
X100105538Y-75742226D01*
X100107028Y-75742464D01*
X100155999Y-75748256D01*
X100214693Y-75752396D01*
X100270734Y-75754004D01*
X100363867Y-75754089D01*
X100363867Y-75313822D01*
X100287667Y-75313808D01*
X100284639Y-75313817D01*
X100233519Y-75315782D01*
X100173416Y-75320507D01*
X100116708Y-75327035D01*
X100066750Y-75336331D01*
X99991998Y-75362600D01*
X99934489Y-75401899D01*
X99892988Y-75454933D01*
X99871771Y-75506200D01*
X99870353Y-75554026D01*
X99723136Y-75554026D01*
X99720400Y-75533956D01*
X99721679Y-75512739D01*
X99733991Y-75455323D01*
X99756520Y-75395413D01*
X99785750Y-75341363D01*
X99818167Y-75301532D01*
X99837708Y-75284510D01*
X99892420Y-75245322D01*
X99952723Y-75215193D01*
X100021919Y-75193232D01*
X100103311Y-75178550D01*
X100200200Y-75170259D01*
X100315889Y-75167467D01*
X100355371Y-75167066D01*
X100401082Y-75166653D01*
X100436883Y-75168457D01*
X100463974Y-75174739D01*
X100483556Y-75187759D01*
X100496830Y-75209778D01*
X100504998Y-75243055D01*
X100509260Y-75289851D01*
X100509857Y-75313822D01*
X100510817Y-75352427D01*
G36*
X100510817Y-75352427D02*
G01*
X100510870Y-75433041D01*
X100510622Y-75533956D01*
X100510583Y-75609617D01*
X100510328Y-75687526D01*
X100509684Y-75747536D01*
X100508480Y-75792264D01*
X100506543Y-75824326D01*
X100503703Y-75846340D01*
X100499788Y-75860924D01*
X100494626Y-75870694D01*
X100488045Y-75878267D01*
X100481077Y-75884501D01*
X100468079Y-75891801D01*
X100448931Y-75896554D01*
X100419528Y-75899292D01*
X100375762Y-75900545D01*
X100313528Y-75900845D01*
X100264582Y-75900469D01*
X100157722Y-75896041D01*
X100068494Y-75885953D01*
X99993696Y-75869365D01*
X99930125Y-75845435D01*
X99874579Y-75813321D01*
X99823854Y-75772182D01*
X99817866Y-75766330D01*
X99780999Y-75717821D01*
X99749899Y-75657013D01*
X99728417Y-75592769D01*
X99723136Y-75554026D01*
X99870353Y-75554026D01*
X99888635Y-75604961D01*
X99918305Y-75650878D01*
X99965002Y-75693287D01*
X100026392Y-75723090D01*
X100105538Y-75742226D01*
X100107028Y-75742464D01*
X100155999Y-75748256D01*
X100214693Y-75752396D01*
X100270734Y-75754004D01*
X100363867Y-75754089D01*
X100363867Y-75313822D01*
X100287667Y-75313808D01*
X100284639Y-75313817D01*
X100233519Y-75315782D01*
X100173416Y-75320507D01*
X100116708Y-75327035D01*
X100066750Y-75336331D01*
X99991998Y-75362600D01*
X99934489Y-75401899D01*
X99892988Y-75454933D01*
X99871771Y-75506200D01*
X99870353Y-75554026D01*
X99723136Y-75554026D01*
X99720400Y-75533956D01*
X99721679Y-75512739D01*
X99733991Y-75455323D01*
X99756520Y-75395413D01*
X99785750Y-75341363D01*
X99818167Y-75301532D01*
X99837708Y-75284510D01*
X99892420Y-75245322D01*
X99952723Y-75215193D01*
X100021919Y-75193232D01*
X100103311Y-75178550D01*
X100200200Y-75170259D01*
X100315889Y-75167467D01*
X100355371Y-75167066D01*
X100401082Y-75166653D01*
X100436883Y-75168457D01*
X100463974Y-75174739D01*
X100483556Y-75187759D01*
X100496830Y-75209778D01*
X100504998Y-75243055D01*
X100509260Y-75289851D01*
X100509857Y-75313822D01*
X100510817Y-75352427D01*
G37*
X95565893Y-75165892D02*
X95577301Y-75172029D01*
X95587850Y-75182691D01*
X95599136Y-75196811D01*
X95603589Y-75202772D01*
X95609588Y-75213268D01*
X95614167Y-75227093D01*
X95617519Y-75246998D01*
X95619833Y-75275732D01*
X95621301Y-75316045D01*
X95622113Y-75370687D01*
X95622460Y-75442407D01*
X95622534Y-75533956D01*
X95622511Y-75592486D01*
X95622292Y-75671573D01*
X95621683Y-75732516D01*
X95620492Y-75778062D01*
X95618529Y-75810963D01*
X95615603Y-75833968D01*
X95611523Y-75849826D01*
X95606097Y-75861286D01*
X95599136Y-75871100D01*
X95568708Y-75895493D01*
X95533765Y-75898372D01*
X95496784Y-75879282D01*
X95492600Y-75875807D01*
X95484424Y-75867279D01*
X95478364Y-75855728D01*
X95473981Y-75837896D01*
X95470839Y-75810524D01*
X95468502Y-75770354D01*
X95466531Y-75714128D01*
X95464489Y-75638589D01*
X95458845Y-75419458D01*
X95193556Y-75660099D01*
X95119722Y-75726875D01*
X95054542Y-75784991D01*
X95002348Y-75829949D01*
X94961273Y-75862871D01*
X94929455Y-75884879D01*
X94905026Y-75897094D01*
X94886124Y-75900639D01*
X94870883Y-75896636D01*
X94857439Y-75886207D01*
X94843927Y-75870474D01*
X94837682Y-75861991D01*
X94832050Y-75851413D01*
X94827839Y-75837255D01*
X94824887Y-75816803D01*
X94823032Y-75787342D01*
X94822113Y-75746161D01*
X94821968Y-75690544D01*
X94822435Y-75617779D01*
X94823352Y-75525151D01*
X94826667Y-75210199D01*
X94853318Y-75188633D01*
X94879383Y-75172441D01*
X94912241Y-75169670D01*
X94946772Y-75188623D01*
X94951084Y-75192208D01*
X94959216Y-75200737D01*
X94965245Y-75212329D01*
X94969606Y-75230235D01*
X94972734Y-75257706D01*
X94975063Y-75297994D01*
X94977029Y-75354351D01*
X94979067Y-75430029D01*
X94984711Y-75649878D01*
X95165334Y-75486084D01*
X95252072Y-75407451D01*
X95327843Y-75339058D01*
X95389980Y-75283708D01*
X95440078Y-75240338D01*
X95479735Y-75207881D01*
X95510548Y-75185273D01*
X95534114Y-75171448D01*
X95552030Y-75165343D01*
X95565893Y-75165892D01*
G36*
X95565893Y-75165892D02*
G01*
X95577301Y-75172029D01*
X95587850Y-75182691D01*
X95599136Y-75196811D01*
X95603589Y-75202772D01*
X95609588Y-75213268D01*
X95614167Y-75227093D01*
X95617519Y-75246998D01*
X95619833Y-75275732D01*
X95621301Y-75316045D01*
X95622113Y-75370687D01*
X95622460Y-75442407D01*
X95622534Y-75533956D01*
X95622511Y-75592486D01*
X95622292Y-75671573D01*
X95621683Y-75732516D01*
X95620492Y-75778062D01*
X95618529Y-75810963D01*
X95615603Y-75833968D01*
X95611523Y-75849826D01*
X95606097Y-75861286D01*
X95599136Y-75871100D01*
X95568708Y-75895493D01*
X95533765Y-75898372D01*
X95496784Y-75879282D01*
X95492600Y-75875807D01*
X95484424Y-75867279D01*
X95478364Y-75855728D01*
X95473981Y-75837896D01*
X95470839Y-75810524D01*
X95468502Y-75770354D01*
X95466531Y-75714128D01*
X95464489Y-75638589D01*
X95458845Y-75419458D01*
X95193556Y-75660099D01*
X95119722Y-75726875D01*
X95054542Y-75784991D01*
X95002348Y-75829949D01*
X94961273Y-75862871D01*
X94929455Y-75884879D01*
X94905026Y-75897094D01*
X94886124Y-75900639D01*
X94870883Y-75896636D01*
X94857439Y-75886207D01*
X94843927Y-75870474D01*
X94837682Y-75861991D01*
X94832050Y-75851413D01*
X94827839Y-75837255D01*
X94824887Y-75816803D01*
X94823032Y-75787342D01*
X94822113Y-75746161D01*
X94821968Y-75690544D01*
X94822435Y-75617779D01*
X94823352Y-75525151D01*
X94826667Y-75210199D01*
X94853318Y-75188633D01*
X94879383Y-75172441D01*
X94912241Y-75169670D01*
X94946772Y-75188623D01*
X94951084Y-75192208D01*
X94959216Y-75200737D01*
X94965245Y-75212329D01*
X94969606Y-75230235D01*
X94972734Y-75257706D01*
X94975063Y-75297994D01*
X94977029Y-75354351D01*
X94979067Y-75430029D01*
X94984711Y-75649878D01*
X95165334Y-75486084D01*
X95252072Y-75407451D01*
X95327843Y-75339058D01*
X95389980Y-75283708D01*
X95440078Y-75240338D01*
X95479735Y-75207881D01*
X95510548Y-75185273D01*
X95534114Y-75171448D01*
X95552030Y-75165343D01*
X95565893Y-75165892D01*
G37*
X96363150Y-75172179D02*
X96469157Y-75188494D01*
X96562969Y-75216545D01*
X96641765Y-75255452D01*
X96702719Y-75304334D01*
X96728789Y-75337195D01*
X96758297Y-75386394D01*
X96783568Y-75440252D01*
X96801218Y-75491419D01*
X96807858Y-75532544D01*
X96806298Y-75552259D01*
X96793357Y-75603592D01*
X96770194Y-75660118D01*
X96740302Y-75714035D01*
X96707173Y-75757539D01*
X96696977Y-75767887D01*
X96629892Y-75819662D01*
X96549766Y-75859554D01*
X96463556Y-75883956D01*
X96408592Y-75892068D01*
X96315139Y-75898673D01*
X96225358Y-75896586D01*
X96142869Y-75886340D01*
X96071286Y-75868470D01*
X96014228Y-75843508D01*
X95975311Y-75811988D01*
X95973936Y-75810012D01*
X95966848Y-75784786D01*
X95962609Y-75737535D01*
X95961200Y-75668071D01*
X95962060Y-75605838D01*
X95966780Y-75558456D01*
X95978470Y-75526353D01*
X96000239Y-75506800D01*
X96035198Y-75497070D01*
X96086456Y-75494433D01*
X96157123Y-75496161D01*
X96205743Y-75499173D01*
X96255939Y-75507366D01*
X96288433Y-75521419D01*
X96305892Y-75542654D01*
X96310983Y-75572394D01*
X96310877Y-75576936D01*
X96302175Y-75611730D01*
X96278165Y-75635147D01*
X96236900Y-75648347D01*
X96176431Y-75652489D01*
X96107956Y-75652489D01*
X96107956Y-75690841D01*
X96108006Y-75699976D01*
X96110227Y-75717227D01*
X96119494Y-75727521D01*
X96140875Y-75734459D01*
X96179436Y-75741641D01*
X96184910Y-75742575D01*
X96281860Y-75752478D01*
X96371852Y-75749559D01*
X96452760Y-75734829D01*
X96522459Y-75709299D01*
X96578824Y-75673978D01*
X96619729Y-75629879D01*
X96643051Y-75578012D01*
X96646663Y-75519388D01*
X96641145Y-75490494D01*
X96614461Y-75434604D01*
X96568273Y-75388945D01*
X96503291Y-75354108D01*
X96420229Y-75330690D01*
X96395555Y-75326241D01*
X96306226Y-75315742D01*
X96226419Y-75316971D01*
X96148326Y-75329906D01*
X96113183Y-75336696D01*
X96067745Y-75337713D01*
X96036430Y-75325182D01*
X96016277Y-75298395D01*
X96009893Y-75270148D01*
X96019379Y-75238924D01*
X96028708Y-75225499D01*
X96062943Y-75201967D01*
X96115565Y-75184095D01*
X96184081Y-75172599D01*
X96266000Y-75168192D01*
X96363150Y-75172179D01*
G36*
X96363150Y-75172179D02*
G01*
X96469157Y-75188494D01*
X96562969Y-75216545D01*
X96641765Y-75255452D01*
X96702719Y-75304334D01*
X96728789Y-75337195D01*
X96758297Y-75386394D01*
X96783568Y-75440252D01*
X96801218Y-75491419D01*
X96807858Y-75532544D01*
X96806298Y-75552259D01*
X96793357Y-75603592D01*
X96770194Y-75660118D01*
X96740302Y-75714035D01*
X96707173Y-75757539D01*
X96696977Y-75767887D01*
X96629892Y-75819662D01*
X96549766Y-75859554D01*
X96463556Y-75883956D01*
X96408592Y-75892068D01*
X96315139Y-75898673D01*
X96225358Y-75896586D01*
X96142869Y-75886340D01*
X96071286Y-75868470D01*
X96014228Y-75843508D01*
X95975311Y-75811988D01*
X95973936Y-75810012D01*
X95966848Y-75784786D01*
X95962609Y-75737535D01*
X95961200Y-75668071D01*
X95962060Y-75605838D01*
X95966780Y-75558456D01*
X95978470Y-75526353D01*
X96000239Y-75506800D01*
X96035198Y-75497070D01*
X96086456Y-75494433D01*
X96157123Y-75496161D01*
X96205743Y-75499173D01*
X96255939Y-75507366D01*
X96288433Y-75521419D01*
X96305892Y-75542654D01*
X96310983Y-75572394D01*
X96310877Y-75576936D01*
X96302175Y-75611730D01*
X96278165Y-75635147D01*
X96236900Y-75648347D01*
X96176431Y-75652489D01*
X96107956Y-75652489D01*
X96107956Y-75690841D01*
X96108006Y-75699976D01*
X96110227Y-75717227D01*
X96119494Y-75727521D01*
X96140875Y-75734459D01*
X96179436Y-75741641D01*
X96184910Y-75742575D01*
X96281860Y-75752478D01*
X96371852Y-75749559D01*
X96452760Y-75734829D01*
X96522459Y-75709299D01*
X96578824Y-75673978D01*
X96619729Y-75629879D01*
X96643051Y-75578012D01*
X96646663Y-75519388D01*
X96641145Y-75490494D01*
X96614461Y-75434604D01*
X96568273Y-75388945D01*
X96503291Y-75354108D01*
X96420229Y-75330690D01*
X96395555Y-75326241D01*
X96306226Y-75315742D01*
X96226419Y-75316971D01*
X96148326Y-75329906D01*
X96113183Y-75336696D01*
X96067745Y-75337713D01*
X96036430Y-75325182D01*
X96016277Y-75298395D01*
X96009893Y-75270148D01*
X96019379Y-75238924D01*
X96028708Y-75225499D01*
X96062943Y-75201967D01*
X96115565Y-75184095D01*
X96184081Y-75172599D01*
X96266000Y-75168192D01*
X96363150Y-75172179D01*
G37*
X94413803Y-75196811D02*
X94418752Y-75203495D01*
X94424596Y-75214066D01*
X94429057Y-75228153D01*
X94432321Y-75248478D01*
X94434574Y-75277765D01*
X94436002Y-75318737D01*
X94436792Y-75374117D01*
X94437129Y-75446628D01*
X94437200Y-75538994D01*
X94437171Y-75604911D01*
X94436939Y-75683228D01*
X94436319Y-75743496D01*
X94435126Y-75788393D01*
X94433179Y-75820602D01*
X94430294Y-75842800D01*
X94426288Y-75857669D01*
X94420979Y-75867889D01*
X94414183Y-75876138D01*
X94409668Y-75880795D01*
X94401438Y-75887282D01*
X94390078Y-75892194D01*
X94372810Y-75895749D01*
X94346855Y-75898167D01*
X94309436Y-75899667D01*
X94257773Y-75900467D01*
X94189089Y-75900787D01*
X94100606Y-75900845D01*
X94080931Y-75900838D01*
X93993906Y-75900572D01*
X93926254Y-75899806D01*
X93875299Y-75898392D01*
X93838367Y-75896180D01*
X93812783Y-75893022D01*
X93795871Y-75888769D01*
X93784957Y-75883271D01*
X93774464Y-75873285D01*
X93761203Y-75842168D01*
X93762386Y-75806280D01*
X93778550Y-75774733D01*
X93780739Y-75772457D01*
X93789427Y-75766189D01*
X93802769Y-75761523D01*
X93823752Y-75758227D01*
X93855363Y-75756068D01*
X93900590Y-75754814D01*
X93962420Y-75754231D01*
X94043839Y-75754089D01*
X94290445Y-75754089D01*
X94290445Y-75596045D01*
X94128006Y-75596045D01*
X94092338Y-75595964D01*
X94036568Y-75595167D01*
X93997430Y-75593162D01*
X93970976Y-75589521D01*
X93953259Y-75583812D01*
X93940329Y-75575607D01*
X93936686Y-75572423D01*
X93918278Y-75541448D01*
X93917644Y-75505112D01*
X93935183Y-75471493D01*
X93935245Y-75471424D01*
X93944916Y-75462798D01*
X93958209Y-75456742D01*
X93978917Y-75452811D01*
X94010828Y-75450556D01*
X94057734Y-75449531D01*
X94123424Y-75449289D01*
X94291571Y-75449289D01*
X94288186Y-75384378D01*
X94284800Y-75319467D01*
X94042723Y-75316414D01*
X94017707Y-75316086D01*
X93936087Y-75314606D01*
X93873768Y-75312222D01*
X93828154Y-75308227D01*
X93796652Y-75301913D01*
X93776667Y-75292574D01*
X93765604Y-75279503D01*
X93760869Y-75261992D01*
X93759867Y-75239335D01*
X93759873Y-75236970D01*
X93761027Y-75216939D01*
X93765824Y-75201146D01*
X93776632Y-75189090D01*
X93795817Y-75180267D01*
X93825745Y-75174175D01*
X93868783Y-75170311D01*
X93927299Y-75168174D01*
X94003657Y-75167260D01*
X94100226Y-75167067D01*
X94390406Y-75167067D01*
X94413803Y-75196811D01*
G36*
X94413803Y-75196811D02*
G01*
X94418752Y-75203495D01*
X94424596Y-75214066D01*
X94429057Y-75228153D01*
X94432321Y-75248478D01*
X94434574Y-75277765D01*
X94436002Y-75318737D01*
X94436792Y-75374117D01*
X94437129Y-75446628D01*
X94437200Y-75538994D01*
X94437171Y-75604911D01*
X94436939Y-75683228D01*
X94436319Y-75743496D01*
X94435126Y-75788393D01*
X94433179Y-75820602D01*
X94430294Y-75842800D01*
X94426288Y-75857669D01*
X94420979Y-75867889D01*
X94414183Y-75876138D01*
X94409668Y-75880795D01*
X94401438Y-75887282D01*
X94390078Y-75892194D01*
X94372810Y-75895749D01*
X94346855Y-75898167D01*
X94309436Y-75899667D01*
X94257773Y-75900467D01*
X94189089Y-75900787D01*
X94100606Y-75900845D01*
X94080931Y-75900838D01*
X93993906Y-75900572D01*
X93926254Y-75899806D01*
X93875299Y-75898392D01*
X93838367Y-75896180D01*
X93812783Y-75893022D01*
X93795871Y-75888769D01*
X93784957Y-75883271D01*
X93774464Y-75873285D01*
X93761203Y-75842168D01*
X93762386Y-75806280D01*
X93778550Y-75774733D01*
X93780739Y-75772457D01*
X93789427Y-75766189D01*
X93802769Y-75761523D01*
X93823752Y-75758227D01*
X93855363Y-75756068D01*
X93900590Y-75754814D01*
X93962420Y-75754231D01*
X94043839Y-75754089D01*
X94290445Y-75754089D01*
X94290445Y-75596045D01*
X94128006Y-75596045D01*
X94092338Y-75595964D01*
X94036568Y-75595167D01*
X93997430Y-75593162D01*
X93970976Y-75589521D01*
X93953259Y-75583812D01*
X93940329Y-75575607D01*
X93936686Y-75572423D01*
X93918278Y-75541448D01*
X93917644Y-75505112D01*
X93935183Y-75471493D01*
X93935245Y-75471424D01*
X93944916Y-75462798D01*
X93958209Y-75456742D01*
X93978917Y-75452811D01*
X94010828Y-75450556D01*
X94057734Y-75449531D01*
X94123424Y-75449289D01*
X94291571Y-75449289D01*
X94288186Y-75384378D01*
X94284800Y-75319467D01*
X94042723Y-75316414D01*
X94017707Y-75316086D01*
X93936087Y-75314606D01*
X93873768Y-75312222D01*
X93828154Y-75308227D01*
X93796652Y-75301913D01*
X93776667Y-75292574D01*
X93765604Y-75279503D01*
X93760869Y-75261992D01*
X93759867Y-75239335D01*
X93759873Y-75236970D01*
X93761027Y-75216939D01*
X93765824Y-75201146D01*
X93776632Y-75189090D01*
X93795817Y-75180267D01*
X93825745Y-75174175D01*
X93868783Y-75170311D01*
X93927299Y-75168174D01*
X94003657Y-75167260D01*
X94100226Y-75167067D01*
X94390406Y-75167067D01*
X94413803Y-75196811D01*
G37*
X99090734Y-75167083D02*
X99167831Y-75167275D01*
X99226777Y-75167860D01*
X99270364Y-75169051D01*
X99301383Y-75171064D01*
X99322625Y-75174112D01*
X99336882Y-75178409D01*
X99346945Y-75184172D01*
X99355606Y-75191612D01*
X99357391Y-75193293D01*
X99364635Y-75200832D01*
X99370277Y-75209850D01*
X99374517Y-75222984D01*
X99377556Y-75242872D01*
X99379594Y-75272151D01*
X99380830Y-75313458D01*
X99381465Y-75369431D01*
X99381700Y-75442707D01*
X99381734Y-75535923D01*
X99381697Y-75608713D01*
X99381448Y-75686889D01*
X99380812Y-75747103D01*
X99379615Y-75791982D01*
X99377684Y-75824152D01*
X99374846Y-75846239D01*
X99370927Y-75860870D01*
X99365755Y-75870670D01*
X99359156Y-75878267D01*
X99355822Y-75881444D01*
X99347300Y-75887554D01*
X99335298Y-75892229D01*
X99317087Y-75895659D01*
X99289940Y-75898036D01*
X99251129Y-75899552D01*
X99197924Y-75900398D01*
X99127598Y-75900765D01*
X99037422Y-75900845D01*
X98995314Y-75900833D01*
X98914167Y-75900651D01*
X98851675Y-75900098D01*
X98805109Y-75898982D01*
X98771741Y-75897113D01*
X98748844Y-75894298D01*
X98733688Y-75890346D01*
X98723546Y-75885066D01*
X98715689Y-75878267D01*
X98700963Y-75856667D01*
X98693111Y-75827467D01*
X98698610Y-75803560D01*
X98715689Y-75776667D01*
X98720668Y-75772059D01*
X98730443Y-75765772D01*
X98744559Y-75761146D01*
X98766054Y-75757930D01*
X98797968Y-75755870D01*
X98843342Y-75754712D01*
X98905213Y-75754202D01*
X98986622Y-75754089D01*
X99234978Y-75754089D01*
X99234978Y-75596045D01*
X99073801Y-75596045D01*
X99037983Y-75595899D01*
X98972359Y-75594176D01*
X98925118Y-75589741D01*
X98893383Y-75581637D01*
X98874277Y-75568906D01*
X98864923Y-75550592D01*
X98862445Y-75525738D01*
X98863242Y-75505482D01*
X98868494Y-75483656D01*
X98881288Y-75468304D01*
X98904628Y-75458309D01*
X98941517Y-75452553D01*
X98994959Y-75449919D01*
X99067958Y-75449289D01*
X99236105Y-75449289D01*
X99232719Y-75384378D01*
X99229334Y-75319467D01*
X98981617Y-75316418D01*
X98919026Y-75315539D01*
X98850565Y-75314095D01*
X98799661Y-75312164D01*
X98763408Y-75309514D01*
X98738901Y-75305910D01*
X98723235Y-75301121D01*
X98713506Y-75294913D01*
X98707491Y-75288510D01*
X98694482Y-75256828D01*
X98698043Y-75221142D01*
X98717818Y-75190084D01*
X98721069Y-75187161D01*
X98730049Y-75180810D01*
X98742153Y-75175957D01*
X98760159Y-75172403D01*
X98786847Y-75169946D01*
X98824997Y-75168385D01*
X98877386Y-75167518D01*
X98946794Y-75167146D01*
X99036001Y-75167067D01*
X99090734Y-75167083D01*
G36*
X99090734Y-75167083D02*
G01*
X99167831Y-75167275D01*
X99226777Y-75167860D01*
X99270364Y-75169051D01*
X99301383Y-75171064D01*
X99322625Y-75174112D01*
X99336882Y-75178409D01*
X99346945Y-75184172D01*
X99355606Y-75191612D01*
X99357391Y-75193293D01*
X99364635Y-75200832D01*
X99370277Y-75209850D01*
X99374517Y-75222984D01*
X99377556Y-75242872D01*
X99379594Y-75272151D01*
X99380830Y-75313458D01*
X99381465Y-75369431D01*
X99381700Y-75442707D01*
X99381734Y-75535923D01*
X99381697Y-75608713D01*
X99381448Y-75686889D01*
X99380812Y-75747103D01*
X99379615Y-75791982D01*
X99377684Y-75824152D01*
X99374846Y-75846239D01*
X99370927Y-75860870D01*
X99365755Y-75870670D01*
X99359156Y-75878267D01*
X99355822Y-75881444D01*
X99347300Y-75887554D01*
X99335298Y-75892229D01*
X99317087Y-75895659D01*
X99289940Y-75898036D01*
X99251129Y-75899552D01*
X99197924Y-75900398D01*
X99127598Y-75900765D01*
X99037422Y-75900845D01*
X98995314Y-75900833D01*
X98914167Y-75900651D01*
X98851675Y-75900098D01*
X98805109Y-75898982D01*
X98771741Y-75897113D01*
X98748844Y-75894298D01*
X98733688Y-75890346D01*
X98723546Y-75885066D01*
X98715689Y-75878267D01*
X98700963Y-75856667D01*
X98693111Y-75827467D01*
X98698610Y-75803560D01*
X98715689Y-75776667D01*
X98720668Y-75772059D01*
X98730443Y-75765772D01*
X98744559Y-75761146D01*
X98766054Y-75757930D01*
X98797968Y-75755870D01*
X98843342Y-75754712D01*
X98905213Y-75754202D01*
X98986622Y-75754089D01*
X99234978Y-75754089D01*
X99234978Y-75596045D01*
X99073801Y-75596045D01*
X99037983Y-75595899D01*
X98972359Y-75594176D01*
X98925118Y-75589741D01*
X98893383Y-75581637D01*
X98874277Y-75568906D01*
X98864923Y-75550592D01*
X98862445Y-75525738D01*
X98863242Y-75505482D01*
X98868494Y-75483656D01*
X98881288Y-75468304D01*
X98904628Y-75458309D01*
X98941517Y-75452553D01*
X98994959Y-75449919D01*
X99067958Y-75449289D01*
X99236105Y-75449289D01*
X99232719Y-75384378D01*
X99229334Y-75319467D01*
X98981617Y-75316418D01*
X98919026Y-75315539D01*
X98850565Y-75314095D01*
X98799661Y-75312164D01*
X98763408Y-75309514D01*
X98738901Y-75305910D01*
X98723235Y-75301121D01*
X98713506Y-75294913D01*
X98707491Y-75288510D01*
X98694482Y-75256828D01*
X98698043Y-75221142D01*
X98717818Y-75190084D01*
X98721069Y-75187161D01*
X98730049Y-75180810D01*
X98742153Y-75175957D01*
X98760159Y-75172403D01*
X98786847Y-75169946D01*
X98824997Y-75168385D01*
X98877386Y-75167518D01*
X98946794Y-75167146D01*
X99036001Y-75167067D01*
X99090734Y-75167083D01*
G37*
X90523702Y-75176478D02*
X90541663Y-75194989D01*
X90562263Y-75226071D01*
X90587095Y-75271756D01*
X90617750Y-75334078D01*
X90655820Y-75415071D01*
X90670454Y-75446454D01*
X90700203Y-75509638D01*
X90726297Y-75564244D01*
X90747292Y-75607290D01*
X90761739Y-75635793D01*
X90768191Y-75646770D01*
X90769550Y-75646189D01*
X90779542Y-75632242D01*
X90796833Y-75602704D01*
X90819430Y-75561087D01*
X90845338Y-75510903D01*
X90861311Y-75479414D01*
X90890261Y-75424061D01*
X90912749Y-75385044D01*
X90930965Y-75359566D01*
X90947096Y-75344831D01*
X90963330Y-75338042D01*
X90981857Y-75336400D01*
X90992360Y-75336875D01*
X91008476Y-75341082D01*
X91023790Y-75351946D01*
X91040388Y-75372219D01*
X91060357Y-75404654D01*
X91085783Y-75452004D01*
X91118752Y-75517022D01*
X91128485Y-75536277D01*
X91152943Y-75582946D01*
X91173178Y-75619109D01*
X91187311Y-75641497D01*
X91193460Y-75646845D01*
X91194827Y-75643573D01*
X91204202Y-75622664D01*
X91221062Y-75585725D01*
X91243979Y-75535874D01*
X91271520Y-75476226D01*
X91302255Y-75409898D01*
X91328970Y-75352677D01*
X91358593Y-75290688D01*
X91381664Y-75244949D01*
X91399643Y-75212908D01*
X91413990Y-75192014D01*
X91426166Y-75179718D01*
X91437632Y-75173466D01*
X91447042Y-75170574D01*
X91472147Y-75170425D01*
X91499290Y-75185768D01*
X91500590Y-75186753D01*
X91522674Y-75209388D01*
X91533723Y-75231613D01*
X91533769Y-75232253D01*
X91529228Y-75249915D01*
X91516364Y-75284481D01*
X91496605Y-75332826D01*
X91471381Y-75391825D01*
X91442119Y-75458355D01*
X91410250Y-75529291D01*
X91377201Y-75601507D01*
X91344401Y-75671880D01*
X91313280Y-75737285D01*
X91285265Y-75794597D01*
X91261786Y-75840692D01*
X91244272Y-75872446D01*
X91234151Y-75886733D01*
X91199743Y-75900102D01*
X91158046Y-75893741D01*
X91152681Y-75889044D01*
X91136852Y-75866893D01*
X91114650Y-75830132D01*
X91088233Y-75782415D01*
X91059760Y-75727393D01*
X90979986Y-75568150D01*
X90906799Y-75714742D01*
X90897103Y-75734032D01*
X90870125Y-75786380D01*
X90846096Y-75831170D01*
X90827332Y-75864154D01*
X90816146Y-75881089D01*
X90815000Y-75882332D01*
X90786879Y-75897619D01*
X90751817Y-75899302D01*
X90720776Y-75886733D01*
X90718350Y-75883884D01*
X90706090Y-75863259D01*
X90686352Y-75825708D01*
X90660448Y-75773880D01*
X90629685Y-75710423D01*
X90595375Y-75637985D01*
X90558825Y-75559216D01*
X90538585Y-75515093D01*
X90501812Y-75434365D01*
X90473355Y-75370687D01*
X90452331Y-75321752D01*
X90437854Y-75285257D01*
X90429039Y-75258895D01*
X90425004Y-75240361D01*
X90424862Y-75227352D01*
X90427730Y-75217561D01*
X90442387Y-75196678D01*
X90468990Y-75176377D01*
X90469745Y-75176035D01*
X90489335Y-75169034D01*
X90506790Y-75168504D01*
X90523702Y-75176478D01*
G36*
X90523702Y-75176478D02*
G01*
X90541663Y-75194989D01*
X90562263Y-75226071D01*
X90587095Y-75271756D01*
X90617750Y-75334078D01*
X90655820Y-75415071D01*
X90670454Y-75446454D01*
X90700203Y-75509638D01*
X90726297Y-75564244D01*
X90747292Y-75607290D01*
X90761739Y-75635793D01*
X90768191Y-75646770D01*
X90769550Y-75646189D01*
X90779542Y-75632242D01*
X90796833Y-75602704D01*
X90819430Y-75561087D01*
X90845338Y-75510903D01*
X90861311Y-75479414D01*
X90890261Y-75424061D01*
X90912749Y-75385044D01*
X90930965Y-75359566D01*
X90947096Y-75344831D01*
X90963330Y-75338042D01*
X90981857Y-75336400D01*
X90992360Y-75336875D01*
X91008476Y-75341082D01*
X91023790Y-75351946D01*
X91040388Y-75372219D01*
X91060357Y-75404654D01*
X91085783Y-75452004D01*
X91118752Y-75517022D01*
X91128485Y-75536277D01*
X91152943Y-75582946D01*
X91173178Y-75619109D01*
X91187311Y-75641497D01*
X91193460Y-75646845D01*
X91194827Y-75643573D01*
X91204202Y-75622664D01*
X91221062Y-75585725D01*
X91243979Y-75535874D01*
X91271520Y-75476226D01*
X91302255Y-75409898D01*
X91328970Y-75352677D01*
X91358593Y-75290688D01*
X91381664Y-75244949D01*
X91399643Y-75212908D01*
X91413990Y-75192014D01*
X91426166Y-75179718D01*
X91437632Y-75173466D01*
X91447042Y-75170574D01*
X91472147Y-75170425D01*
X91499290Y-75185768D01*
X91500590Y-75186753D01*
X91522674Y-75209388D01*
X91533723Y-75231613D01*
X91533769Y-75232253D01*
X91529228Y-75249915D01*
X91516364Y-75284481D01*
X91496605Y-75332826D01*
X91471381Y-75391825D01*
X91442119Y-75458355D01*
X91410250Y-75529291D01*
X91377201Y-75601507D01*
X91344401Y-75671880D01*
X91313280Y-75737285D01*
X91285265Y-75794597D01*
X91261786Y-75840692D01*
X91244272Y-75872446D01*
X91234151Y-75886733D01*
X91199743Y-75900102D01*
X91158046Y-75893741D01*
X91152681Y-75889044D01*
X91136852Y-75866893D01*
X91114650Y-75830132D01*
X91088233Y-75782415D01*
X91059760Y-75727393D01*
X90979986Y-75568150D01*
X90906799Y-75714742D01*
X90897103Y-75734032D01*
X90870125Y-75786380D01*
X90846096Y-75831170D01*
X90827332Y-75864154D01*
X90816146Y-75881089D01*
X90815000Y-75882332D01*
X90786879Y-75897619D01*
X90751817Y-75899302D01*
X90720776Y-75886733D01*
X90718350Y-75883884D01*
X90706090Y-75863259D01*
X90686352Y-75825708D01*
X90660448Y-75773880D01*
X90629685Y-75710423D01*
X90595375Y-75637985D01*
X90558825Y-75559216D01*
X90538585Y-75515093D01*
X90501812Y-75434365D01*
X90473355Y-75370687D01*
X90452331Y-75321752D01*
X90437854Y-75285257D01*
X90429039Y-75258895D01*
X90425004Y-75240361D01*
X90424862Y-75227352D01*
X90427730Y-75217561D01*
X90442387Y-75196678D01*
X90468990Y-75176377D01*
X90469745Y-75176035D01*
X90489335Y-75169034D01*
X90506790Y-75168504D01*
X90523702Y-75176478D01*
G37*
X98074853Y-75167936D02*
X98141100Y-75173366D01*
X98196400Y-75182964D01*
X98247283Y-75197825D01*
X98318595Y-75230958D01*
X98369752Y-75273640D01*
X98400575Y-75325705D01*
X98410889Y-75386983D01*
X98409952Y-75418232D01*
X98404160Y-75443029D01*
X98389353Y-75464699D01*
X98361380Y-75492049D01*
X98353402Y-75499378D01*
X98329692Y-75520281D01*
X98307298Y-75537251D01*
X98283265Y-75551205D01*
X98254637Y-75563056D01*
X98218460Y-75573720D01*
X98171780Y-75584111D01*
X98111641Y-75595146D01*
X98035090Y-75607738D01*
X97939171Y-75622804D01*
X97920808Y-75625838D01*
X97858478Y-75639458D01*
X97813260Y-75655192D01*
X97786976Y-75672263D01*
X97781447Y-75689897D01*
X97784068Y-75694168D01*
X97802000Y-75709233D01*
X97830126Y-75725867D01*
X97842926Y-75731857D01*
X97864224Y-75739050D01*
X97890610Y-75743827D01*
X97926454Y-75746646D01*
X97976128Y-75747964D01*
X98044000Y-75748237D01*
X98061785Y-75748164D01*
X98129406Y-75747053D01*
X98194345Y-75744828D01*
X98249970Y-75741762D01*
X98289651Y-75738127D01*
X98325162Y-75734059D01*
X98354415Y-75733276D01*
X98373315Y-75737876D01*
X98388429Y-75748551D01*
X98392085Y-75752144D01*
X98408427Y-75783918D01*
X98407107Y-75819572D01*
X98388150Y-75850190D01*
X98367780Y-75861796D01*
X98331796Y-75874491D01*
X98289372Y-75884541D01*
X98285922Y-75885140D01*
X98243252Y-75890356D01*
X98185866Y-75894730D01*
X98120849Y-75897818D01*
X98055289Y-75899177D01*
X98039057Y-75899218D01*
X97940744Y-75896741D01*
X97860692Y-75888735D01*
X97795513Y-75874203D01*
X97741817Y-75852149D01*
X97696216Y-75821576D01*
X97655323Y-75781486D01*
X97635202Y-75755259D01*
X97623576Y-75725712D01*
X97620667Y-75685995D01*
X97620808Y-75674026D01*
X97624681Y-75641345D01*
X97637065Y-75614819D01*
X97662230Y-75583971D01*
X97683442Y-75561831D01*
X97709838Y-75539285D01*
X97739555Y-75520917D01*
X97775785Y-75505661D01*
X97821717Y-75492449D01*
X97880544Y-75480214D01*
X97955456Y-75467889D01*
X98049645Y-75454406D01*
X98094957Y-75447396D01*
X98162911Y-75432837D01*
X98212047Y-75416337D01*
X98241614Y-75398439D01*
X98250864Y-75379685D01*
X98239048Y-75360615D01*
X98205416Y-75341771D01*
X98202370Y-75340557D01*
X98156011Y-75328479D01*
X98093361Y-75320279D01*
X98019927Y-75316119D01*
X97941217Y-75316161D01*
X97862739Y-75320569D01*
X97790000Y-75329505D01*
X97786073Y-75330154D01*
X97737257Y-75337861D01*
X97705005Y-75341473D01*
X97684008Y-75340876D01*
X97668954Y-75335954D01*
X97654534Y-75326596D01*
X97653364Y-75325725D01*
X97628847Y-75295351D01*
X97624054Y-75259850D01*
X97639860Y-75225269D01*
X97644406Y-75220813D01*
X97674020Y-75205673D01*
X97721002Y-75192550D01*
X97781306Y-75181750D01*
X97850888Y-75173581D01*
X97925703Y-75168351D01*
X98001706Y-75166367D01*
X98074853Y-75167936D01*
G36*
X98074853Y-75167936D02*
G01*
X98141100Y-75173366D01*
X98196400Y-75182964D01*
X98247283Y-75197825D01*
X98318595Y-75230958D01*
X98369752Y-75273640D01*
X98400575Y-75325705D01*
X98410889Y-75386983D01*
X98409952Y-75418232D01*
X98404160Y-75443029D01*
X98389353Y-75464699D01*
X98361380Y-75492049D01*
X98353402Y-75499378D01*
X98329692Y-75520281D01*
X98307298Y-75537251D01*
X98283265Y-75551205D01*
X98254637Y-75563056D01*
X98218460Y-75573720D01*
X98171780Y-75584111D01*
X98111641Y-75595146D01*
X98035090Y-75607738D01*
X97939171Y-75622804D01*
X97920808Y-75625838D01*
X97858478Y-75639458D01*
X97813260Y-75655192D01*
X97786976Y-75672263D01*
X97781447Y-75689897D01*
X97784068Y-75694168D01*
X97802000Y-75709233D01*
X97830126Y-75725867D01*
X97842926Y-75731857D01*
X97864224Y-75739050D01*
X97890610Y-75743827D01*
X97926454Y-75746646D01*
X97976128Y-75747964D01*
X98044000Y-75748237D01*
X98061785Y-75748164D01*
X98129406Y-75747053D01*
X98194345Y-75744828D01*
X98249970Y-75741762D01*
X98289651Y-75738127D01*
X98325162Y-75734059D01*
X98354415Y-75733276D01*
X98373315Y-75737876D01*
X98388429Y-75748551D01*
X98392085Y-75752144D01*
X98408427Y-75783918D01*
X98407107Y-75819572D01*
X98388150Y-75850190D01*
X98367780Y-75861796D01*
X98331796Y-75874491D01*
X98289372Y-75884541D01*
X98285922Y-75885140D01*
X98243252Y-75890356D01*
X98185866Y-75894730D01*
X98120849Y-75897818D01*
X98055289Y-75899177D01*
X98039057Y-75899218D01*
X97940744Y-75896741D01*
X97860692Y-75888735D01*
X97795513Y-75874203D01*
X97741817Y-75852149D01*
X97696216Y-75821576D01*
X97655323Y-75781486D01*
X97635202Y-75755259D01*
X97623576Y-75725712D01*
X97620667Y-75685995D01*
X97620808Y-75674026D01*
X97624681Y-75641345D01*
X97637065Y-75614819D01*
X97662230Y-75583971D01*
X97683442Y-75561831D01*
X97709838Y-75539285D01*
X97739555Y-75520917D01*
X97775785Y-75505661D01*
X97821717Y-75492449D01*
X97880544Y-75480214D01*
X97955456Y-75467889D01*
X98049645Y-75454406D01*
X98094957Y-75447396D01*
X98162911Y-75432837D01*
X98212047Y-75416337D01*
X98241614Y-75398439D01*
X98250864Y-75379685D01*
X98239048Y-75360615D01*
X98205416Y-75341771D01*
X98202370Y-75340557D01*
X98156011Y-75328479D01*
X98093361Y-75320279D01*
X98019927Y-75316119D01*
X97941217Y-75316161D01*
X97862739Y-75320569D01*
X97790000Y-75329505D01*
X97786073Y-75330154D01*
X97737257Y-75337861D01*
X97705005Y-75341473D01*
X97684008Y-75340876D01*
X97668954Y-75335954D01*
X97654534Y-75326596D01*
X97653364Y-75325725D01*
X97628847Y-75295351D01*
X97624054Y-75259850D01*
X97639860Y-75225269D01*
X97644406Y-75220813D01*
X97674020Y-75205673D01*
X97721002Y-75192550D01*
X97781306Y-75181750D01*
X97850888Y-75173581D01*
X97925703Y-75168351D01*
X98001706Y-75166367D01*
X98074853Y-75167936D01*
G37*
X94222711Y-70860033D02*
X94318268Y-70877523D01*
X94482558Y-70922564D01*
X94636589Y-70985656D01*
X94782509Y-71067915D01*
X94922466Y-71170457D01*
X95058608Y-71294399D01*
X95102473Y-71339661D01*
X95214758Y-71471865D01*
X95307972Y-71609832D01*
X95384719Y-71757750D01*
X95447603Y-71919803D01*
X95451420Y-71931391D01*
X95501507Y-72117392D01*
X95534899Y-72313521D01*
X95551584Y-72515568D01*
X95551551Y-72719325D01*
X95534791Y-72920581D01*
X95501292Y-73115128D01*
X95451044Y-73298756D01*
X95407190Y-73416053D01*
X95329348Y-73578951D01*
X95235828Y-73732866D01*
X95128822Y-73874671D01*
X95010519Y-74001239D01*
X94883111Y-74109441D01*
X94805606Y-74162120D01*
X94678725Y-74231750D01*
X94541243Y-74290468D01*
X94399716Y-74335587D01*
X94260702Y-74364422D01*
X94246597Y-74366106D01*
X94203153Y-74369434D01*
X94145723Y-74372275D01*
X94080122Y-74374373D01*
X94012167Y-74375468D01*
X93885378Y-74373140D01*
X93737673Y-74360136D01*
X93599779Y-74335133D01*
X93466014Y-74297318D01*
X93442562Y-74288889D01*
X93394612Y-74269408D01*
X93338140Y-74244473D01*
X93276379Y-74215722D01*
X93212563Y-74184790D01*
X93149926Y-74153315D01*
X93091703Y-74122934D01*
X93041127Y-74095283D01*
X93001433Y-74071999D01*
X92975854Y-74054718D01*
X92967625Y-74045079D01*
X92969076Y-74041984D01*
X92980250Y-74022079D01*
X93001134Y-73986420D01*
X93030265Y-73937459D01*
X93066181Y-73877646D01*
X93107420Y-73809433D01*
X93152517Y-73735271D01*
X93333785Y-73438008D01*
X93380315Y-73482539D01*
X93471723Y-73560865D01*
X93585334Y-73635439D01*
X93703122Y-73689474D01*
X93823559Y-73722290D01*
X93945117Y-73733211D01*
X93986585Y-73731868D01*
X94104080Y-73713612D01*
X94214089Y-73674617D01*
X94315430Y-73615670D01*
X94406921Y-73537557D01*
X94487380Y-73441064D01*
X94555627Y-73326978D01*
X94571908Y-73292724D01*
X94617982Y-73169240D01*
X94653106Y-73030918D01*
X94677197Y-72881561D01*
X94690173Y-72724973D01*
X94691949Y-72564956D01*
X94682443Y-72405314D01*
X94661572Y-72249850D01*
X94629252Y-72102366D01*
X94585399Y-71966667D01*
X94547982Y-71880076D01*
X94483185Y-71766688D01*
X94407772Y-71673070D01*
X94321418Y-71598959D01*
X94223795Y-71544094D01*
X94114577Y-71508212D01*
X93993439Y-71491051D01*
X93924038Y-71489880D01*
X93801168Y-71504141D01*
X93685664Y-71539241D01*
X93578953Y-71594682D01*
X93482464Y-71669964D01*
X93466720Y-71684440D01*
X93436150Y-71710962D01*
X93413809Y-71728138D01*
X93403691Y-71732787D01*
X93401706Y-71730597D01*
X93387241Y-71711721D01*
X93363400Y-71678397D01*
X93332029Y-71633380D01*
X93294974Y-71579425D01*
X93254083Y-71519285D01*
X93211202Y-71455718D01*
X93168178Y-71391476D01*
X93126857Y-71329315D01*
X93089086Y-71271991D01*
X93056712Y-71222257D01*
X93031582Y-71182868D01*
X93015542Y-71156580D01*
X93010439Y-71146147D01*
X93015050Y-71141941D01*
X93034267Y-71136933D01*
X93043838Y-71134386D01*
X93071809Y-71123249D01*
X93113448Y-71104802D01*
X93164995Y-71080725D01*
X93222690Y-71052699D01*
X93233957Y-71047154D01*
X93411687Y-70967889D01*
X93581490Y-70908385D01*
X93745430Y-70868245D01*
X93905571Y-70847071D01*
X94063977Y-70844466D01*
X94222711Y-70860033D01*
G36*
X94222711Y-70860033D02*
G01*
X94318268Y-70877523D01*
X94482558Y-70922564D01*
X94636589Y-70985656D01*
X94782509Y-71067915D01*
X94922466Y-71170457D01*
X95058608Y-71294399D01*
X95102473Y-71339661D01*
X95214758Y-71471865D01*
X95307972Y-71609832D01*
X95384719Y-71757750D01*
X95447603Y-71919803D01*
X95451420Y-71931391D01*
X95501507Y-72117392D01*
X95534899Y-72313521D01*
X95551584Y-72515568D01*
X95551551Y-72719325D01*
X95534791Y-72920581D01*
X95501292Y-73115128D01*
X95451044Y-73298756D01*
X95407190Y-73416053D01*
X95329348Y-73578951D01*
X95235828Y-73732866D01*
X95128822Y-73874671D01*
X95010519Y-74001239D01*
X94883111Y-74109441D01*
X94805606Y-74162120D01*
X94678725Y-74231750D01*
X94541243Y-74290468D01*
X94399716Y-74335587D01*
X94260702Y-74364422D01*
X94246597Y-74366106D01*
X94203153Y-74369434D01*
X94145723Y-74372275D01*
X94080122Y-74374373D01*
X94012167Y-74375468D01*
X93885378Y-74373140D01*
X93737673Y-74360136D01*
X93599779Y-74335133D01*
X93466014Y-74297318D01*
X93442562Y-74288889D01*
X93394612Y-74269408D01*
X93338140Y-74244473D01*
X93276379Y-74215722D01*
X93212563Y-74184790D01*
X93149926Y-74153315D01*
X93091703Y-74122934D01*
X93041127Y-74095283D01*
X93001433Y-74071999D01*
X92975854Y-74054718D01*
X92967625Y-74045079D01*
X92969076Y-74041984D01*
X92980250Y-74022079D01*
X93001134Y-73986420D01*
X93030265Y-73937459D01*
X93066181Y-73877646D01*
X93107420Y-73809433D01*
X93152517Y-73735271D01*
X93333785Y-73438008D01*
X93380315Y-73482539D01*
X93471723Y-73560865D01*
X93585334Y-73635439D01*
X93703122Y-73689474D01*
X93823559Y-73722290D01*
X93945117Y-73733211D01*
X93986585Y-73731868D01*
X94104080Y-73713612D01*
X94214089Y-73674617D01*
X94315430Y-73615670D01*
X94406921Y-73537557D01*
X94487380Y-73441064D01*
X94555627Y-73326978D01*
X94571908Y-73292724D01*
X94617982Y-73169240D01*
X94653106Y-73030918D01*
X94677197Y-72881561D01*
X94690173Y-72724973D01*
X94691949Y-72564956D01*
X94682443Y-72405314D01*
X94661572Y-72249850D01*
X94629252Y-72102366D01*
X94585399Y-71966667D01*
X94547982Y-71880076D01*
X94483185Y-71766688D01*
X94407772Y-71673070D01*
X94321418Y-71598959D01*
X94223795Y-71544094D01*
X94114577Y-71508212D01*
X93993439Y-71491051D01*
X93924038Y-71489880D01*
X93801168Y-71504141D01*
X93685664Y-71539241D01*
X93578953Y-71594682D01*
X93482464Y-71669964D01*
X93466720Y-71684440D01*
X93436150Y-71710962D01*
X93413809Y-71728138D01*
X93403691Y-71732787D01*
X93401706Y-71730597D01*
X93387241Y-71711721D01*
X93363400Y-71678397D01*
X93332029Y-71633380D01*
X93294974Y-71579425D01*
X93254083Y-71519285D01*
X93211202Y-71455718D01*
X93168178Y-71391476D01*
X93126857Y-71329315D01*
X93089086Y-71271991D01*
X93056712Y-71222257D01*
X93031582Y-71182868D01*
X93015542Y-71156580D01*
X93010439Y-71146147D01*
X93015050Y-71141941D01*
X93034267Y-71136933D01*
X93043838Y-71134386D01*
X93071809Y-71123249D01*
X93113448Y-71104802D01*
X93164995Y-71080725D01*
X93222690Y-71052699D01*
X93233957Y-71047154D01*
X93411687Y-70967889D01*
X93581490Y-70908385D01*
X93745430Y-70868245D01*
X93905571Y-70847071D01*
X94063977Y-70844466D01*
X94222711Y-70860033D01*
G37*
X90419994Y-73140711D02*
X90419268Y-73218158D01*
X90410689Y-73369594D01*
X90391833Y-73506283D01*
X90361837Y-73632276D01*
X90319836Y-73751625D01*
X90264969Y-73868381D01*
X90198167Y-73979179D01*
X90107363Y-74092739D01*
X90003708Y-74188211D01*
X89887887Y-74265073D01*
X89760586Y-74322797D01*
X89622489Y-74360858D01*
X89584793Y-74366666D01*
X89505752Y-74372396D01*
X89417629Y-74372583D01*
X89328236Y-74367539D01*
X89245384Y-74357578D01*
X89176887Y-74343012D01*
X89146035Y-74333364D01*
X89068730Y-74303123D01*
X88991679Y-74265617D01*
X88922200Y-74224614D01*
X88867615Y-74183879D01*
X88844916Y-74164505D01*
X88822201Y-74146662D01*
X88810779Y-74139778D01*
X88809537Y-74141424D01*
X88806728Y-74159205D01*
X88804776Y-74192370D01*
X88804045Y-74235733D01*
X88804045Y-74331689D01*
X87945896Y-74331689D01*
X87980161Y-74270974D01*
X87985355Y-74261868D01*
X87993715Y-74247249D01*
X88001288Y-74233173D01*
X88008112Y-74218540D01*
X88014227Y-74202249D01*
X88019673Y-74183198D01*
X88024487Y-74160286D01*
X88028708Y-74132413D01*
X88032377Y-74098478D01*
X88035531Y-74057379D01*
X88038211Y-74008015D01*
X88040454Y-73949286D01*
X88042299Y-73880090D01*
X88043787Y-73799326D01*
X88044955Y-73705894D01*
X88045844Y-73598692D01*
X88046491Y-73476620D01*
X88046936Y-73338576D01*
X88047218Y-73183459D01*
X88047375Y-73010168D01*
X88047448Y-72817603D01*
X88047474Y-72604662D01*
X88047485Y-72468530D01*
X88849200Y-72468530D01*
X88849200Y-73618721D01*
X88919756Y-73665089D01*
X88960417Y-73688791D01*
X89014546Y-73714639D01*
X89063689Y-73732829D01*
X89127165Y-73748551D01*
X89223331Y-73759541D01*
X89307900Y-73751365D01*
X89381219Y-73723805D01*
X89443637Y-73676642D01*
X89495502Y-73609658D01*
X89537160Y-73522633D01*
X89568962Y-73415350D01*
X89571545Y-73403009D01*
X89580000Y-73341772D01*
X89585663Y-73264692D01*
X89588576Y-73177002D01*
X89588783Y-73083934D01*
X89586330Y-72990720D01*
X89581261Y-72902594D01*
X89573619Y-72824788D01*
X89563448Y-72762533D01*
X89562167Y-72756666D01*
X89533126Y-72646121D01*
X89498610Y-72555575D01*
X89457456Y-72482953D01*
X89408499Y-72426181D01*
X89350574Y-72383184D01*
X89318620Y-72367615D01*
X89245784Y-72348722D01*
X89164443Y-72345465D01*
X89079319Y-72357389D01*
X88995133Y-72384040D01*
X88916608Y-72424962D01*
X88849200Y-72468530D01*
X88047485Y-72468530D01*
X88047493Y-72370245D01*
X88047689Y-70685378D01*
X88953017Y-70685378D01*
X88928585Y-70722067D01*
X88922318Y-70731647D01*
X88896208Y-70777981D01*
X88878469Y-70825102D01*
X88866908Y-70880251D01*
X88859331Y-70950667D01*
X88858839Y-70957650D01*
X88857062Y-70995641D01*
X88855444Y-71049576D01*
X88853999Y-71116703D01*
X88852740Y-71194271D01*
X88851680Y-71279528D01*
X88850829Y-71369724D01*
X88850203Y-71462107D01*
X88849812Y-71553925D01*
X88849670Y-71642427D01*
X88849790Y-71724862D01*
X88850183Y-71798479D01*
X88850862Y-71860526D01*
X88851841Y-71908251D01*
X88853132Y-71938904D01*
X88854747Y-71949733D01*
X88862957Y-71945333D01*
X88884647Y-71930362D01*
X88914014Y-71908448D01*
X88962879Y-71874236D01*
X89051125Y-71827714D01*
X89149916Y-71794046D01*
X89262510Y-71772231D01*
X89392164Y-71761265D01*
X89484670Y-71760219D01*
X89606011Y-71770014D01*
X89716099Y-71794174D01*
X89819389Y-71833785D01*
X89920338Y-71889932D01*
X89965503Y-71920883D01*
X90070911Y-72012115D01*
X90162538Y-72121106D01*
X90240332Y-72247726D01*
X90304241Y-72391845D01*
X90354214Y-72553332D01*
X90390198Y-72732059D01*
X90412143Y-72927895D01*
X90417900Y-73083934D01*
X90419994Y-73140711D01*
G36*
X90419994Y-73140711D02*
G01*
X90419268Y-73218158D01*
X90410689Y-73369594D01*
X90391833Y-73506283D01*
X90361837Y-73632276D01*
X90319836Y-73751625D01*
X90264969Y-73868381D01*
X90198167Y-73979179D01*
X90107363Y-74092739D01*
X90003708Y-74188211D01*
X89887887Y-74265073D01*
X89760586Y-74322797D01*
X89622489Y-74360858D01*
X89584793Y-74366666D01*
X89505752Y-74372396D01*
X89417629Y-74372583D01*
X89328236Y-74367539D01*
X89245384Y-74357578D01*
X89176887Y-74343012D01*
X89146035Y-74333364D01*
X89068730Y-74303123D01*
X88991679Y-74265617D01*
X88922200Y-74224614D01*
X88867615Y-74183879D01*
X88844916Y-74164505D01*
X88822201Y-74146662D01*
X88810779Y-74139778D01*
X88809537Y-74141424D01*
X88806728Y-74159205D01*
X88804776Y-74192370D01*
X88804045Y-74235733D01*
X88804045Y-74331689D01*
X87945896Y-74331689D01*
X87980161Y-74270974D01*
X87985355Y-74261868D01*
X87993715Y-74247249D01*
X88001288Y-74233173D01*
X88008112Y-74218540D01*
X88014227Y-74202249D01*
X88019673Y-74183198D01*
X88024487Y-74160286D01*
X88028708Y-74132413D01*
X88032377Y-74098478D01*
X88035531Y-74057379D01*
X88038211Y-74008015D01*
X88040454Y-73949286D01*
X88042299Y-73880090D01*
X88043787Y-73799326D01*
X88044955Y-73705894D01*
X88045844Y-73598692D01*
X88046491Y-73476620D01*
X88046936Y-73338576D01*
X88047218Y-73183459D01*
X88047375Y-73010168D01*
X88047448Y-72817603D01*
X88047474Y-72604662D01*
X88047485Y-72468530D01*
X88849200Y-72468530D01*
X88849200Y-73618721D01*
X88919756Y-73665089D01*
X88960417Y-73688791D01*
X89014546Y-73714639D01*
X89063689Y-73732829D01*
X89127165Y-73748551D01*
X89223331Y-73759541D01*
X89307900Y-73751365D01*
X89381219Y-73723805D01*
X89443637Y-73676642D01*
X89495502Y-73609658D01*
X89537160Y-73522633D01*
X89568962Y-73415350D01*
X89571545Y-73403009D01*
X89580000Y-73341772D01*
X89585663Y-73264692D01*
X89588576Y-73177002D01*
X89588783Y-73083934D01*
X89586330Y-72990720D01*
X89581261Y-72902594D01*
X89573619Y-72824788D01*
X89563448Y-72762533D01*
X89562167Y-72756666D01*
X89533126Y-72646121D01*
X89498610Y-72555575D01*
X89457456Y-72482953D01*
X89408499Y-72426181D01*
X89350574Y-72383184D01*
X89318620Y-72367615D01*
X89245784Y-72348722D01*
X89164443Y-72345465D01*
X89079319Y-72357389D01*
X88995133Y-72384040D01*
X88916608Y-72424962D01*
X88849200Y-72468530D01*
X88047485Y-72468530D01*
X88047493Y-72370245D01*
X88047689Y-70685378D01*
X88953017Y-70685378D01*
X88928585Y-70722067D01*
X88922318Y-70731647D01*
X88896208Y-70777981D01*
X88878469Y-70825102D01*
X88866908Y-70880251D01*
X88859331Y-70950667D01*
X88858839Y-70957650D01*
X88857062Y-70995641D01*
X88855444Y-71049576D01*
X88853999Y-71116703D01*
X88852740Y-71194271D01*
X88851680Y-71279528D01*
X88850829Y-71369724D01*
X88850203Y-71462107D01*
X88849812Y-71553925D01*
X88849670Y-71642427D01*
X88849790Y-71724862D01*
X88850183Y-71798479D01*
X88850862Y-71860526D01*
X88851841Y-71908251D01*
X88853132Y-71938904D01*
X88854747Y-71949733D01*
X88862957Y-71945333D01*
X88884647Y-71930362D01*
X88914014Y-71908448D01*
X88962879Y-71874236D01*
X89051125Y-71827714D01*
X89149916Y-71794046D01*
X89262510Y-71772231D01*
X89392164Y-71761265D01*
X89484670Y-71760219D01*
X89606011Y-71770014D01*
X89716099Y-71794174D01*
X89819389Y-71833785D01*
X89920338Y-71889932D01*
X89965503Y-71920883D01*
X90070911Y-72012115D01*
X90162538Y-72121106D01*
X90240332Y-72247726D01*
X90304241Y-72391845D01*
X90354214Y-72553332D01*
X90390198Y-72732059D01*
X90412143Y-72927895D01*
X90417900Y-73083934D01*
X90419994Y-73140711D01*
G37*
X92961755Y-73541467D02*
X92961261Y-73575363D01*
X92957632Y-73650202D01*
X92950022Y-73712401D01*
X92937688Y-73768984D01*
X92893313Y-73895076D01*
X92830400Y-74009679D01*
X92750238Y-74110568D01*
X92653740Y-74196924D01*
X92541822Y-74267932D01*
X92415397Y-74322776D01*
X92275378Y-74360638D01*
X92239149Y-74366351D01*
X92160155Y-74372313D01*
X92071841Y-74372646D01*
X91982075Y-74367659D01*
X91898722Y-74357666D01*
X91829651Y-74342978D01*
X91743187Y-74312749D01*
X91633286Y-74258057D01*
X91535956Y-74190543D01*
X91473867Y-74139556D01*
X91470605Y-74235622D01*
X91467343Y-74331689D01*
X91044450Y-74331689D01*
X91033543Y-74331686D01*
X90939056Y-74331380D01*
X90852331Y-74330616D01*
X90775837Y-74329451D01*
X90712043Y-74327942D01*
X90663418Y-74326147D01*
X90632433Y-74324121D01*
X90621556Y-74321922D01*
X90621578Y-74321463D01*
X90628614Y-74305910D01*
X90644434Y-74283071D01*
X90648734Y-74277638D01*
X90659777Y-74263606D01*
X90669311Y-74250186D01*
X90677461Y-74235722D01*
X90684352Y-74218556D01*
X90690111Y-74197034D01*
X90694862Y-74169498D01*
X90698731Y-74134292D01*
X90701844Y-74089760D01*
X90704325Y-74034246D01*
X90706300Y-73966093D01*
X90707894Y-73883645D01*
X90709234Y-73785246D01*
X90710444Y-73669239D01*
X90711649Y-73533968D01*
X90712595Y-73422586D01*
X91513378Y-73422586D01*
X91513378Y-73618462D01*
X91558048Y-73674973D01*
X91570785Y-73690212D01*
X91617604Y-73732844D01*
X91678255Y-73768672D01*
X91688897Y-73773850D01*
X91727676Y-73790745D01*
X91762692Y-73800909D01*
X91802722Y-73806325D01*
X91856541Y-73808978D01*
X91874648Y-73809383D01*
X91950011Y-73806540D01*
X92010743Y-73794620D01*
X92062452Y-73772037D01*
X92110746Y-73737211D01*
X92115803Y-73732798D01*
X92164272Y-73677160D01*
X92192459Y-73613333D01*
X92201752Y-73538282D01*
X92194520Y-73466693D01*
X92169796Y-73403645D01*
X92125249Y-73345758D01*
X92070319Y-73298808D01*
X91997894Y-73258961D01*
X91911340Y-73231263D01*
X91808670Y-73215096D01*
X91687894Y-73209842D01*
X91679007Y-73209857D01*
X91623660Y-73210655D01*
X91576736Y-73212488D01*
X91542953Y-73215111D01*
X91527028Y-73218274D01*
X91522943Y-73224741D01*
X91518572Y-73246875D01*
X91515604Y-73285988D01*
X91513914Y-73343939D01*
X91513378Y-73422586D01*
X90712595Y-73422586D01*
X90712975Y-73377778D01*
X90714228Y-73235012D01*
X90715651Y-73089942D01*
X90717176Y-72964027D01*
X90718933Y-72855436D01*
X90721051Y-72762334D01*
X90723660Y-72682891D01*
X90726890Y-72615273D01*
X90730869Y-72557649D01*
X90735728Y-72508185D01*
X90741597Y-72465050D01*
X90748604Y-72426410D01*
X90756880Y-72390434D01*
X90766554Y-72355289D01*
X90777756Y-72319142D01*
X90790616Y-72280161D01*
X90806090Y-72237091D01*
X90848994Y-72144871D01*
X90902735Y-72065099D01*
X90971576Y-71990965D01*
X91049185Y-71927405D01*
X91153761Y-71865725D01*
X91273244Y-71818202D01*
X91408508Y-71784567D01*
X91560426Y-71764552D01*
X91729872Y-71757889D01*
X91787890Y-71758287D01*
X91853398Y-71760335D01*
X91914693Y-71764704D01*
X91976097Y-71772035D01*
X92041932Y-71782969D01*
X92116520Y-71798147D01*
X92204184Y-71818209D01*
X92309245Y-71843797D01*
X92337806Y-71850820D01*
X92413054Y-71868776D01*
X92483388Y-71884820D01*
X92544567Y-71898028D01*
X92592354Y-71907474D01*
X92622511Y-71912231D01*
X92650783Y-71915910D01*
X92677060Y-71921187D01*
X92687059Y-71925942D01*
X92683952Y-71934781D01*
X92673194Y-71962072D01*
X92655864Y-72004906D01*
X92633126Y-72060425D01*
X92606147Y-72125772D01*
X92576090Y-72198089D01*
X92569493Y-72213879D01*
X92530907Y-72304484D01*
X92499768Y-72374217D01*
X92475917Y-72423405D01*
X92459198Y-72452374D01*
X92449454Y-72461452D01*
X92441766Y-72459405D01*
X92415415Y-72449760D01*
X92376982Y-72434190D01*
X92331822Y-72414815D01*
X92237293Y-72376814D01*
X92100480Y-72335780D01*
X91959289Y-72310612D01*
X91921314Y-72306611D01*
X91818059Y-72304447D01*
X91730952Y-72317622D01*
X91659129Y-72346756D01*
X91601731Y-72392466D01*
X91557896Y-72455372D01*
X91526762Y-72536092D01*
X91507470Y-72635245D01*
X91500050Y-72694224D01*
X91661936Y-72687445D01*
X91788495Y-72685813D01*
X91939951Y-72692194D01*
X92088396Y-72706777D01*
X92224578Y-72728882D01*
X92289245Y-72743821D01*
X92421490Y-72786741D01*
X92543762Y-72843340D01*
X92653685Y-72912017D01*
X92748883Y-72991170D01*
X92826980Y-73079196D01*
X92885599Y-73174493D01*
X92909595Y-73226864D01*
X92935232Y-73297590D01*
X92951478Y-73368812D01*
X92959822Y-73447712D01*
X92961690Y-73538282D01*
X92961755Y-73541467D01*
G36*
X92961755Y-73541467D02*
G01*
X92961261Y-73575363D01*
X92957632Y-73650202D01*
X92950022Y-73712401D01*
X92937688Y-73768984D01*
X92893313Y-73895076D01*
X92830400Y-74009679D01*
X92750238Y-74110568D01*
X92653740Y-74196924D01*
X92541822Y-74267932D01*
X92415397Y-74322776D01*
X92275378Y-74360638D01*
X92239149Y-74366351D01*
X92160155Y-74372313D01*
X92071841Y-74372646D01*
X91982075Y-74367659D01*
X91898722Y-74357666D01*
X91829651Y-74342978D01*
X91743187Y-74312749D01*
X91633286Y-74258057D01*
X91535956Y-74190543D01*
X91473867Y-74139556D01*
X91470605Y-74235622D01*
X91467343Y-74331689D01*
X91044450Y-74331689D01*
X91033543Y-74331686D01*
X90939056Y-74331380D01*
X90852331Y-74330616D01*
X90775837Y-74329451D01*
X90712043Y-74327942D01*
X90663418Y-74326147D01*
X90632433Y-74324121D01*
X90621556Y-74321922D01*
X90621578Y-74321463D01*
X90628614Y-74305910D01*
X90644434Y-74283071D01*
X90648734Y-74277638D01*
X90659777Y-74263606D01*
X90669311Y-74250186D01*
X90677461Y-74235722D01*
X90684352Y-74218556D01*
X90690111Y-74197034D01*
X90694862Y-74169498D01*
X90698731Y-74134292D01*
X90701844Y-74089760D01*
X90704325Y-74034246D01*
X90706300Y-73966093D01*
X90707894Y-73883645D01*
X90709234Y-73785246D01*
X90710444Y-73669239D01*
X90711649Y-73533968D01*
X90712595Y-73422586D01*
X91513378Y-73422586D01*
X91513378Y-73618462D01*
X91558048Y-73674973D01*
X91570785Y-73690212D01*
X91617604Y-73732844D01*
X91678255Y-73768672D01*
X91688897Y-73773850D01*
X91727676Y-73790745D01*
X91762692Y-73800909D01*
X91802722Y-73806325D01*
X91856541Y-73808978D01*
X91874648Y-73809383D01*
X91950011Y-73806540D01*
X92010743Y-73794620D01*
X92062452Y-73772037D01*
X92110746Y-73737211D01*
X92115803Y-73732798D01*
X92164272Y-73677160D01*
X92192459Y-73613333D01*
X92201752Y-73538282D01*
X92194520Y-73466693D01*
X92169796Y-73403645D01*
X92125249Y-73345758D01*
X92070319Y-73298808D01*
X91997894Y-73258961D01*
X91911340Y-73231263D01*
X91808670Y-73215096D01*
X91687894Y-73209842D01*
X91679007Y-73209857D01*
X91623660Y-73210655D01*
X91576736Y-73212488D01*
X91542953Y-73215111D01*
X91527028Y-73218274D01*
X91522943Y-73224741D01*
X91518572Y-73246875D01*
X91515604Y-73285988D01*
X91513914Y-73343939D01*
X91513378Y-73422586D01*
X90712595Y-73422586D01*
X90712975Y-73377778D01*
X90714228Y-73235012D01*
X90715651Y-73089942D01*
X90717176Y-72964027D01*
X90718933Y-72855436D01*
X90721051Y-72762334D01*
X90723660Y-72682891D01*
X90726890Y-72615273D01*
X90730869Y-72557649D01*
X90735728Y-72508185D01*
X90741597Y-72465050D01*
X90748604Y-72426410D01*
X90756880Y-72390434D01*
X90766554Y-72355289D01*
X90777756Y-72319142D01*
X90790616Y-72280161D01*
X90806090Y-72237091D01*
X90848994Y-72144871D01*
X90902735Y-72065099D01*
X90971576Y-71990965D01*
X91049185Y-71927405D01*
X91153761Y-71865725D01*
X91273244Y-71818202D01*
X91408508Y-71784567D01*
X91560426Y-71764552D01*
X91729872Y-71757889D01*
X91787890Y-71758287D01*
X91853398Y-71760335D01*
X91914693Y-71764704D01*
X91976097Y-71772035D01*
X92041932Y-71782969D01*
X92116520Y-71798147D01*
X92204184Y-71818209D01*
X92309245Y-71843797D01*
X92337806Y-71850820D01*
X92413054Y-71868776D01*
X92483388Y-71884820D01*
X92544567Y-71898028D01*
X92592354Y-71907474D01*
X92622511Y-71912231D01*
X92650783Y-71915910D01*
X92677060Y-71921187D01*
X92687059Y-71925942D01*
X92683952Y-71934781D01*
X92673194Y-71962072D01*
X92655864Y-72004906D01*
X92633126Y-72060425D01*
X92606147Y-72125772D01*
X92576090Y-72198089D01*
X92569493Y-72213879D01*
X92530907Y-72304484D01*
X92499768Y-72374217D01*
X92475917Y-72423405D01*
X92459198Y-72452374D01*
X92449454Y-72461452D01*
X92441766Y-72459405D01*
X92415415Y-72449760D01*
X92376982Y-72434190D01*
X92331822Y-72414815D01*
X92237293Y-72376814D01*
X92100480Y-72335780D01*
X91959289Y-72310612D01*
X91921314Y-72306611D01*
X91818059Y-72304447D01*
X91730952Y-72317622D01*
X91659129Y-72346756D01*
X91601731Y-72392466D01*
X91557896Y-72455372D01*
X91526762Y-72536092D01*
X91507470Y-72635245D01*
X91500050Y-72694224D01*
X91661936Y-72687445D01*
X91788495Y-72685813D01*
X91939951Y-72692194D01*
X92088396Y-72706777D01*
X92224578Y-72728882D01*
X92289245Y-72743821D01*
X92421490Y-72786741D01*
X92543762Y-72843340D01*
X92653685Y-72912017D01*
X92748883Y-72991170D01*
X92826980Y-73079196D01*
X92885599Y-73174493D01*
X92909595Y-73226864D01*
X92935232Y-73297590D01*
X92951478Y-73368812D01*
X92959822Y-73447712D01*
X92961690Y-73538282D01*
X92961755Y-73541467D01*
G37*
X100509614Y-71009792D02*
X100510059Y-71141011D01*
X100510362Y-71288216D01*
X100510548Y-71452349D01*
X100510642Y-71634352D01*
X100510671Y-71835165D01*
X100510661Y-72055732D01*
X100510636Y-72296992D01*
X100510622Y-72559889D01*
X100510622Y-72602040D01*
X100510646Y-72862668D01*
X100510685Y-73101796D01*
X100510708Y-73320360D01*
X100510687Y-73519295D01*
X100510593Y-73699535D01*
X100510395Y-73862015D01*
X100510063Y-74007670D01*
X100509569Y-74137434D01*
X100508883Y-74252243D01*
X100507976Y-74353030D01*
X100506817Y-74440730D01*
X100505378Y-74516279D01*
X100503629Y-74580611D01*
X100501540Y-74634661D01*
X100499083Y-74679363D01*
X100496227Y-74715652D01*
X100492943Y-74744463D01*
X100489202Y-74766731D01*
X100484974Y-74783390D01*
X100480229Y-74795375D01*
X100474939Y-74803621D01*
X100469073Y-74809062D01*
X100462602Y-74812634D01*
X100455497Y-74815270D01*
X100447728Y-74817906D01*
X100439266Y-74821477D01*
X100434908Y-74823145D01*
X100426395Y-74825111D01*
X100413694Y-74826911D01*
X100395885Y-74828555D01*
X100372049Y-74830047D01*
X100341266Y-74831397D01*
X100302617Y-74832611D01*
X100255182Y-74833697D01*
X100198043Y-74834661D01*
X100130279Y-74835511D01*
X100050971Y-74836253D01*
X99959199Y-74836897D01*
X99854044Y-74837447D01*
X99734587Y-74837913D01*
X99599908Y-74838300D01*
X99449088Y-74838616D01*
X99281206Y-74838869D01*
X99095345Y-74839066D01*
X98890583Y-74839213D01*
X98666002Y-74839318D01*
X98420682Y-74839389D01*
X98153704Y-74839432D01*
X98115321Y-74839437D01*
X97849922Y-74839480D01*
X97606050Y-74839525D01*
X97382783Y-74839548D01*
X97179196Y-74839524D01*
X96994367Y-74839430D01*
X96827373Y-74839243D01*
X96677290Y-74838939D01*
X96543196Y-74838494D01*
X96424166Y-74837885D01*
X96319279Y-74837089D01*
X96227610Y-74836080D01*
X96148237Y-74834837D01*
X96080237Y-74833335D01*
X96022686Y-74831551D01*
X95974662Y-74829461D01*
X95935240Y-74827042D01*
X95903499Y-74824270D01*
X95878514Y-74821121D01*
X95859364Y-74817572D01*
X95845123Y-74813598D01*
X95834871Y-74809178D01*
X95827682Y-74804286D01*
X95822635Y-74798900D01*
X95818805Y-74792996D01*
X95815271Y-74786549D01*
X95811108Y-74779537D01*
X95810025Y-74777687D01*
X95807813Y-74772180D01*
X95805786Y-74763868D01*
X95803938Y-74751809D01*
X95802261Y-74735063D01*
X95800745Y-74712687D01*
X95799383Y-74683740D01*
X95798167Y-74647280D01*
X95797089Y-74602367D01*
X95796140Y-74548057D01*
X95795312Y-74483410D01*
X95794597Y-74407484D01*
X95793987Y-74319338D01*
X95793942Y-74310493D01*
X96085378Y-74310493D01*
X96089260Y-74311765D01*
X96112520Y-74313791D01*
X96154874Y-74315626D01*
X96214132Y-74317227D01*
X96288107Y-74318549D01*
X96374610Y-74319548D01*
X96471452Y-74320180D01*
X96576445Y-74320400D01*
X97274651Y-74320400D01*
X98429090Y-74320400D01*
X98428456Y-74244200D01*
X98429574Y-74202160D01*
X98435304Y-74166334D01*
X98447890Y-74128772D01*
X98469568Y-74080577D01*
X98472789Y-74073897D01*
X98498188Y-74024359D01*
X98524996Y-73976369D01*
X98547917Y-73939466D01*
X98552485Y-73932834D01*
X98574516Y-73901593D01*
X98606693Y-73856654D01*
X98647457Y-73800147D01*
X98695245Y-73734204D01*
X98748498Y-73660957D01*
X98805655Y-73582536D01*
X98865155Y-73501072D01*
X98925437Y-73418698D01*
X98984940Y-73337544D01*
X99042105Y-73259742D01*
X99095370Y-73187423D01*
X99143174Y-73122718D01*
X99183957Y-73067759D01*
X99216158Y-73024676D01*
X99238216Y-72995602D01*
X99248571Y-72982667D01*
X99253044Y-72978351D01*
X99257236Y-72976312D01*
X99260643Y-72978926D01*
X99263325Y-72987986D01*
X99265341Y-73005285D01*
X99266748Y-73032614D01*
X99267605Y-73071765D01*
X99267970Y-73124533D01*
X99267903Y-73192707D01*
X99267460Y-73278082D01*
X99266702Y-73382449D01*
X99265685Y-73507600D01*
X99265308Y-73552300D01*
X99264169Y-73673395D01*
X99262972Y-73774688D01*
X99261636Y-73858262D01*
X99260077Y-73926204D01*
X99258215Y-73980599D01*
X99255966Y-74023532D01*
X99253248Y-74057089D01*
X99249979Y-74083355D01*
X99246078Y-74104416D01*
X99241461Y-74122357D01*
X99233192Y-74148770D01*
X99209583Y-74210772D01*
X99183685Y-74263573D01*
X99158535Y-74300645D01*
X99157339Y-74302075D01*
X99155168Y-74306424D01*
X99157328Y-74310026D01*
X99165644Y-74312951D01*
X99181940Y-74315269D01*
X99208041Y-74317051D01*
X99245771Y-74318367D01*
X99296956Y-74319286D01*
X99363420Y-74319878D01*
X99446987Y-74320215D01*
X99549483Y-74320365D01*
X99672732Y-74320400D01*
X100204296Y-74320400D01*
X100165523Y-74262783D01*
X100159432Y-74253893D01*
X100148976Y-74239069D01*
X100139579Y-74225422D01*
X100131183Y-74211765D01*
X100123733Y-74196911D01*
X100117173Y-74179670D01*
X100111446Y-74158855D01*
X100106495Y-74133280D01*
X100102266Y-74101755D01*
X100098701Y-74063093D01*
X100095744Y-74016107D01*
X100093340Y-73959608D01*
X100091431Y-73892409D01*
X100089962Y-73813322D01*
X100088876Y-73721160D01*
X100088118Y-73614734D01*
X100087630Y-73492857D01*
X100087358Y-73354341D01*
X100087243Y-73197999D01*
X100087231Y-73022642D01*
X100087265Y-72827082D01*
X100087289Y-72610133D01*
X100087280Y-72487513D01*
X100087243Y-72282447D01*
X100087227Y-72098116D01*
X100087288Y-71933334D01*
X100087484Y-71786916D01*
X100087870Y-71657674D01*
X100088505Y-71544422D01*
X100089444Y-71445975D01*
X100090745Y-71361144D01*
X100092464Y-71288744D01*
X100094659Y-71227589D01*
X100097385Y-71176492D01*
X100100701Y-71134267D01*
X100104662Y-71099727D01*
X100109325Y-71071686D01*
X100114747Y-71048958D01*
X100120986Y-71030356D01*
X100128097Y-71014693D01*
X100136138Y-71000784D01*
X100145166Y-70987441D01*
X100155236Y-70973479D01*
X100166407Y-70957711D01*
X100206197Y-70899867D01*
X99146314Y-70899867D01*
X99184311Y-70962966D01*
X99198993Y-70988005D01*
X99213531Y-71015586D01*
X99225627Y-71043700D01*
X99235532Y-71074551D01*
X99243494Y-71110344D01*
X99249761Y-71153283D01*
X99254582Y-71205574D01*
X99258206Y-71269419D01*
X99260881Y-71347025D01*
X99262857Y-71440594D01*
X99264382Y-71552333D01*
X99265704Y-71684445D01*
X99266613Y-71804434D01*
X99267020Y-71921063D01*
X99266767Y-72016531D01*
X99265857Y-72090556D01*
X99264293Y-72142855D01*
X99262079Y-72173149D01*
X99259220Y-72181156D01*
X99256161Y-72177858D01*
X99238006Y-72156408D01*
X99208275Y-72119889D01*
X99168639Y-72070442D01*
X99120771Y-72010207D01*
X99066343Y-71941327D01*
X99007027Y-71865943D01*
X98944495Y-71786196D01*
X98880421Y-71704228D01*
X98816475Y-71622180D01*
X98754331Y-71542194D01*
X98695661Y-71466411D01*
X98642137Y-71396973D01*
X98595430Y-71336021D01*
X98557214Y-71285696D01*
X98529161Y-71248140D01*
X98512943Y-71225495D01*
X98467635Y-71153212D01*
X98427661Y-71073463D01*
X98406130Y-71005188D01*
X98402827Y-70947844D01*
X98408116Y-70899867D01*
X97276356Y-70900117D01*
X97315867Y-70930722D01*
X97325248Y-70938089D01*
X97388183Y-70992438D01*
X97456997Y-71060259D01*
X97533596Y-71143516D01*
X97619888Y-71244178D01*
X97637052Y-71264847D01*
X97677833Y-71314409D01*
X97727588Y-71375326D01*
X97784955Y-71445898D01*
X97848569Y-71524424D01*
X97917069Y-71609204D01*
X97989090Y-71698537D01*
X98063270Y-71790722D01*
X98078517Y-71809702D01*
X98138246Y-71884060D01*
X98212653Y-71976848D01*
X98285131Y-72067388D01*
X98354314Y-72153978D01*
X98418841Y-72234918D01*
X98477347Y-72308506D01*
X98528470Y-72373044D01*
X98570847Y-72426829D01*
X98603115Y-72468162D01*
X98623910Y-72495342D01*
X98631869Y-72506668D01*
X98630111Y-72510771D01*
X98617230Y-72531334D01*
X98592885Y-72567561D01*
X98558247Y-72617824D01*
X98514486Y-72680492D01*
X98462775Y-72753936D01*
X98404284Y-72836527D01*
X98340184Y-72926636D01*
X98271646Y-73022631D01*
X98199843Y-73122885D01*
X98125944Y-73225768D01*
X98051121Y-73329650D01*
X97976545Y-73432901D01*
X97903387Y-73533892D01*
X97832819Y-73630994D01*
X97766011Y-73722577D01*
X97704135Y-73807011D01*
X97648361Y-73882667D01*
X97599862Y-73947916D01*
X97559807Y-74001128D01*
X97529369Y-74040673D01*
X97508944Y-74066026D01*
X97462899Y-74120295D01*
X97412612Y-74176775D01*
X97365815Y-74226669D01*
X97274651Y-74320400D01*
X96576445Y-74320400D01*
X96645356Y-74320349D01*
X96743607Y-74320091D01*
X96833030Y-74319637D01*
X96911333Y-74319010D01*
X96976223Y-74318235D01*
X97025411Y-74317335D01*
X97056604Y-74316334D01*
X97067511Y-74315257D01*
X97066322Y-74312037D01*
X97056176Y-74294452D01*
X97039040Y-74268158D01*
X97030540Y-74255691D01*
X97021329Y-74241622D01*
X97013233Y-74227351D01*
X97006185Y-74211479D01*
X97000117Y-74192609D01*
X96994961Y-74169341D01*
X96990651Y-74140278D01*
X96987119Y-74104021D01*
X96984297Y-74059170D01*
X96982118Y-74004328D01*
X96980514Y-73938097D01*
X96979419Y-73859077D01*
X96978765Y-73765871D01*
X96978484Y-73657079D01*
X96978509Y-73531303D01*
X96978772Y-73387145D01*
X96979206Y-73223207D01*
X96979745Y-73038089D01*
X96980279Y-72859232D01*
X96980805Y-72700374D01*
X96981350Y-72561316D01*
X96981945Y-72440665D01*
X96982619Y-72337028D01*
X96983403Y-72249011D01*
X96984326Y-72175223D01*
X96985419Y-72114269D01*
X96986712Y-72064757D01*
X96988235Y-72025293D01*
X96990019Y-71994484D01*
X96992092Y-71970938D01*
X96994486Y-71953260D01*
X96997230Y-71940059D01*
X97000356Y-71929940D01*
X97003892Y-71921511D01*
X97007791Y-71913375D01*
X97027438Y-71876544D01*
X97046225Y-71846391D01*
X97047272Y-71844908D01*
X97061602Y-71822659D01*
X97067511Y-71809702D01*
X97066504Y-71809249D01*
X97049305Y-71807803D01*
X97012656Y-71806480D01*
X96958962Y-71805316D01*
X96890630Y-71804347D01*
X96810064Y-71803611D01*
X96719670Y-71803142D01*
X96621853Y-71802978D01*
X96176195Y-71802978D01*
X96173120Y-72979845D01*
X96170045Y-74156711D01*
X96143407Y-74215622D01*
X96131485Y-74240183D01*
X96114246Y-74270434D01*
X96101074Y-74287560D01*
X96093076Y-74295591D01*
X96085378Y-74310493D01*
X95793942Y-74310493D01*
X95793474Y-74218029D01*
X95793050Y-74102617D01*
X95792706Y-73972160D01*
X95792434Y-73825716D01*
X95792227Y-73662344D01*
X95792076Y-73481101D01*
X95791972Y-73281048D01*
X95791908Y-73061241D01*
X95791876Y-72820739D01*
X95791867Y-72558602D01*
X95791867Y-70367031D01*
X95830249Y-70328649D01*
X95857355Y-70304911D01*
X95884253Y-70293111D01*
X95920560Y-70290267D01*
X95972489Y-70290267D01*
X95972489Y-70378206D01*
X95974427Y-70428102D01*
X95993199Y-70538523D01*
X96030217Y-70639987D01*
X96083369Y-70731152D01*
X96150546Y-70810673D01*
X96229638Y-70877205D01*
X96318534Y-70929406D01*
X96415125Y-70965930D01*
X96517300Y-70985434D01*
X96622950Y-70986573D01*
X96729964Y-70968005D01*
X96836232Y-70928384D01*
X96933219Y-70870516D01*
X97018293Y-70795684D01*
X97087015Y-70707615D01*
X97137918Y-70608616D01*
X97169535Y-70500993D01*
X97180400Y-70387054D01*
X97180400Y-70290267D01*
X98800753Y-70290267D01*
X99011897Y-70290280D01*
X99216020Y-70290330D01*
X99399686Y-70290430D01*
X99563991Y-70290592D01*
X99710029Y-70290829D01*
X99838894Y-70291153D01*
X99951683Y-70291575D01*
X100049488Y-70292109D01*
X100133404Y-70292767D01*
X100204527Y-70293561D01*
X100263950Y-70294504D01*
X100312768Y-70295608D01*
X100352077Y-70296884D01*
X100382969Y-70298347D01*
X100406541Y-70300007D01*
X100423886Y-70301878D01*
X100436099Y-70303972D01*
X100444275Y-70306300D01*
X100449508Y-70308876D01*
X100455504Y-70312445D01*
X100462279Y-70315978D01*
X100468478Y-70319488D01*
X100474126Y-70323918D01*
X100479247Y-70330208D01*
X100483869Y-70339301D01*
X100488015Y-70352139D01*
X100491713Y-70369662D01*
X100494987Y-70392813D01*
X100497863Y-70422534D01*
X100500367Y-70459765D01*
X100502524Y-70505449D01*
X100504360Y-70560527D01*
X100505900Y-70625941D01*
X100507170Y-70702633D01*
X100508195Y-70791544D01*
X100509001Y-70893617D01*
X100509034Y-70899867D01*
X100509614Y-71009792D01*
G36*
X100509614Y-71009792D02*
G01*
X100510059Y-71141011D01*
X100510362Y-71288216D01*
X100510548Y-71452349D01*
X100510642Y-71634352D01*
X100510671Y-71835165D01*
X100510661Y-72055732D01*
X100510636Y-72296992D01*
X100510622Y-72559889D01*
X100510622Y-72602040D01*
X100510646Y-72862668D01*
X100510685Y-73101796D01*
X100510708Y-73320360D01*
X100510687Y-73519295D01*
X100510593Y-73699535D01*
X100510395Y-73862015D01*
X100510063Y-74007670D01*
X100509569Y-74137434D01*
X100508883Y-74252243D01*
X100507976Y-74353030D01*
X100506817Y-74440730D01*
X100505378Y-74516279D01*
X100503629Y-74580611D01*
X100501540Y-74634661D01*
X100499083Y-74679363D01*
X100496227Y-74715652D01*
X100492943Y-74744463D01*
X100489202Y-74766731D01*
X100484974Y-74783390D01*
X100480229Y-74795375D01*
X100474939Y-74803621D01*
X100469073Y-74809062D01*
X100462602Y-74812634D01*
X100455497Y-74815270D01*
X100447728Y-74817906D01*
X100439266Y-74821477D01*
X100434908Y-74823145D01*
X100426395Y-74825111D01*
X100413694Y-74826911D01*
X100395885Y-74828555D01*
X100372049Y-74830047D01*
X100341266Y-74831397D01*
X100302617Y-74832611D01*
X100255182Y-74833697D01*
X100198043Y-74834661D01*
X100130279Y-74835511D01*
X100050971Y-74836253D01*
X99959199Y-74836897D01*
X99854044Y-74837447D01*
X99734587Y-74837913D01*
X99599908Y-74838300D01*
X99449088Y-74838616D01*
X99281206Y-74838869D01*
X99095345Y-74839066D01*
X98890583Y-74839213D01*
X98666002Y-74839318D01*
X98420682Y-74839389D01*
X98153704Y-74839432D01*
X98115321Y-74839437D01*
X97849922Y-74839480D01*
X97606050Y-74839525D01*
X97382783Y-74839548D01*
X97179196Y-74839524D01*
X96994367Y-74839430D01*
X96827373Y-74839243D01*
X96677290Y-74838939D01*
X96543196Y-74838494D01*
X96424166Y-74837885D01*
X96319279Y-74837089D01*
X96227610Y-74836080D01*
X96148237Y-74834837D01*
X96080237Y-74833335D01*
X96022686Y-74831551D01*
X95974662Y-74829461D01*
X95935240Y-74827042D01*
X95903499Y-74824270D01*
X95878514Y-74821121D01*
X95859364Y-74817572D01*
X95845123Y-74813598D01*
X95834871Y-74809178D01*
X95827682Y-74804286D01*
X95822635Y-74798900D01*
X95818805Y-74792996D01*
X95815271Y-74786549D01*
X95811108Y-74779537D01*
X95810025Y-74777687D01*
X95807813Y-74772180D01*
X95805786Y-74763868D01*
X95803938Y-74751809D01*
X95802261Y-74735063D01*
X95800745Y-74712687D01*
X95799383Y-74683740D01*
X95798167Y-74647280D01*
X95797089Y-74602367D01*
X95796140Y-74548057D01*
X95795312Y-74483410D01*
X95794597Y-74407484D01*
X95793987Y-74319338D01*
X95793942Y-74310493D01*
X96085378Y-74310493D01*
X96089260Y-74311765D01*
X96112520Y-74313791D01*
X96154874Y-74315626D01*
X96214132Y-74317227D01*
X96288107Y-74318549D01*
X96374610Y-74319548D01*
X96471452Y-74320180D01*
X96576445Y-74320400D01*
X97274651Y-74320400D01*
X98429090Y-74320400D01*
X98428456Y-74244200D01*
X98429574Y-74202160D01*
X98435304Y-74166334D01*
X98447890Y-74128772D01*
X98469568Y-74080577D01*
X98472789Y-74073897D01*
X98498188Y-74024359D01*
X98524996Y-73976369D01*
X98547917Y-73939466D01*
X98552485Y-73932834D01*
X98574516Y-73901593D01*
X98606693Y-73856654D01*
X98647457Y-73800147D01*
X98695245Y-73734204D01*
X98748498Y-73660957D01*
X98805655Y-73582536D01*
X98865155Y-73501072D01*
X98925437Y-73418698D01*
X98984940Y-73337544D01*
X99042105Y-73259742D01*
X99095370Y-73187423D01*
X99143174Y-73122718D01*
X99183957Y-73067759D01*
X99216158Y-73024676D01*
X99238216Y-72995602D01*
X99248571Y-72982667D01*
X99253044Y-72978351D01*
X99257236Y-72976312D01*
X99260643Y-72978926D01*
X99263325Y-72987986D01*
X99265341Y-73005285D01*
X99266748Y-73032614D01*
X99267605Y-73071765D01*
X99267970Y-73124533D01*
X99267903Y-73192707D01*
X99267460Y-73278082D01*
X99266702Y-73382449D01*
X99265685Y-73507600D01*
X99265308Y-73552300D01*
X99264169Y-73673395D01*
X99262972Y-73774688D01*
X99261636Y-73858262D01*
X99260077Y-73926204D01*
X99258215Y-73980599D01*
X99255966Y-74023532D01*
X99253248Y-74057089D01*
X99249979Y-74083355D01*
X99246078Y-74104416D01*
X99241461Y-74122357D01*
X99233192Y-74148770D01*
X99209583Y-74210772D01*
X99183685Y-74263573D01*
X99158535Y-74300645D01*
X99157339Y-74302075D01*
X99155168Y-74306424D01*
X99157328Y-74310026D01*
X99165644Y-74312951D01*
X99181940Y-74315269D01*
X99208041Y-74317051D01*
X99245771Y-74318367D01*
X99296956Y-74319286D01*
X99363420Y-74319878D01*
X99446987Y-74320215D01*
X99549483Y-74320365D01*
X99672732Y-74320400D01*
X100204296Y-74320400D01*
X100165523Y-74262783D01*
X100159432Y-74253893D01*
X100148976Y-74239069D01*
X100139579Y-74225422D01*
X100131183Y-74211765D01*
X100123733Y-74196911D01*
X100117173Y-74179670D01*
X100111446Y-74158855D01*
X100106495Y-74133280D01*
X100102266Y-74101755D01*
X100098701Y-74063093D01*
X100095744Y-74016107D01*
X100093340Y-73959608D01*
X100091431Y-73892409D01*
X100089962Y-73813322D01*
X100088876Y-73721160D01*
X100088118Y-73614734D01*
X100087630Y-73492857D01*
X100087358Y-73354341D01*
X100087243Y-73197999D01*
X100087231Y-73022642D01*
X100087265Y-72827082D01*
X100087289Y-72610133D01*
X100087280Y-72487513D01*
X100087243Y-72282447D01*
X100087227Y-72098116D01*
X100087288Y-71933334D01*
X100087484Y-71786916D01*
X100087870Y-71657674D01*
X100088505Y-71544422D01*
X100089444Y-71445975D01*
X100090745Y-71361144D01*
X100092464Y-71288744D01*
X100094659Y-71227589D01*
X100097385Y-71176492D01*
X100100701Y-71134267D01*
X100104662Y-71099727D01*
X100109325Y-71071686D01*
X100114747Y-71048958D01*
X100120986Y-71030356D01*
X100128097Y-71014693D01*
X100136138Y-71000784D01*
X100145166Y-70987441D01*
X100155236Y-70973479D01*
X100166407Y-70957711D01*
X100206197Y-70899867D01*
X99146314Y-70899867D01*
X99184311Y-70962966D01*
X99198993Y-70988005D01*
X99213531Y-71015586D01*
X99225627Y-71043700D01*
X99235532Y-71074551D01*
X99243494Y-71110344D01*
X99249761Y-71153283D01*
X99254582Y-71205574D01*
X99258206Y-71269419D01*
X99260881Y-71347025D01*
X99262857Y-71440594D01*
X99264382Y-71552333D01*
X99265704Y-71684445D01*
X99266613Y-71804434D01*
X99267020Y-71921063D01*
X99266767Y-72016531D01*
X99265857Y-72090556D01*
X99264293Y-72142855D01*
X99262079Y-72173149D01*
X99259220Y-72181156D01*
X99256161Y-72177858D01*
X99238006Y-72156408D01*
X99208275Y-72119889D01*
X99168639Y-72070442D01*
X99120771Y-72010207D01*
X99066343Y-71941327D01*
X99007027Y-71865943D01*
X98944495Y-71786196D01*
X98880421Y-71704228D01*
X98816475Y-71622180D01*
X98754331Y-71542194D01*
X98695661Y-71466411D01*
X98642137Y-71396973D01*
X98595430Y-71336021D01*
X98557214Y-71285696D01*
X98529161Y-71248140D01*
X98512943Y-71225495D01*
X98467635Y-71153212D01*
X98427661Y-71073463D01*
X98406130Y-71005188D01*
X98402827Y-70947844D01*
X98408116Y-70899867D01*
X97276356Y-70900117D01*
X97315867Y-70930722D01*
X97325248Y-70938089D01*
X97388183Y-70992438D01*
X97456997Y-71060259D01*
X97533596Y-71143516D01*
X97619888Y-71244178D01*
X97637052Y-71264847D01*
X97677833Y-71314409D01*
X97727588Y-71375326D01*
X97784955Y-71445898D01*
X97848569Y-71524424D01*
X97917069Y-71609204D01*
X97989090Y-71698537D01*
X98063270Y-71790722D01*
X98078517Y-71809702D01*
X98138246Y-71884060D01*
X98212653Y-71976848D01*
X98285131Y-72067388D01*
X98354314Y-72153978D01*
X98418841Y-72234918D01*
X98477347Y-72308506D01*
X98528470Y-72373044D01*
X98570847Y-72426829D01*
X98603115Y-72468162D01*
X98623910Y-72495342D01*
X98631869Y-72506668D01*
X98630111Y-72510771D01*
X98617230Y-72531334D01*
X98592885Y-72567561D01*
X98558247Y-72617824D01*
X98514486Y-72680492D01*
X98462775Y-72753936D01*
X98404284Y-72836527D01*
X98340184Y-72926636D01*
X98271646Y-73022631D01*
X98199843Y-73122885D01*
X98125944Y-73225768D01*
X98051121Y-73329650D01*
X97976545Y-73432901D01*
X97903387Y-73533892D01*
X97832819Y-73630994D01*
X97766011Y-73722577D01*
X97704135Y-73807011D01*
X97648361Y-73882667D01*
X97599862Y-73947916D01*
X97559807Y-74001128D01*
X97529369Y-74040673D01*
X97508944Y-74066026D01*
X97462899Y-74120295D01*
X97412612Y-74176775D01*
X97365815Y-74226669D01*
X97274651Y-74320400D01*
X96576445Y-74320400D01*
X96645356Y-74320349D01*
X96743607Y-74320091D01*
X96833030Y-74319637D01*
X96911333Y-74319010D01*
X96976223Y-74318235D01*
X97025411Y-74317335D01*
X97056604Y-74316334D01*
X97067511Y-74315257D01*
X97066322Y-74312037D01*
X97056176Y-74294452D01*
X97039040Y-74268158D01*
X97030540Y-74255691D01*
X97021329Y-74241622D01*
X97013233Y-74227351D01*
X97006185Y-74211479D01*
X97000117Y-74192609D01*
X96994961Y-74169341D01*
X96990651Y-74140278D01*
X96987119Y-74104021D01*
X96984297Y-74059170D01*
X96982118Y-74004328D01*
X96980514Y-73938097D01*
X96979419Y-73859077D01*
X96978765Y-73765871D01*
X96978484Y-73657079D01*
X96978509Y-73531303D01*
X96978772Y-73387145D01*
X96979206Y-73223207D01*
X96979745Y-73038089D01*
X96980279Y-72859232D01*
X96980805Y-72700374D01*
X96981350Y-72561316D01*
X96981945Y-72440665D01*
X96982619Y-72337028D01*
X96983403Y-72249011D01*
X96984326Y-72175223D01*
X96985419Y-72114269D01*
X96986712Y-72064757D01*
X96988235Y-72025293D01*
X96990019Y-71994484D01*
X96992092Y-71970938D01*
X96994486Y-71953260D01*
X96997230Y-71940059D01*
X97000356Y-71929940D01*
X97003892Y-71921511D01*
X97007791Y-71913375D01*
X97027438Y-71876544D01*
X97046225Y-71846391D01*
X97047272Y-71844908D01*
X97061602Y-71822659D01*
X97067511Y-71809702D01*
X97066504Y-71809249D01*
X97049305Y-71807803D01*
X97012656Y-71806480D01*
X96958962Y-71805316D01*
X96890630Y-71804347D01*
X96810064Y-71803611D01*
X96719670Y-71803142D01*
X96621853Y-71802978D01*
X96176195Y-71802978D01*
X96173120Y-72979845D01*
X96170045Y-74156711D01*
X96143407Y-74215622D01*
X96131485Y-74240183D01*
X96114246Y-74270434D01*
X96101074Y-74287560D01*
X96093076Y-74295591D01*
X96085378Y-74310493D01*
X95793942Y-74310493D01*
X95793474Y-74218029D01*
X95793050Y-74102617D01*
X95792706Y-73972160D01*
X95792434Y-73825716D01*
X95792227Y-73662344D01*
X95792076Y-73481101D01*
X95791972Y-73281048D01*
X95791908Y-73061241D01*
X95791876Y-72820739D01*
X95791867Y-72558602D01*
X95791867Y-70367031D01*
X95830249Y-70328649D01*
X95857355Y-70304911D01*
X95884253Y-70293111D01*
X95920560Y-70290267D01*
X95972489Y-70290267D01*
X95972489Y-70378206D01*
X95974427Y-70428102D01*
X95993199Y-70538523D01*
X96030217Y-70639987D01*
X96083369Y-70731152D01*
X96150546Y-70810673D01*
X96229638Y-70877205D01*
X96318534Y-70929406D01*
X96415125Y-70965930D01*
X96517300Y-70985434D01*
X96622950Y-70986573D01*
X96729964Y-70968005D01*
X96836232Y-70928384D01*
X96933219Y-70870516D01*
X97018293Y-70795684D01*
X97087015Y-70707615D01*
X97137918Y-70608616D01*
X97169535Y-70500993D01*
X97180400Y-70387054D01*
X97180400Y-70290267D01*
X98800753Y-70290267D01*
X99011897Y-70290280D01*
X99216020Y-70290330D01*
X99399686Y-70290430D01*
X99563991Y-70290592D01*
X99710029Y-70290829D01*
X99838894Y-70291153D01*
X99951683Y-70291575D01*
X100049488Y-70292109D01*
X100133404Y-70292767D01*
X100204527Y-70293561D01*
X100263950Y-70294504D01*
X100312768Y-70295608D01*
X100352077Y-70296884D01*
X100382969Y-70298347D01*
X100406541Y-70300007D01*
X100423886Y-70301878D01*
X100436099Y-70303972D01*
X100444275Y-70306300D01*
X100449508Y-70308876D01*
X100455504Y-70312445D01*
X100462279Y-70315978D01*
X100468478Y-70319488D01*
X100474126Y-70323918D01*
X100479247Y-70330208D01*
X100483869Y-70339301D01*
X100488015Y-70352139D01*
X100491713Y-70369662D01*
X100494987Y-70392813D01*
X100497863Y-70422534D01*
X100500367Y-70459765D01*
X100502524Y-70505449D01*
X100504360Y-70560527D01*
X100505900Y-70625941D01*
X100507170Y-70702633D01*
X100508195Y-70791544D01*
X100509001Y-70893617D01*
X100509034Y-70899867D01*
X100509614Y-71009792D01*
G37*
%TD*%
M02*
