%TF.GenerationSoftware,KiCad,Pcbnew,10.0.0*%
%TF.CreationDate,2026-07-08T11:15:42+02:00*%
%TF.ProjectId,AC to DC Converter,41432074-6f20-4444-9320-436f6e766572,rev?*%
%TF.SameCoordinates,Original*%
%TF.FileFunction,Copper,L2,Bot*%
%TF.FilePolarity,Positive*%
%FSLAX46Y46*%
G04 Gerber Fmt 4.6, Leading zero omitted, Abs format (unit mm)*
G04 Created by KiCad (PCBNEW 10.0.0) date 2026-07-08 11:15:42*
%MOMM*%
%LPD*%
G01*
G04 APERTURE LIST*
G04 Aperture macros list*
%AMRoundRect*
0 Rectangle with rounded corners*
0 $1 Rounding radius*
0 $2 $3 $4 $5 $6 $7 $8 $9 X,Y pos of 4 corners*
0 Add a 4 corners polygon primitive as box body*
4,1,4,$2,$3,$4,$5,$6,$7,$8,$9,$2,$3,0*
0 Add four circle primitives for the rounded corners*
1,1,$1+$1,$2,$3*
1,1,$1+$1,$4,$5*
1,1,$1+$1,$6,$7*
1,1,$1+$1,$8,$9*
0 Add four rect primitives between the rounded corners*
20,1,$1+$1,$2,$3,$4,$5,0*
20,1,$1+$1,$4,$5,$6,$7,0*
20,1,$1+$1,$6,$7,$8,$9,0*
20,1,$1+$1,$8,$9,$2,$3,0*%
G04 Aperture macros list end*
%TA.AperFunction,ComponentPad*%
%ADD10RoundRect,0.250000X1.050000X-1.050000X1.050000X1.050000X-1.050000X1.050000X-1.050000X-1.050000X0*%
%TD*%
%TA.AperFunction,ComponentPad*%
%ADD11C,2.600000*%
%TD*%
%TA.AperFunction,ComponentPad*%
%ADD12RoundRect,0.249999X-0.850001X0.850001X-0.850001X-0.850001X0.850001X-0.850001X0.850001X0.850001X0*%
%TD*%
%TA.AperFunction,ComponentPad*%
%ADD13C,2.200000*%
%TD*%
%TA.AperFunction,ComponentPad*%
%ADD14R,1.800000X1.800000*%
%TD*%
%TA.AperFunction,ComponentPad*%
%ADD15C,1.800000*%
%TD*%
%TA.AperFunction,ComponentPad*%
%ADD16C,1.600000*%
%TD*%
%TA.AperFunction,Conductor*%
%ADD17C,0.800000*%
%TD*%
%TA.AperFunction,Conductor*%
%ADD18C,0.500000*%
%TD*%
G04 APERTURE END LIST*
D10*
%TO.P,J2,1,Pin_1_1*%
%TO.N,GND*%
X84455000Y-73580000D03*
D11*
%TO.P,J2,2,Pin_2_2*%
%TO.N,/+VDC*%
X84455000Y-68580000D03*
%TD*%
D12*
%TO.P,D4,1,K_1*%
%TO.N,/AC1*%
X97155000Y-67310000D03*
D13*
%TO.P,D4,2,A_2*%
%TO.N,GND*%
X97155000Y-77470000D03*
%TD*%
D12*
%TO.P,D3,1,K_1*%
%TO.N,/+VDC*%
X97790000Y-52705000D03*
D13*
%TO.P,D3,2,A_2*%
%TO.N,/AC1*%
X97790000Y-62865000D03*
%TD*%
D10*
%TO.P,J1,1,Pin_1_1*%
%TO.N,/AC1*%
X84455000Y-60285000D03*
D11*
%TO.P,J1,2,Pin_2_2*%
%TO.N,/AC2*%
X84455000Y-55285000D03*
%TD*%
D14*
%TO.P,D5,1,K_1*%
%TO.N,GND*%
X108580000Y-57150000D03*
D15*
%TO.P,D5,2,A_2*%
%TO.N,Net-(D5-A)*%
X111120000Y-57150000D03*
%TD*%
D12*
%TO.P,D1,1,K_1*%
%TO.N,/+VDC*%
X92710000Y-52705000D03*
D13*
%TO.P,D1,2,A_2*%
%TO.N,/AC2*%
X92710000Y-62865000D03*
%TD*%
D16*
%TO.P,R2,1*%
%TO.N,/+VDC*%
X101600000Y-65405000D03*
%TO.P,R2,2*%
%TO.N,Net-(D5-A)*%
X109220000Y-65405000D03*
%TD*%
%TO.P,C1,1*%
%TO.N,/+VDC*%
X106680000Y-71755000D03*
%TO.P,C1,2*%
%TO.N,GND*%
X106680000Y-75255000D03*
%TD*%
%TO.P,R1,1*%
%TO.N,/+VDC*%
X103505000Y-52705000D03*
%TO.P,R1,2*%
%TO.N,GND*%
X103505000Y-60325000D03*
%TD*%
D12*
%TO.P,D2,1,K_1*%
%TO.N,/AC2*%
X92710000Y-67310000D03*
D13*
%TO.P,D2,2,A_2*%
%TO.N,GND*%
X92710000Y-77470000D03*
%TD*%
%TO.N,/+VDC*%
D17*
X84455000Y-68580000D02*
X78486000Y-68580000D01*
X101600000Y-62992000D02*
X100330000Y-61722000D01*
X92710000Y-52705000D02*
X97155000Y-52705000D01*
X103505000Y-52705000D02*
X97155000Y-52705000D01*
X100330000Y-61722000D02*
X100330000Y-55880000D01*
X100330000Y-55880000D02*
X103505000Y-52705000D01*
X77216000Y-55626000D02*
X80137000Y-52705000D01*
X80137000Y-52705000D02*
X92710000Y-52705000D01*
X101600000Y-65405000D02*
X101600000Y-62992000D01*
X77216000Y-67310000D02*
X77216000Y-55626000D01*
X78486000Y-68580000D02*
X77216000Y-67310000D01*
X106680000Y-70485000D02*
X101600000Y-65405000D01*
X106680000Y-71755000D02*
X106680000Y-70485000D01*
%TO.N,/AC2*%
X84455000Y-55285000D02*
X89829000Y-55285000D01*
X92710000Y-58166000D02*
X92710000Y-62865000D01*
X92710000Y-62865000D02*
X92710000Y-67310000D01*
X89829000Y-55285000D02*
X92710000Y-58166000D01*
%TO.N,/AC1*%
X89408000Y-69088000D02*
X89916000Y-69596000D01*
X89916000Y-69596000D02*
X94869000Y-69596000D01*
X89408000Y-62738000D02*
X89408000Y-69088000D01*
X97155000Y-62865000D02*
X97155000Y-67310000D01*
X86955000Y-60285000D02*
X89408000Y-62738000D01*
X94869000Y-69596000D02*
X97155000Y-67310000D01*
X84455000Y-60285000D02*
X86955000Y-60285000D01*
%TO.N,Net-(D5-A)*%
D18*
X111120000Y-57150000D02*
X111120000Y-59314000D01*
X111120000Y-59314000D02*
X109220000Y-61214000D01*
X109220000Y-61214000D02*
X109220000Y-65405000D01*
%TD*%
%TA.AperFunction,Conductor*%
%TO.N,GND*%
G36*
X112824022Y-51218585D02*
G01*
X112869777Y-51271389D01*
X112879721Y-51340547D01*
X112865389Y-51380276D01*
X112866469Y-51380826D01*
X112757033Y-51595603D01*
X112684046Y-51820231D01*
X112647100Y-52053502D01*
X112647100Y-52289697D01*
X112684046Y-52522968D01*
X112757033Y-52747596D01*
X112838373Y-52907233D01*
X112864257Y-52958033D01*
X113003083Y-53149110D01*
X113170090Y-53316117D01*
X113361167Y-53454943D01*
X113434645Y-53492382D01*
X113571603Y-53562166D01*
X113571605Y-53562166D01*
X113571608Y-53562168D01*
X113668632Y-53593693D01*
X113796231Y-53635153D01*
X114029503Y-53672100D01*
X114029508Y-53672100D01*
X114265697Y-53672100D01*
X114498968Y-53635153D01*
X114529646Y-53625185D01*
X114723592Y-53562168D01*
X114787604Y-53529551D01*
X114856273Y-53516655D01*
X114921014Y-53542931D01*
X114961271Y-53600037D01*
X114967900Y-53640036D01*
X114967900Y-76255563D01*
X114948215Y-76322602D01*
X114895411Y-76368357D01*
X114826253Y-76378301D01*
X114787605Y-76366048D01*
X114723596Y-76333433D01*
X114498968Y-76260446D01*
X114265697Y-76223500D01*
X114265692Y-76223500D01*
X114029508Y-76223500D01*
X114029503Y-76223500D01*
X113796231Y-76260446D01*
X113571603Y-76333433D01*
X113361166Y-76440657D01*
X113327301Y-76465262D01*
X113170090Y-76579483D01*
X113170088Y-76579485D01*
X113170087Y-76579485D01*
X113003085Y-76746487D01*
X113003085Y-76746488D01*
X113003083Y-76746490D01*
X112943462Y-76828550D01*
X112864257Y-76937566D01*
X112757033Y-77148003D01*
X112684046Y-77372631D01*
X112647100Y-77605902D01*
X112647100Y-77842097D01*
X112684046Y-78075368D01*
X112757033Y-78299996D01*
X112864257Y-78510433D01*
X112967268Y-78652216D01*
X112990748Y-78718020D01*
X112974923Y-78786074D01*
X112924817Y-78834769D01*
X112866950Y-78849100D01*
X98223163Y-78849100D01*
X98156124Y-78829415D01*
X98125363Y-78793915D01*
X97325234Y-77993787D01*
X97367292Y-77982518D01*
X97492708Y-77910110D01*
X97595110Y-77807708D01*
X97667518Y-77682292D01*
X97678787Y-77640235D01*
X98449250Y-78410698D01*
X98449250Y-78410697D01*
X98523442Y-78308581D01*
X98523446Y-78308575D01*
X98637780Y-78084184D01*
X98715602Y-77844669D01*
X98755000Y-77595928D01*
X98755000Y-77344071D01*
X98715602Y-77095330D01*
X98637780Y-76855815D01*
X98523442Y-76631416D01*
X98449250Y-76529301D01*
X98449250Y-76529300D01*
X97678787Y-77299764D01*
X97667518Y-77257708D01*
X97595110Y-77132292D01*
X97492708Y-77029890D01*
X97367292Y-76957482D01*
X97325233Y-76946212D01*
X98071913Y-76199534D01*
X98095698Y-76175748D01*
X97993583Y-76101557D01*
X97769184Y-75987219D01*
X97529669Y-75909397D01*
X97280928Y-75870000D01*
X97029072Y-75870000D01*
X96780330Y-75909397D01*
X96540815Y-75987219D01*
X96316413Y-76101559D01*
X96214301Y-76175747D01*
X96214300Y-76175748D01*
X96984765Y-76946212D01*
X96942708Y-76957482D01*
X96817292Y-77029890D01*
X96714890Y-77132292D01*
X96642482Y-77257708D01*
X96631212Y-77299765D01*
X95860748Y-76529300D01*
X95860747Y-76529301D01*
X95786559Y-76631413D01*
X95672219Y-76855815D01*
X95594397Y-77095330D01*
X95555000Y-77344071D01*
X95555000Y-77595928D01*
X95594397Y-77844669D01*
X95672219Y-78084184D01*
X95786557Y-78308583D01*
X95860748Y-78410697D01*
X95860748Y-78410698D01*
X96631212Y-77640234D01*
X96642482Y-77682292D01*
X96714890Y-77807708D01*
X96817292Y-77910110D01*
X96942708Y-77982518D01*
X96984765Y-77993787D01*
X96196430Y-78782120D01*
X96196088Y-78783751D01*
X96147036Y-78833507D01*
X96086836Y-78849100D01*
X93778163Y-78849100D01*
X93711124Y-78829415D01*
X93680363Y-78793915D01*
X92880234Y-77993787D01*
X92922292Y-77982518D01*
X93047708Y-77910110D01*
X93150110Y-77807708D01*
X93222518Y-77682292D01*
X93233787Y-77640235D01*
X94004250Y-78410698D01*
X94004250Y-78410697D01*
X94078442Y-78308581D01*
X94078446Y-78308575D01*
X94192780Y-78084184D01*
X94270602Y-77844669D01*
X94310000Y-77595928D01*
X94310000Y-77344071D01*
X94270602Y-77095330D01*
X94192780Y-76855815D01*
X94078442Y-76631416D01*
X94004250Y-76529301D01*
X94004250Y-76529300D01*
X93233787Y-77299764D01*
X93222518Y-77257708D01*
X93150110Y-77132292D01*
X93047708Y-77029890D01*
X92922292Y-76957482D01*
X92880232Y-76946212D01*
X93650698Y-76175748D01*
X93548583Y-76101557D01*
X93324184Y-75987219D01*
X93084669Y-75909397D01*
X92835928Y-75870000D01*
X92584072Y-75870000D01*
X92335330Y-75909397D01*
X92095815Y-75987219D01*
X91871413Y-76101559D01*
X91769301Y-76175747D01*
X91769300Y-76175748D01*
X92539765Y-76946212D01*
X92497708Y-76957482D01*
X92372292Y-77029890D01*
X92269890Y-77132292D01*
X92197482Y-77257708D01*
X92186212Y-77299765D01*
X91415748Y-76529300D01*
X91415747Y-76529301D01*
X91341559Y-76631413D01*
X91227219Y-76855815D01*
X91149397Y-77095330D01*
X91110000Y-77344071D01*
X91110000Y-77595928D01*
X91149397Y-77844669D01*
X91227219Y-78084184D01*
X91341557Y-78308583D01*
X91415748Y-78410697D01*
X91415748Y-78410698D01*
X92186212Y-77640234D01*
X92197482Y-77682292D01*
X92269890Y-77807708D01*
X92372292Y-77910110D01*
X92497708Y-77982518D01*
X92539765Y-77993787D01*
X91751430Y-78782120D01*
X91751088Y-78783751D01*
X91702036Y-78833507D01*
X91641836Y-78849100D01*
X78760153Y-78849100D01*
X78693114Y-78829415D01*
X78647359Y-78776611D01*
X78637415Y-78707453D01*
X78649668Y-78668805D01*
X78708166Y-78553996D01*
X78708166Y-78553995D01*
X78708168Y-78553992D01*
X78781153Y-78329368D01*
X78788643Y-78282076D01*
X78818100Y-78096097D01*
X78818100Y-77859902D01*
X78781153Y-77626631D01*
X78730260Y-77470001D01*
X78708168Y-77402008D01*
X78708165Y-77402004D01*
X78708165Y-77402001D01*
X78704853Y-77395501D01*
X78704852Y-77395500D01*
X78637096Y-77262522D01*
X78600943Y-77191567D01*
X78462117Y-77000490D01*
X78295110Y-76833483D01*
X78104033Y-76694657D01*
X78087100Y-76686029D01*
X77893596Y-76587433D01*
X77668968Y-76514446D01*
X77435697Y-76477500D01*
X77435692Y-76477500D01*
X77199508Y-76477500D01*
X77199503Y-76477500D01*
X76966231Y-76514446D01*
X76741600Y-76587434D01*
X76728394Y-76594164D01*
X76659724Y-76607060D01*
X76594984Y-76580783D01*
X76554728Y-76523676D01*
X76548100Y-76483679D01*
X76548100Y-72480013D01*
X82655000Y-72480013D01*
X82655000Y-73330000D01*
X83854999Y-73330000D01*
X83829979Y-73390402D01*
X83805000Y-73515981D01*
X83805000Y-73644019D01*
X83829979Y-73769598D01*
X83854999Y-73830000D01*
X82655001Y-73830000D01*
X82655001Y-74679986D01*
X82665494Y-74782697D01*
X82720641Y-74949119D01*
X82720643Y-74949124D01*
X82812684Y-75098345D01*
X82936654Y-75222315D01*
X83085875Y-75314356D01*
X83085880Y-75314358D01*
X83252302Y-75369505D01*
X83252309Y-75369506D01*
X83355019Y-75379999D01*
X84204999Y-75379999D01*
X84205000Y-75379998D01*
X84205000Y-74180001D01*
X84265402Y-74205021D01*
X84390981Y-74230000D01*
X84519019Y-74230000D01*
X84644598Y-74205021D01*
X84705000Y-74180001D01*
X84705000Y-75379999D01*
X85554972Y-75379999D01*
X85554986Y-75379998D01*
X85657697Y-75369505D01*
X85824119Y-75314358D01*
X85824124Y-75314356D01*
X85973345Y-75222315D01*
X86042978Y-75152682D01*
X105380000Y-75152682D01*
X105380000Y-75357317D01*
X105412009Y-75559417D01*
X105475244Y-75754031D01*
X105568141Y-75936350D01*
X105568147Y-75936359D01*
X105600523Y-75980921D01*
X105600524Y-75980922D01*
X106280000Y-75301446D01*
X106280000Y-75307661D01*
X106307259Y-75409394D01*
X106359920Y-75500606D01*
X106434394Y-75575080D01*
X106525606Y-75627741D01*
X106627339Y-75655000D01*
X106633553Y-75655000D01*
X105954076Y-76334474D01*
X105998650Y-76366859D01*
X106180968Y-76459755D01*
X106375582Y-76522990D01*
X106577683Y-76555000D01*
X106782317Y-76555000D01*
X106984417Y-76522990D01*
X107179031Y-76459755D01*
X107361349Y-76366859D01*
X107405921Y-76334474D01*
X106726447Y-75655000D01*
X106732661Y-75655000D01*
X106834394Y-75627741D01*
X106925606Y-75575080D01*
X107000080Y-75500606D01*
X107052741Y-75409394D01*
X107080000Y-75307661D01*
X107080000Y-75301448D01*
X107759474Y-75980922D01*
X107759474Y-75980921D01*
X107791859Y-75936349D01*
X107884755Y-75754031D01*
X107947990Y-75559417D01*
X107980000Y-75357317D01*
X107980000Y-75152682D01*
X107947990Y-74950582D01*
X107884755Y-74755968D01*
X107791859Y-74573650D01*
X107759474Y-74529077D01*
X107759474Y-74529076D01*
X107080000Y-75208551D01*
X107080000Y-75202339D01*
X107052741Y-75100606D01*
X107000080Y-75009394D01*
X106925606Y-74934920D01*
X106834394Y-74882259D01*
X106732661Y-74855000D01*
X106726446Y-74855000D01*
X107405922Y-74175524D01*
X107405921Y-74175523D01*
X107361359Y-74143147D01*
X107361350Y-74143141D01*
X107179031Y-74050244D01*
X106984417Y-73987009D01*
X106782317Y-73955000D01*
X106577683Y-73955000D01*
X106375582Y-73987009D01*
X106180968Y-74050244D01*
X105998644Y-74143143D01*
X105954077Y-74175523D01*
X105954077Y-74175524D01*
X106633554Y-74855000D01*
X106627339Y-74855000D01*
X106525606Y-74882259D01*
X106434394Y-74934920D01*
X106359920Y-75009394D01*
X106307259Y-75100606D01*
X106280000Y-75202339D01*
X106280000Y-75208553D01*
X105600524Y-74529077D01*
X105600523Y-74529077D01*
X105568143Y-74573644D01*
X105475244Y-74755968D01*
X105412009Y-74950582D01*
X105380000Y-75152682D01*
X86042978Y-75152682D01*
X86097315Y-75098345D01*
X86106954Y-75082719D01*
X86189356Y-74949124D01*
X86189358Y-74949119D01*
X86244505Y-74782697D01*
X86244506Y-74782690D01*
X86254999Y-74679986D01*
X86255000Y-74679973D01*
X86255000Y-73830000D01*
X85055001Y-73830000D01*
X85080021Y-73769598D01*
X85105000Y-73644019D01*
X85105000Y-73515981D01*
X85080021Y-73390402D01*
X85055001Y-73330000D01*
X86254999Y-73330000D01*
X86254999Y-72480028D01*
X86254998Y-72480013D01*
X86244505Y-72377302D01*
X86189358Y-72210880D01*
X86189356Y-72210875D01*
X86097315Y-72061654D01*
X85973345Y-71937684D01*
X85824124Y-71845643D01*
X85824119Y-71845641D01*
X85657697Y-71790494D01*
X85657690Y-71790493D01*
X85554986Y-71780000D01*
X84705000Y-71780000D01*
X84705000Y-72979998D01*
X84644598Y-72954979D01*
X84519019Y-72930000D01*
X84390981Y-72930000D01*
X84265402Y-72954979D01*
X84205000Y-72979998D01*
X84205000Y-71780000D01*
X83355028Y-71780000D01*
X83355012Y-71780001D01*
X83252302Y-71790494D01*
X83085880Y-71845641D01*
X83085875Y-71845643D01*
X82936654Y-71937684D01*
X82812684Y-72061654D01*
X82720643Y-72210875D01*
X82720641Y-72210880D01*
X82665494Y-72377302D01*
X82665493Y-72377309D01*
X82655000Y-72480013D01*
X76548100Y-72480013D01*
X76548100Y-68214962D01*
X76567785Y-68147923D01*
X76620589Y-68102168D01*
X76689747Y-68092224D01*
X76753303Y-68121249D01*
X76759781Y-68127281D01*
X77911966Y-69279466D01*
X77946326Y-69302423D01*
X77971040Y-69318936D01*
X78059453Y-69378013D01*
X78141393Y-69411953D01*
X78147480Y-69414474D01*
X78147485Y-69414477D01*
X78183940Y-69429577D01*
X78223334Y-69445895D01*
X78397303Y-69480499D01*
X78397307Y-69480500D01*
X78397308Y-69480500D01*
X78397309Y-69480500D01*
X82824275Y-69480500D01*
X82891314Y-69500185D01*
X82931661Y-69542499D01*
X82954727Y-69582450D01*
X82954730Y-69582454D01*
X82954733Y-69582458D01*
X83098406Y-69769697D01*
X83098412Y-69769704D01*
X83265295Y-69936587D01*
X83265301Y-69936592D01*
X83452550Y-70080273D01*
X83583918Y-70156118D01*
X83656943Y-70198280D01*
X83656948Y-70198282D01*
X83656951Y-70198284D01*
X83875007Y-70288606D01*
X84102986Y-70349693D01*
X84336989Y-70380500D01*
X84336996Y-70380500D01*
X84573004Y-70380500D01*
X84573011Y-70380500D01*
X84807014Y-70349693D01*
X85034993Y-70288606D01*
X85253049Y-70198284D01*
X85457450Y-70080273D01*
X85644699Y-69936592D01*
X85811592Y-69769699D01*
X85955273Y-69582450D01*
X86073284Y-69378049D01*
X86163606Y-69159993D01*
X86224693Y-68932014D01*
X86255500Y-68698011D01*
X86255500Y-68461989D01*
X86224693Y-68227986D01*
X86163606Y-68000007D01*
X86073284Y-67781951D01*
X86073282Y-67781948D01*
X86073280Y-67781943D01*
X86006175Y-67665715D01*
X85955273Y-67577550D01*
X85811592Y-67390301D01*
X85811587Y-67390295D01*
X85644704Y-67223412D01*
X85644697Y-67223406D01*
X85457454Y-67079730D01*
X85457453Y-67079729D01*
X85457450Y-67079727D01*
X85375957Y-67032677D01*
X85253056Y-66961719D01*
X85253045Y-66961714D01*
X85034993Y-66871394D01*
X84807010Y-66810306D01*
X84573020Y-66779501D01*
X84573017Y-66779500D01*
X84573011Y-66779500D01*
X84336989Y-66779500D01*
X84336983Y-66779500D01*
X84336979Y-66779501D01*
X84102989Y-66810306D01*
X83875006Y-66871394D01*
X83656954Y-66961714D01*
X83656943Y-66961719D01*
X83452545Y-67079730D01*
X83265302Y-67223406D01*
X83265295Y-67223412D01*
X83098412Y-67390295D01*
X83098406Y-67390302D01*
X82954733Y-67577541D01*
X82954723Y-67577556D01*
X82931662Y-67617500D01*
X82881095Y-67665715D01*
X82824275Y-67679500D01*
X78910362Y-67679500D01*
X78843323Y-67659815D01*
X78822681Y-67643181D01*
X78152819Y-66973319D01*
X78119334Y-66911996D01*
X78116500Y-66885638D01*
X78116500Y-56050362D01*
X78136185Y-55983323D01*
X78152819Y-55962681D01*
X80473681Y-53641819D01*
X80535004Y-53608334D01*
X80561362Y-53605500D01*
X83320831Y-53605500D01*
X83387870Y-53625185D01*
X83433625Y-53677989D01*
X83443569Y-53747147D01*
X83414544Y-53810703D01*
X83396317Y-53827876D01*
X83265302Y-53928406D01*
X83265295Y-53928412D01*
X83098412Y-54095295D01*
X83098406Y-54095302D01*
X82954730Y-54282545D01*
X82836719Y-54486943D01*
X82836714Y-54486954D01*
X82746394Y-54705006D01*
X82685306Y-54932989D01*
X82654501Y-55166979D01*
X82654500Y-55166995D01*
X82654500Y-55403004D01*
X82654501Y-55403020D01*
X82685306Y-55637010D01*
X82746394Y-55864993D01*
X82836714Y-56083045D01*
X82836719Y-56083056D01*
X82884493Y-56165801D01*
X82954727Y-56287450D01*
X82954729Y-56287453D01*
X82954730Y-56287454D01*
X83098406Y-56474697D01*
X83098412Y-56474704D01*
X83265295Y-56641587D01*
X83265301Y-56641592D01*
X83452550Y-56785273D01*
X83583918Y-56861118D01*
X83656943Y-56903280D01*
X83656948Y-56903282D01*
X83656951Y-56903284D01*
X83875007Y-56993606D01*
X84102986Y-57054693D01*
X84336989Y-57085500D01*
X84336996Y-57085500D01*
X84573004Y-57085500D01*
X84573011Y-57085500D01*
X84807014Y-57054693D01*
X85034993Y-56993606D01*
X85253049Y-56903284D01*
X85457450Y-56785273D01*
X85644699Y-56641592D01*
X85811592Y-56474699D01*
X85955273Y-56287450D01*
X85978338Y-56247499D01*
X86028905Y-56199285D01*
X86085725Y-56185500D01*
X89404638Y-56185500D01*
X89471677Y-56205185D01*
X89492319Y-56221819D01*
X91773181Y-58502680D01*
X91806666Y-58564003D01*
X91809500Y-58590361D01*
X91809500Y-61477742D01*
X91789815Y-61544781D01*
X91758387Y-61578059D01*
X91667344Y-61644206D01*
X91489205Y-61822345D01*
X91489201Y-61822350D01*
X91341133Y-62026150D01*
X91226760Y-62250616D01*
X91148910Y-62490214D01*
X91109500Y-62739038D01*
X91109500Y-62990961D01*
X91148910Y-63239785D01*
X91226760Y-63479383D01*
X91341132Y-63703848D01*
X91489201Y-63907649D01*
X91489205Y-63907654D01*
X91489207Y-63907656D01*
X91667344Y-64085793D01*
X91758386Y-64151939D01*
X91801051Y-64207267D01*
X91809500Y-64252256D01*
X91809500Y-65597837D01*
X91789815Y-65664876D01*
X91737011Y-65710631D01*
X91711465Y-65719088D01*
X91707206Y-65719999D01*
X91540667Y-65775185D01*
X91540662Y-65775187D01*
X91391342Y-65867289D01*
X91267289Y-65991342D01*
X91175187Y-66140662D01*
X91175186Y-66140665D01*
X91120001Y-66307202D01*
X91120001Y-66307203D01*
X91120000Y-66307203D01*
X91109500Y-66409982D01*
X91109500Y-68210017D01*
X91120000Y-68312796D01*
X91175185Y-68479332D01*
X91175189Y-68479341D01*
X91191882Y-68506404D01*
X91210322Y-68573796D01*
X91189399Y-68640460D01*
X91135757Y-68685229D01*
X91086343Y-68695500D01*
X90432500Y-68695500D01*
X90365461Y-68675815D01*
X90319706Y-68623011D01*
X90308500Y-68571500D01*
X90308500Y-62649307D01*
X90308499Y-62649303D01*
X90276855Y-62490215D01*
X90273895Y-62475334D01*
X90206013Y-62311453D01*
X90206012Y-62311452D01*
X90206009Y-62311446D01*
X90107464Y-62163964D01*
X90107461Y-62163960D01*
X87529038Y-59585537D01*
X87505121Y-59569556D01*
X87454150Y-59535499D01*
X87381547Y-59486987D01*
X87299606Y-59453046D01*
X87217666Y-59419105D01*
X87217658Y-59419103D01*
X87043696Y-59384500D01*
X87043692Y-59384500D01*
X87043691Y-59384500D01*
X86379499Y-59384500D01*
X86312460Y-59364815D01*
X86266705Y-59312011D01*
X86255499Y-59260500D01*
X86255499Y-59184998D01*
X86255498Y-59184981D01*
X86244999Y-59082203D01*
X86244998Y-59082200D01*
X86189814Y-58915666D01*
X86097712Y-58766344D01*
X85973656Y-58642288D01*
X85824334Y-58550186D01*
X85657797Y-58495001D01*
X85657795Y-58495000D01*
X85555010Y-58484500D01*
X83354998Y-58484500D01*
X83354981Y-58484501D01*
X83252203Y-58495000D01*
X83252200Y-58495001D01*
X83085668Y-58550185D01*
X83085663Y-58550187D01*
X82936342Y-58642289D01*
X82812289Y-58766342D01*
X82720187Y-58915663D01*
X82720185Y-58915668D01*
X82692349Y-58999670D01*
X82665001Y-59082203D01*
X82665001Y-59082204D01*
X82665000Y-59082204D01*
X82654500Y-59184983D01*
X82654500Y-61385001D01*
X82654501Y-61385018D01*
X82665000Y-61487796D01*
X82665001Y-61487799D01*
X82710466Y-61625000D01*
X82720186Y-61654334D01*
X82812288Y-61803656D01*
X82936344Y-61927712D01*
X83085666Y-62019814D01*
X83252203Y-62074999D01*
X83354991Y-62085500D01*
X85555008Y-62085499D01*
X85657797Y-62074999D01*
X85824334Y-62019814D01*
X85973656Y-61927712D01*
X86097712Y-61803656D01*
X86189814Y-61654334D01*
X86244999Y-61487797D01*
X86255500Y-61385009D01*
X86255500Y-61309500D01*
X86275185Y-61242461D01*
X86327989Y-61196706D01*
X86379500Y-61185500D01*
X86530638Y-61185500D01*
X86597677Y-61205185D01*
X86618319Y-61221819D01*
X88471181Y-63074681D01*
X88504666Y-63136004D01*
X88507500Y-63162362D01*
X88507500Y-69176696D01*
X88542103Y-69350659D01*
X88542104Y-69350663D01*
X88542105Y-69350666D01*
X88553432Y-69378012D01*
X88553433Y-69378014D01*
X88609984Y-69514542D01*
X88609985Y-69514544D01*
X88669063Y-69602960D01*
X88708537Y-69662038D01*
X88708540Y-69662041D01*
X89216536Y-70170035D01*
X89335106Y-70288605D01*
X89341966Y-70295465D01*
X89489446Y-70394009D01*
X89489459Y-70394016D01*
X89571392Y-70427953D01*
X89653334Y-70461894D01*
X89653336Y-70461894D01*
X89653341Y-70461896D01*
X89827304Y-70496499D01*
X89827307Y-70496500D01*
X89827309Y-70496500D01*
X94957693Y-70496500D01*
X94957694Y-70496499D01*
X95131666Y-70461895D01*
X95213606Y-70427953D01*
X95295547Y-70394013D01*
X95383959Y-70334936D01*
X95443036Y-70295464D01*
X96791681Y-68946819D01*
X96853004Y-68913334D01*
X96879362Y-68910500D01*
X98055005Y-68910500D01*
X98055010Y-68910500D01*
X98157798Y-68899999D01*
X98324335Y-68844814D01*
X98473656Y-68752712D01*
X98597712Y-68628656D01*
X98689814Y-68479335D01*
X98744999Y-68312798D01*
X98755500Y-68210010D01*
X98755500Y-66409990D01*
X98744999Y-66307202D01*
X98689814Y-66140665D01*
X98597712Y-65991344D01*
X98473656Y-65867288D01*
X98324335Y-65775186D01*
X98324332Y-65775185D01*
X98157793Y-65719999D01*
X98153535Y-65719088D01*
X98092104Y-65685802D01*
X98058420Y-65624588D01*
X98055500Y-65597837D01*
X98055500Y-64549304D01*
X98075185Y-64482265D01*
X98127989Y-64436510D01*
X98160106Y-64426831D01*
X98164785Y-64426090D01*
X98404379Y-64348241D01*
X98628845Y-64233870D01*
X98832656Y-64085793D01*
X99010793Y-63907656D01*
X99158870Y-63703845D01*
X99273241Y-63479379D01*
X99351090Y-63239785D01*
X99390500Y-62990962D01*
X99390500Y-62739038D01*
X99351090Y-62490215D01*
X99273241Y-62250621D01*
X99273239Y-62250618D01*
X99273239Y-62250616D01*
X99183757Y-62074999D01*
X99158870Y-62026155D01*
X99158868Y-62026152D01*
X99158867Y-62026150D01*
X99010798Y-61822350D01*
X99010794Y-61822345D01*
X98832654Y-61644205D01*
X98832649Y-61644201D01*
X98628848Y-61496132D01*
X98628847Y-61496131D01*
X98628845Y-61496130D01*
X98558747Y-61460413D01*
X98404383Y-61381760D01*
X98164785Y-61303910D01*
X98125179Y-61297637D01*
X97915962Y-61264500D01*
X97664038Y-61264500D01*
X97539626Y-61284205D01*
X97415214Y-61303910D01*
X97175616Y-61381760D01*
X96951151Y-61496132D01*
X96747350Y-61644201D01*
X96747345Y-61644205D01*
X96569205Y-61822345D01*
X96569201Y-61822350D01*
X96421133Y-62026150D01*
X96306760Y-62250616D01*
X96228910Y-62490214D01*
X96189500Y-62739038D01*
X96189500Y-62990961D01*
X96228909Y-63239781D01*
X96228909Y-63239782D01*
X96248431Y-63299864D01*
X96254500Y-63338182D01*
X96254500Y-65597837D01*
X96234815Y-65664876D01*
X96182011Y-65710631D01*
X96156465Y-65719088D01*
X96152206Y-65719999D01*
X95985667Y-65775185D01*
X95985662Y-65775187D01*
X95836342Y-65867289D01*
X95712289Y-65991342D01*
X95620187Y-66140662D01*
X95620186Y-66140665D01*
X95565001Y-66307202D01*
X95565001Y-66307203D01*
X95565000Y-66307203D01*
X95554500Y-66409982D01*
X95554500Y-67585638D01*
X95534815Y-67652677D01*
X95518181Y-67673319D01*
X94532319Y-68659181D01*
X94470996Y-68692666D01*
X94444638Y-68695500D01*
X94333657Y-68695500D01*
X94266618Y-68675815D01*
X94220863Y-68623011D01*
X94210919Y-68553853D01*
X94228118Y-68506404D01*
X94244810Y-68479341D01*
X94244814Y-68479335D01*
X94299999Y-68312798D01*
X94310500Y-68210010D01*
X94310500Y-66409990D01*
X94299999Y-66307202D01*
X94244814Y-66140665D01*
X94152712Y-65991344D01*
X94028656Y-65867288D01*
X93879335Y-65775186D01*
X93879332Y-65775185D01*
X93712793Y-65719999D01*
X93708535Y-65719088D01*
X93647104Y-65685802D01*
X93613420Y-65624588D01*
X93610500Y-65597837D01*
X93610500Y-64252256D01*
X93630185Y-64185217D01*
X93661612Y-64151939D01*
X93752656Y-64085793D01*
X93930793Y-63907656D01*
X94078870Y-63703845D01*
X94193241Y-63479379D01*
X94271090Y-63239785D01*
X94310500Y-62990962D01*
X94310500Y-62739038D01*
X94271090Y-62490215D01*
X94193241Y-62250621D01*
X94193239Y-62250618D01*
X94193239Y-62250616D01*
X94103757Y-62074999D01*
X94078870Y-62026155D01*
X94078868Y-62026152D01*
X94078867Y-62026150D01*
X93930798Y-61822350D01*
X93930794Y-61822345D01*
X93752655Y-61644206D01*
X93661613Y-61578059D01*
X93618948Y-61522729D01*
X93610500Y-61477742D01*
X93610500Y-58077312D01*
X93610500Y-58077309D01*
X93607527Y-58062365D01*
X93575894Y-57903334D01*
X93567895Y-57884022D01*
X93559775Y-57864419D01*
X93508016Y-57739459D01*
X93508009Y-57739446D01*
X93409465Y-57591966D01*
X93386832Y-57569333D01*
X93284035Y-57466536D01*
X92602768Y-56785269D01*
X90403039Y-54585538D01*
X90403038Y-54585537D01*
X90379121Y-54569556D01*
X90328150Y-54535499D01*
X90255547Y-54486987D01*
X90173606Y-54453046D01*
X90091666Y-54419105D01*
X90091658Y-54419103D01*
X89917696Y-54384500D01*
X89917692Y-54384500D01*
X89917691Y-54384500D01*
X86085725Y-54384500D01*
X86018686Y-54364815D01*
X85978338Y-54322500D01*
X85968523Y-54305500D01*
X85955273Y-54282550D01*
X85811592Y-54095301D01*
X85811587Y-54095295D01*
X85644704Y-53928412D01*
X85644697Y-53928406D01*
X85513683Y-53827876D01*
X85472480Y-53771448D01*
X85468325Y-53701702D01*
X85502537Y-53640782D01*
X85564254Y-53608029D01*
X85589169Y-53605500D01*
X90997837Y-53605500D01*
X91064876Y-53625185D01*
X91110631Y-53677989D01*
X91119088Y-53703535D01*
X91119999Y-53707793D01*
X91141525Y-53772754D01*
X91175186Y-53874335D01*
X91267288Y-54023656D01*
X91391344Y-54147712D01*
X91540665Y-54239814D01*
X91707202Y-54294999D01*
X91809990Y-54305500D01*
X91809995Y-54305500D01*
X93610005Y-54305500D01*
X93610010Y-54305500D01*
X93712798Y-54294999D01*
X93879335Y-54239814D01*
X94028656Y-54147712D01*
X94152712Y-54023656D01*
X94244814Y-53874335D01*
X94299999Y-53707798D01*
X94300000Y-53707793D01*
X94300912Y-53703535D01*
X94334198Y-53642104D01*
X94395412Y-53608420D01*
X94422163Y-53605500D01*
X96077837Y-53605500D01*
X96144876Y-53625185D01*
X96190631Y-53677989D01*
X96199088Y-53703535D01*
X96199999Y-53707793D01*
X96221525Y-53772754D01*
X96255186Y-53874335D01*
X96347288Y-54023656D01*
X96471344Y-54147712D01*
X96620665Y-54239814D01*
X96787202Y-54294999D01*
X96889990Y-54305500D01*
X96889995Y-54305500D01*
X98690005Y-54305500D01*
X98690010Y-54305500D01*
X98792798Y-54294999D01*
X98959335Y-54239814D01*
X99108656Y-54147712D01*
X99232712Y-54023656D01*
X99324814Y-53874335D01*
X99379999Y-53707798D01*
X99380000Y-53707793D01*
X99380912Y-53703535D01*
X99414198Y-53642104D01*
X99475412Y-53608420D01*
X99502163Y-53605500D01*
X101031638Y-53605500D01*
X101098677Y-53625185D01*
X101144432Y-53677989D01*
X101154376Y-53747147D01*
X101125351Y-53810703D01*
X101119319Y-53817181D01*
X99630540Y-55305958D01*
X99630537Y-55305961D01*
X99592203Y-55363334D01*
X99531985Y-55453455D01*
X99498046Y-55535393D01*
X99464106Y-55617329D01*
X99464103Y-55617341D01*
X99437815Y-55749497D01*
X99437816Y-55749498D01*
X99429500Y-55791309D01*
X99429500Y-61810696D01*
X99464103Y-61984659D01*
X99464104Y-61984663D01*
X99464105Y-61984666D01*
X99481291Y-62026155D01*
X99531984Y-62148542D01*
X99531986Y-62148545D01*
X99531987Y-62148547D01*
X99542550Y-62164355D01*
X99563257Y-62195346D01*
X99630535Y-62296036D01*
X99630538Y-62296039D01*
X100663181Y-63328681D01*
X100696666Y-63390004D01*
X100699500Y-63416362D01*
X100699500Y-64414953D01*
X100679815Y-64481992D01*
X100663181Y-64502634D01*
X100608032Y-64557782D01*
X100608028Y-64557786D01*
X100487715Y-64723386D01*
X100394781Y-64905776D01*
X100331522Y-65100465D01*
X100299500Y-65302648D01*
X100299500Y-65507351D01*
X100331522Y-65709534D01*
X100394781Y-65904223D01*
X100487715Y-66086613D01*
X100608028Y-66252213D01*
X100752786Y-66396971D01*
X100907749Y-66509556D01*
X100918390Y-66517287D01*
X101034607Y-66576503D01*
X101100776Y-66610218D01*
X101100778Y-66610218D01*
X101100781Y-66610220D01*
X101205137Y-66644127D01*
X101295465Y-66673477D01*
X101396557Y-66689488D01*
X101497648Y-66705500D01*
X101575638Y-66705500D01*
X101642677Y-66725185D01*
X101663319Y-66741819D01*
X105672585Y-70751085D01*
X105706070Y-70812408D01*
X105701086Y-70882100D01*
X105685222Y-70911651D01*
X105567715Y-71073386D01*
X105474781Y-71255776D01*
X105411522Y-71450465D01*
X105379500Y-71652648D01*
X105379500Y-71857351D01*
X105411522Y-72059534D01*
X105474781Y-72254223D01*
X105567715Y-72436613D01*
X105688028Y-72602213D01*
X105832786Y-72746971D01*
X105987749Y-72859556D01*
X105998390Y-72867287D01*
X106114607Y-72926503D01*
X106180776Y-72960218D01*
X106180778Y-72960218D01*
X106180781Y-72960220D01*
X106285137Y-72994127D01*
X106375465Y-73023477D01*
X106476557Y-73039488D01*
X106577648Y-73055500D01*
X106577649Y-73055500D01*
X106782351Y-73055500D01*
X106782352Y-73055500D01*
X106984534Y-73023477D01*
X107179219Y-72960220D01*
X107361610Y-72867287D01*
X107454590Y-72799732D01*
X107527213Y-72746971D01*
X107527215Y-72746968D01*
X107527219Y-72746966D01*
X107671966Y-72602219D01*
X107671968Y-72602215D01*
X107671971Y-72602213D01*
X107760753Y-72480013D01*
X107792287Y-72436610D01*
X107885220Y-72254219D01*
X107948477Y-72059534D01*
X107980500Y-71857352D01*
X107980500Y-71652648D01*
X107948477Y-71450466D01*
X107885220Y-71255781D01*
X107885218Y-71255778D01*
X107885218Y-71255776D01*
X107851503Y-71189607D01*
X107792287Y-71073390D01*
X107784556Y-71062749D01*
X107671971Y-70907786D01*
X107616819Y-70852634D01*
X107583334Y-70791311D01*
X107580500Y-70764953D01*
X107580500Y-70396307D01*
X107580499Y-70396303D01*
X107580044Y-70394016D01*
X107545895Y-70222334D01*
X107478013Y-70058453D01*
X107478012Y-70058452D01*
X107478009Y-70058446D01*
X107379464Y-69910964D01*
X107379461Y-69910960D01*
X102936819Y-65468318D01*
X102903334Y-65406995D01*
X102900500Y-65380637D01*
X102900500Y-65302648D01*
X102868477Y-65100465D01*
X102805218Y-64905776D01*
X102771503Y-64839607D01*
X102712287Y-64723390D01*
X102704556Y-64712749D01*
X102591971Y-64557786D01*
X102536819Y-64502634D01*
X102503334Y-64441311D01*
X102500500Y-64414953D01*
X102500500Y-62903308D01*
X102500499Y-62903307D01*
X102485260Y-62826692D01*
X102485260Y-62826689D01*
X102465896Y-62729341D01*
X102465895Y-62729334D01*
X102407308Y-62587894D01*
X102398013Y-62565453D01*
X102313154Y-62438453D01*
X102299464Y-62417964D01*
X102299462Y-62417961D01*
X101266819Y-61385318D01*
X101233334Y-61323995D01*
X101230500Y-61297637D01*
X101230500Y-60222682D01*
X102205000Y-60222682D01*
X102205000Y-60427317D01*
X102237009Y-60629417D01*
X102300244Y-60824031D01*
X102393141Y-61006350D01*
X102393147Y-61006359D01*
X102425523Y-61050921D01*
X102425524Y-61050922D01*
X103105000Y-60371446D01*
X103105000Y-60377661D01*
X103132259Y-60479394D01*
X103184920Y-60570606D01*
X103259394Y-60645080D01*
X103350606Y-60697741D01*
X103452339Y-60725000D01*
X103458553Y-60725000D01*
X102779076Y-61404474D01*
X102823650Y-61436859D01*
X103005968Y-61529755D01*
X103200582Y-61592990D01*
X103402683Y-61625000D01*
X103607317Y-61625000D01*
X103809417Y-61592990D01*
X104004031Y-61529755D01*
X104186349Y-61436859D01*
X104230921Y-61404474D01*
X103551447Y-60725000D01*
X103557661Y-60725000D01*
X103659394Y-60697741D01*
X103750606Y-60645080D01*
X103825080Y-60570606D01*
X103877741Y-60479394D01*
X103905000Y-60377661D01*
X103905000Y-60371448D01*
X104584474Y-61050922D01*
X104584474Y-61050921D01*
X104616859Y-61006349D01*
X104709755Y-60824031D01*
X104772990Y-60629417D01*
X104805000Y-60427317D01*
X104805000Y-60222682D01*
X104772990Y-60020582D01*
X104709755Y-59825968D01*
X104616859Y-59643650D01*
X104584474Y-59599077D01*
X104584474Y-59599076D01*
X103905000Y-60278551D01*
X103905000Y-60272339D01*
X103877741Y-60170606D01*
X103825080Y-60079394D01*
X103750606Y-60004920D01*
X103659394Y-59952259D01*
X103557661Y-59925000D01*
X103551446Y-59925000D01*
X104230922Y-59245524D01*
X104230921Y-59245523D01*
X104186359Y-59213147D01*
X104186350Y-59213141D01*
X104004031Y-59120244D01*
X103809417Y-59057009D01*
X103607317Y-59025000D01*
X103402683Y-59025000D01*
X103200582Y-59057009D01*
X103005968Y-59120244D01*
X102823644Y-59213143D01*
X102779077Y-59245523D01*
X102779077Y-59245524D01*
X103458554Y-59925000D01*
X103452339Y-59925000D01*
X103350606Y-59952259D01*
X103259394Y-60004920D01*
X103184920Y-60079394D01*
X103132259Y-60170606D01*
X103105000Y-60272339D01*
X103105000Y-60278553D01*
X102425524Y-59599077D01*
X102425523Y-59599077D01*
X102393143Y-59643644D01*
X102300244Y-59825968D01*
X102237009Y-60020582D01*
X102205000Y-60222682D01*
X101230500Y-60222682D01*
X101230500Y-56304362D01*
X101250185Y-56237323D01*
X101266819Y-56216681D01*
X101281345Y-56202155D01*
X107180000Y-56202155D01*
X107180000Y-56900000D01*
X108204722Y-56900000D01*
X108160667Y-56976306D01*
X108130000Y-57090756D01*
X108130000Y-57209244D01*
X108160667Y-57323694D01*
X108204722Y-57400000D01*
X107180000Y-57400000D01*
X107180000Y-58097844D01*
X107186401Y-58157372D01*
X107186403Y-58157379D01*
X107236645Y-58292086D01*
X107236649Y-58292093D01*
X107322809Y-58407187D01*
X107322812Y-58407190D01*
X107437906Y-58493350D01*
X107437913Y-58493354D01*
X107572620Y-58543596D01*
X107572627Y-58543598D01*
X107632155Y-58549999D01*
X107632172Y-58550000D01*
X108330000Y-58550000D01*
X108330000Y-57525277D01*
X108406306Y-57569333D01*
X108520756Y-57600000D01*
X108639244Y-57600000D01*
X108753694Y-57569333D01*
X108830000Y-57525277D01*
X108830000Y-58550000D01*
X109527828Y-58550000D01*
X109527844Y-58549999D01*
X109587372Y-58543598D01*
X109587379Y-58543596D01*
X109722086Y-58493354D01*
X109722093Y-58493350D01*
X109837187Y-58407190D01*
X109837190Y-58407187D01*
X109923350Y-58292093D01*
X109923354Y-58292086D01*
X109953213Y-58212031D01*
X109995084Y-58156097D01*
X110060548Y-58131680D01*
X110128821Y-58146531D01*
X110147777Y-58159280D01*
X110152640Y-58163247D01*
X110207635Y-58218242D01*
X110321190Y-58300744D01*
X110323882Y-58302940D01*
X110341751Y-58329008D01*
X110361051Y-58354035D01*
X110361859Y-58358340D01*
X110363387Y-58360569D01*
X110363595Y-58367584D01*
X110369500Y-58399024D01*
X110369500Y-58951769D01*
X110349815Y-59018808D01*
X110333181Y-59039450D01*
X108637050Y-60735580D01*
X108637044Y-60735588D01*
X108587812Y-60809268D01*
X108587813Y-60809269D01*
X108554921Y-60858496D01*
X108554914Y-60858508D01*
X108498342Y-60995086D01*
X108498340Y-60995092D01*
X108469500Y-61140079D01*
X108469500Y-64279582D01*
X108449815Y-64346621D01*
X108418385Y-64379900D01*
X108372787Y-64413028D01*
X108372782Y-64413032D01*
X108228028Y-64557786D01*
X108107715Y-64723386D01*
X108014781Y-64905776D01*
X107951522Y-65100465D01*
X107919500Y-65302648D01*
X107919500Y-65507351D01*
X107951522Y-65709534D01*
X108014781Y-65904223D01*
X108107715Y-66086613D01*
X108228028Y-66252213D01*
X108372786Y-66396971D01*
X108527749Y-66509556D01*
X108538390Y-66517287D01*
X108654607Y-66576503D01*
X108720776Y-66610218D01*
X108720778Y-66610218D01*
X108720781Y-66610220D01*
X108825137Y-66644127D01*
X108915465Y-66673477D01*
X109016557Y-66689488D01*
X109117648Y-66705500D01*
X109117649Y-66705500D01*
X109322351Y-66705500D01*
X109322352Y-66705500D01*
X109524534Y-66673477D01*
X109719219Y-66610220D01*
X109901610Y-66517287D01*
X109994590Y-66449732D01*
X110067213Y-66396971D01*
X110067215Y-66396968D01*
X110067219Y-66396966D01*
X110211966Y-66252219D01*
X110211968Y-66252215D01*
X110211971Y-66252213D01*
X110264732Y-66179590D01*
X110332287Y-66086610D01*
X110425220Y-65904219D01*
X110488477Y-65709534D01*
X110520500Y-65507352D01*
X110520500Y-65302648D01*
X110488477Y-65100466D01*
X110425220Y-64905781D01*
X110425218Y-64905778D01*
X110425218Y-64905776D01*
X110391503Y-64839607D01*
X110332287Y-64723390D01*
X110324556Y-64712749D01*
X110211971Y-64557786D01*
X110067217Y-64413032D01*
X110067212Y-64413028D01*
X110021615Y-64379900D01*
X109978949Y-64324571D01*
X109970500Y-64279582D01*
X109970500Y-61576230D01*
X109990185Y-61509191D01*
X110006819Y-61488549D01*
X111702948Y-59792420D01*
X111702952Y-59792416D01*
X111776722Y-59682009D01*
X111776724Y-59682007D01*
X111785081Y-59669499D01*
X111785084Y-59669495D01*
X111841658Y-59532913D01*
X111858005Y-59450732D01*
X111870500Y-59387920D01*
X111870500Y-58399024D01*
X111890185Y-58331985D01*
X111921616Y-58298705D01*
X111930727Y-58292086D01*
X112032365Y-58218242D01*
X112188242Y-58062365D01*
X112188242Y-58062364D01*
X112188247Y-58062360D01*
X112188247Y-58062358D01*
X112317815Y-57884022D01*
X112417895Y-57687606D01*
X112486015Y-57477951D01*
X112520500Y-57260222D01*
X112520500Y-57039778D01*
X112486015Y-56822049D01*
X112451955Y-56717221D01*
X112417896Y-56612396D01*
X112417895Y-56612393D01*
X112383237Y-56544375D01*
X112317815Y-56415978D01*
X112236722Y-56304362D01*
X112188247Y-56237641D01*
X112188243Y-56237636D01*
X112032363Y-56081756D01*
X112032358Y-56081752D01*
X111854025Y-55952187D01*
X111854024Y-55952186D01*
X111854022Y-55952185D01*
X111791096Y-55920122D01*
X111657606Y-55852104D01*
X111657603Y-55852103D01*
X111447952Y-55783985D01*
X111339086Y-55766742D01*
X111230222Y-55749500D01*
X111009778Y-55749500D01*
X110937201Y-55760995D01*
X110792047Y-55783985D01*
X110582396Y-55852103D01*
X110582393Y-55852104D01*
X110385974Y-55952187D01*
X110207641Y-56081752D01*
X110207636Y-56081756D01*
X110157075Y-56132317D01*
X110095752Y-56165801D01*
X110026060Y-56160816D01*
X109970127Y-56118945D01*
X109953213Y-56087968D01*
X109923354Y-56007913D01*
X109923350Y-56007906D01*
X109837190Y-55892812D01*
X109837187Y-55892809D01*
X109722093Y-55806649D01*
X109722086Y-55806645D01*
X109587379Y-55756403D01*
X109587372Y-55756401D01*
X109527844Y-55750000D01*
X108830000Y-55750000D01*
X108830000Y-56774722D01*
X108753694Y-56730667D01*
X108639244Y-56700000D01*
X108520756Y-56700000D01*
X108406306Y-56730667D01*
X108330000Y-56774722D01*
X108330000Y-55750000D01*
X107632155Y-55750000D01*
X107572627Y-55756401D01*
X107572620Y-55756403D01*
X107437913Y-55806645D01*
X107437906Y-55806649D01*
X107322812Y-55892809D01*
X107322809Y-55892812D01*
X107236649Y-56007906D01*
X107236645Y-56007913D01*
X107186403Y-56142620D01*
X107186401Y-56142627D01*
X107180000Y-56202155D01*
X101281345Y-56202155D01*
X103441681Y-54041819D01*
X103503004Y-54008334D01*
X103529362Y-54005500D01*
X103607351Y-54005500D01*
X103607352Y-54005500D01*
X103809534Y-53973477D01*
X104004219Y-53910220D01*
X104186610Y-53817287D01*
X104283150Y-53747147D01*
X104352213Y-53696971D01*
X104352215Y-53696968D01*
X104352219Y-53696966D01*
X104496966Y-53552219D01*
X104496968Y-53552215D01*
X104496971Y-53552213D01*
X104549732Y-53479590D01*
X104617287Y-53386610D01*
X104710220Y-53204219D01*
X104773477Y-53009534D01*
X104805500Y-52807352D01*
X104805500Y-52602648D01*
X104773477Y-52400466D01*
X104761222Y-52362750D01*
X104737484Y-52289692D01*
X104710220Y-52205781D01*
X104710218Y-52205778D01*
X104710218Y-52205776D01*
X104659584Y-52106402D01*
X104617287Y-52023390D01*
X104586090Y-51980450D01*
X104496971Y-51857786D01*
X104352213Y-51713028D01*
X104186613Y-51592715D01*
X104186612Y-51592714D01*
X104186610Y-51592713D01*
X104129653Y-51563691D01*
X104004223Y-51499781D01*
X103822793Y-51440831D01*
X103765118Y-51401393D01*
X103737920Y-51337034D01*
X103749835Y-51268188D01*
X103797079Y-51216712D01*
X103861112Y-51198900D01*
X112756983Y-51198900D01*
X112824022Y-51218585D01*
G37*
%TD.AperFunction*%
%TD*%
M02*
