%TF.GenerationSoftware,KiCad,Pcbnew,10.0.0*%
%TF.CreationDate,2026-07-08T11:15:42+02:00*%
%TF.ProjectId,AC to DC Converter,41432074-6f20-4444-9320-436f6e766572,rev?*%
%TF.SameCoordinates,Original*%
%TF.FileFunction,Legend,Top*%
%TF.FilePolarity,Positive*%
%FSLAX46Y46*%
G04 Gerber Fmt 4.6, Leading zero omitted, Abs format (unit mm)*
G04 Created by KiCad (PCBNEW 10.0.0) date 2026-07-08 11:15:42*
%MOMM*%
%LPD*%
G01*
G04 APERTURE LIST*
%ADD10C,0.150000*%
%ADD11C,0.120000*%
G04 APERTURE END LIST*
D10*
X83639166Y-76924819D02*
X83639166Y-77639104D01*
X83639166Y-77639104D02*
X83591547Y-77781961D01*
X83591547Y-77781961D02*
X83496309Y-77877200D01*
X83496309Y-77877200D02*
X83353452Y-77924819D01*
X83353452Y-77924819D02*
X83258214Y-77924819D01*
X84067738Y-77020057D02*
X84115357Y-76972438D01*
X84115357Y-76972438D02*
X84210595Y-76924819D01*
X84210595Y-76924819D02*
X84448690Y-76924819D01*
X84448690Y-76924819D02*
X84543928Y-76972438D01*
X84543928Y-76972438D02*
X84591547Y-77020057D01*
X84591547Y-77020057D02*
X84639166Y-77115295D01*
X84639166Y-77115295D02*
X84639166Y-77210533D01*
X84639166Y-77210533D02*
X84591547Y-77353390D01*
X84591547Y-77353390D02*
X84020119Y-77924819D01*
X84020119Y-77924819D02*
X84639166Y-77924819D01*
X100079819Y-73128094D02*
X99079819Y-73128094D01*
X99079819Y-73128094D02*
X99079819Y-72889999D01*
X99079819Y-72889999D02*
X99127438Y-72747142D01*
X99127438Y-72747142D02*
X99222676Y-72651904D01*
X99222676Y-72651904D02*
X99317914Y-72604285D01*
X99317914Y-72604285D02*
X99508390Y-72556666D01*
X99508390Y-72556666D02*
X99651247Y-72556666D01*
X99651247Y-72556666D02*
X99841723Y-72604285D01*
X99841723Y-72604285D02*
X99936961Y-72651904D01*
X99936961Y-72651904D02*
X100032200Y-72747142D01*
X100032200Y-72747142D02*
X100079819Y-72889999D01*
X100079819Y-72889999D02*
X100079819Y-73128094D01*
X99413152Y-71699523D02*
X100079819Y-71699523D01*
X99032200Y-71937618D02*
X99746485Y-72175713D01*
X99746485Y-72175713D02*
X99746485Y-71556666D01*
X99709819Y-67571904D02*
X98709819Y-67571904D01*
X99709819Y-67000476D02*
X99138390Y-67429047D01*
X98709819Y-67000476D02*
X99281247Y-67571904D01*
X100714819Y-58523094D02*
X99714819Y-58523094D01*
X99714819Y-58523094D02*
X99714819Y-58284999D01*
X99714819Y-58284999D02*
X99762438Y-58142142D01*
X99762438Y-58142142D02*
X99857676Y-58046904D01*
X99857676Y-58046904D02*
X99952914Y-57999285D01*
X99952914Y-57999285D02*
X100143390Y-57951666D01*
X100143390Y-57951666D02*
X100286247Y-57951666D01*
X100286247Y-57951666D02*
X100476723Y-57999285D01*
X100476723Y-57999285D02*
X100571961Y-58046904D01*
X100571961Y-58046904D02*
X100667200Y-58142142D01*
X100667200Y-58142142D02*
X100714819Y-58284999D01*
X100714819Y-58284999D02*
X100714819Y-58523094D01*
X99714819Y-57618332D02*
X99714819Y-56999285D01*
X99714819Y-56999285D02*
X100095771Y-57332618D01*
X100095771Y-57332618D02*
X100095771Y-57189761D01*
X100095771Y-57189761D02*
X100143390Y-57094523D01*
X100143390Y-57094523D02*
X100191009Y-57046904D01*
X100191009Y-57046904D02*
X100286247Y-56999285D01*
X100286247Y-56999285D02*
X100524342Y-56999285D01*
X100524342Y-56999285D02*
X100619580Y-57046904D01*
X100619580Y-57046904D02*
X100667200Y-57094523D01*
X100667200Y-57094523D02*
X100714819Y-57189761D01*
X100714819Y-57189761D02*
X100714819Y-57475475D01*
X100714819Y-57475475D02*
X100667200Y-57570713D01*
X100667200Y-57570713D02*
X100619580Y-57618332D01*
X100344819Y-52966904D02*
X99344819Y-52966904D01*
X100344819Y-52395476D02*
X99773390Y-52824047D01*
X99344819Y-52395476D02*
X99916247Y-52966904D01*
X83739166Y-63229819D02*
X83739166Y-63944104D01*
X83739166Y-63944104D02*
X83691547Y-64086961D01*
X83691547Y-64086961D02*
X83596309Y-64182200D01*
X83596309Y-64182200D02*
X83453452Y-64229819D01*
X83453452Y-64229819D02*
X83358214Y-64229819D01*
X84739166Y-64229819D02*
X84167738Y-64229819D01*
X84453452Y-64229819D02*
X84453452Y-63229819D01*
X84453452Y-63229819D02*
X84358214Y-63372676D01*
X84358214Y-63372676D02*
X84262976Y-63467914D01*
X84262976Y-63467914D02*
X84167738Y-63515533D01*
X114354819Y-57538094D02*
X113354819Y-57538094D01*
X113354819Y-57538094D02*
X113354819Y-57299999D01*
X113354819Y-57299999D02*
X113402438Y-57157142D01*
X113402438Y-57157142D02*
X113497676Y-57061904D01*
X113497676Y-57061904D02*
X113592914Y-57014285D01*
X113592914Y-57014285D02*
X113783390Y-56966666D01*
X113783390Y-56966666D02*
X113926247Y-56966666D01*
X113926247Y-56966666D02*
X114116723Y-57014285D01*
X114116723Y-57014285D02*
X114211961Y-57061904D01*
X114211961Y-57061904D02*
X114307200Y-57157142D01*
X114307200Y-57157142D02*
X114354819Y-57299999D01*
X114354819Y-57299999D02*
X114354819Y-57538094D01*
X113354819Y-56061904D02*
X113354819Y-56538094D01*
X113354819Y-56538094D02*
X113831009Y-56585713D01*
X113831009Y-56585713D02*
X113783390Y-56538094D01*
X113783390Y-56538094D02*
X113735771Y-56442856D01*
X113735771Y-56442856D02*
X113735771Y-56204761D01*
X113735771Y-56204761D02*
X113783390Y-56109523D01*
X113783390Y-56109523D02*
X113831009Y-56061904D01*
X113831009Y-56061904D02*
X113926247Y-56014285D01*
X113926247Y-56014285D02*
X114164342Y-56014285D01*
X114164342Y-56014285D02*
X114259580Y-56061904D01*
X114259580Y-56061904D02*
X114307200Y-56109523D01*
X114307200Y-56109523D02*
X114354819Y-56204761D01*
X114354819Y-56204761D02*
X114354819Y-56442856D01*
X114354819Y-56442856D02*
X114307200Y-56538094D01*
X114307200Y-56538094D02*
X114259580Y-56585713D01*
X91354819Y-62238094D02*
X90354819Y-62238094D01*
X90354819Y-62238094D02*
X90354819Y-61999999D01*
X90354819Y-61999999D02*
X90402438Y-61857142D01*
X90402438Y-61857142D02*
X90497676Y-61761904D01*
X90497676Y-61761904D02*
X90592914Y-61714285D01*
X90592914Y-61714285D02*
X90783390Y-61666666D01*
X90783390Y-61666666D02*
X90926247Y-61666666D01*
X90926247Y-61666666D02*
X91116723Y-61714285D01*
X91116723Y-61714285D02*
X91211961Y-61761904D01*
X91211961Y-61761904D02*
X91307200Y-61857142D01*
X91307200Y-61857142D02*
X91354819Y-61999999D01*
X91354819Y-61999999D02*
X91354819Y-62238094D01*
X91354819Y-60714285D02*
X91354819Y-61285713D01*
X91354819Y-60999999D02*
X90354819Y-60999999D01*
X90354819Y-60999999D02*
X90497676Y-61095237D01*
X90497676Y-61095237D02*
X90592914Y-61190475D01*
X90592914Y-61190475D02*
X90640533Y-61285713D01*
X95264819Y-52966904D02*
X94264819Y-52966904D01*
X95264819Y-52395476D02*
X94693390Y-52824047D01*
X94264819Y-52395476D02*
X94836247Y-52966904D01*
X105833333Y-63254819D02*
X105500000Y-62778628D01*
X105261905Y-63254819D02*
X105261905Y-62254819D01*
X105261905Y-62254819D02*
X105642857Y-62254819D01*
X105642857Y-62254819D02*
X105738095Y-62302438D01*
X105738095Y-62302438D02*
X105785714Y-62350057D01*
X105785714Y-62350057D02*
X105833333Y-62445295D01*
X105833333Y-62445295D02*
X105833333Y-62588152D01*
X105833333Y-62588152D02*
X105785714Y-62683390D01*
X105785714Y-62683390D02*
X105738095Y-62731009D01*
X105738095Y-62731009D02*
X105642857Y-62778628D01*
X105642857Y-62778628D02*
X105261905Y-62778628D01*
X106214286Y-62350057D02*
X106261905Y-62302438D01*
X106261905Y-62302438D02*
X106357143Y-62254819D01*
X106357143Y-62254819D02*
X106595238Y-62254819D01*
X106595238Y-62254819D02*
X106690476Y-62302438D01*
X106690476Y-62302438D02*
X106738095Y-62350057D01*
X106738095Y-62350057D02*
X106785714Y-62445295D01*
X106785714Y-62445295D02*
X106785714Y-62540533D01*
X106785714Y-62540533D02*
X106738095Y-62683390D01*
X106738095Y-62683390D02*
X106166667Y-63254819D01*
X106166667Y-63254819D02*
X106785714Y-63254819D01*
X112359580Y-73866666D02*
X112407200Y-73914285D01*
X112407200Y-73914285D02*
X112454819Y-74057142D01*
X112454819Y-74057142D02*
X112454819Y-74152380D01*
X112454819Y-74152380D02*
X112407200Y-74295237D01*
X112407200Y-74295237D02*
X112311961Y-74390475D01*
X112311961Y-74390475D02*
X112216723Y-74438094D01*
X112216723Y-74438094D02*
X112026247Y-74485713D01*
X112026247Y-74485713D02*
X111883390Y-74485713D01*
X111883390Y-74485713D02*
X111692914Y-74438094D01*
X111692914Y-74438094D02*
X111597676Y-74390475D01*
X111597676Y-74390475D02*
X111502438Y-74295237D01*
X111502438Y-74295237D02*
X111454819Y-74152380D01*
X111454819Y-74152380D02*
X111454819Y-74057142D01*
X111454819Y-74057142D02*
X111502438Y-73914285D01*
X111502438Y-73914285D02*
X111550057Y-73866666D01*
X112454819Y-72914285D02*
X112454819Y-73485713D01*
X112454819Y-73199999D02*
X111454819Y-73199999D01*
X111454819Y-73199999D02*
X111597676Y-73295237D01*
X111597676Y-73295237D02*
X111692914Y-73390475D01*
X111692914Y-73390475D02*
X111740533Y-73485713D01*
X106354819Y-56866666D02*
X105878628Y-57199999D01*
X106354819Y-57438094D02*
X105354819Y-57438094D01*
X105354819Y-57438094D02*
X105354819Y-57057142D01*
X105354819Y-57057142D02*
X105402438Y-56961904D01*
X105402438Y-56961904D02*
X105450057Y-56914285D01*
X105450057Y-56914285D02*
X105545295Y-56866666D01*
X105545295Y-56866666D02*
X105688152Y-56866666D01*
X105688152Y-56866666D02*
X105783390Y-56914285D01*
X105783390Y-56914285D02*
X105831009Y-56961904D01*
X105831009Y-56961904D02*
X105878628Y-57057142D01*
X105878628Y-57057142D02*
X105878628Y-57438094D01*
X106354819Y-55914285D02*
X106354819Y-56485713D01*
X106354819Y-56199999D02*
X105354819Y-56199999D01*
X105354819Y-56199999D02*
X105497676Y-56295237D01*
X105497676Y-56295237D02*
X105592914Y-56390475D01*
X105592914Y-56390475D02*
X105640533Y-56485713D01*
X91454819Y-77338094D02*
X90454819Y-77338094D01*
X90454819Y-77338094D02*
X90454819Y-77099999D01*
X90454819Y-77099999D02*
X90502438Y-76957142D01*
X90502438Y-76957142D02*
X90597676Y-76861904D01*
X90597676Y-76861904D02*
X90692914Y-76814285D01*
X90692914Y-76814285D02*
X90883390Y-76766666D01*
X90883390Y-76766666D02*
X91026247Y-76766666D01*
X91026247Y-76766666D02*
X91216723Y-76814285D01*
X91216723Y-76814285D02*
X91311961Y-76861904D01*
X91311961Y-76861904D02*
X91407200Y-76957142D01*
X91407200Y-76957142D02*
X91454819Y-77099999D01*
X91454819Y-77099999D02*
X91454819Y-77338094D01*
X90550057Y-76385713D02*
X90502438Y-76338094D01*
X90502438Y-76338094D02*
X90454819Y-76242856D01*
X90454819Y-76242856D02*
X90454819Y-76004761D01*
X90454819Y-76004761D02*
X90502438Y-75909523D01*
X90502438Y-75909523D02*
X90550057Y-75861904D01*
X90550057Y-75861904D02*
X90645295Y-75814285D01*
X90645295Y-75814285D02*
X90740533Y-75814285D01*
X90740533Y-75814285D02*
X90883390Y-75861904D01*
X90883390Y-75861904D02*
X91454819Y-76433332D01*
X91454819Y-76433332D02*
X91454819Y-75814285D01*
X95264819Y-67571904D02*
X94264819Y-67571904D01*
X95264819Y-67000476D02*
X94693390Y-67429047D01*
X94264819Y-67000476D02*
X94836247Y-67571904D01*
%TO.C,J2*%
D11*
X79135000Y-65960000D02*
X89175000Y-65960000D01*
X79135000Y-76200000D02*
X79135000Y-65960000D01*
X82155000Y-76200000D02*
X82155000Y-65960000D01*
X87055000Y-76200000D02*
X87055000Y-65960000D01*
X88555000Y-76200000D02*
X88555000Y-65960000D01*
X89175000Y-65960000D02*
X89175000Y-73280000D01*
X89175000Y-73880000D02*
X89175000Y-76200000D01*
X89175000Y-76200000D02*
X79135000Y-76200000D01*
X89785000Y-74020000D02*
X89175000Y-73580000D01*
X89785000Y-73140000D01*
X89785000Y-74020000D01*
G36*
X89785000Y-74020000D02*
G01*
X89175000Y-73580000D01*
X89785000Y-73140000D01*
X89785000Y-74020000D01*
G37*
%TO.C,D4*%
X97155000Y-68650000D02*
X97155000Y-69670000D01*
X97155000Y-76130000D02*
X97155000Y-75110000D01*
X98625000Y-70450000D02*
X95685000Y-70450000D01*
X98625000Y-70570000D02*
X95685000Y-70570000D01*
X98625000Y-70690000D02*
X95685000Y-70690000D01*
X95685000Y-69670000D02*
X98625000Y-69670000D01*
X98625000Y-75110000D01*
X95685000Y-75110000D01*
X95685000Y-69670000D01*
%TO.C,D3*%
X97790000Y-54045000D02*
X97790000Y-55065000D01*
X97790000Y-61525000D02*
X97790000Y-60505000D01*
X99260000Y-55845000D02*
X96320000Y-55845000D01*
X99260000Y-55965000D02*
X96320000Y-55965000D01*
X99260000Y-56085000D02*
X96320000Y-56085000D01*
X96320000Y-55065000D02*
X99260000Y-55065000D01*
X99260000Y-60505000D01*
X96320000Y-60505000D01*
X96320000Y-55065000D01*
%TO.C,J1*%
X79135000Y-52665000D02*
X89175000Y-52665000D01*
X79135000Y-62905000D02*
X79135000Y-52665000D01*
X82155000Y-62905000D02*
X82155000Y-52665000D01*
X87055000Y-62905000D02*
X87055000Y-52665000D01*
X88555000Y-62905000D02*
X88555000Y-52665000D01*
X89175000Y-52665000D02*
X89175000Y-59985000D01*
X89175000Y-60585000D02*
X89175000Y-62905000D01*
X89175000Y-62905000D02*
X79135000Y-62905000D01*
X89785000Y-60725000D02*
X89175000Y-60285000D01*
X89785000Y-59845000D01*
X89785000Y-60725000D01*
G36*
X89785000Y-60725000D02*
G01*
X89175000Y-60285000D01*
X89785000Y-59845000D01*
X89785000Y-60725000D01*
G37*
%TO.C,D5*%
X107290000Y-55605000D02*
X107290000Y-58695000D01*
X107290000Y-55605170D02*
G75*
G02*
X112840000Y-57150000I2560000J-1544830D01*
G01*
X112840000Y-57150000D02*
G75*
G02*
X107290000Y-58694830I-2990000J0D01*
G01*
X112350000Y-57150000D02*
G75*
G02*
X107350000Y-57150000I-2500000J0D01*
G01*
X107350000Y-57150000D02*
G75*
G02*
X112350000Y-57150000I2500000J0D01*
G01*
%TO.C,D1*%
X92710000Y-54045000D02*
X92710000Y-55065000D01*
X92710000Y-61525000D02*
X92710000Y-60505000D01*
X94180000Y-55845000D02*
X91240000Y-55845000D01*
X94180000Y-55965000D02*
X91240000Y-55965000D01*
X94180000Y-56085000D02*
X91240000Y-56085000D01*
X91240000Y-55065000D02*
X94180000Y-55065000D01*
X94180000Y-60505000D01*
X91240000Y-60505000D01*
X91240000Y-55065000D01*
%TO.C,R2*%
X102140000Y-64035000D02*
X108680000Y-64035000D01*
X102140000Y-64365000D02*
X102140000Y-64035000D01*
X102140000Y-66445000D02*
X102140000Y-66775000D01*
X102140000Y-66775000D02*
X108680000Y-66775000D01*
X108680000Y-64035000D02*
X108680000Y-64365000D01*
X108680000Y-66775000D02*
X108680000Y-66445000D01*
%TO.C,C1*%
X110800000Y-73505000D02*
G75*
G02*
X102560000Y-73505000I-4120000J0D01*
G01*
X102560000Y-73505000D02*
G75*
G02*
X110800000Y-73505000I4120000J0D01*
G01*
%TO.C,R1*%
X102135000Y-53245000D02*
X102135000Y-59785000D01*
X102135000Y-59785000D02*
X102465000Y-59785000D01*
X102465000Y-53245000D02*
X102135000Y-53245000D01*
X104545000Y-53245000D02*
X104875000Y-53245000D01*
X104875000Y-53245000D02*
X104875000Y-59785000D01*
X104875000Y-59785000D02*
X104545000Y-59785000D01*
%TO.C,D2*%
X92710000Y-68650000D02*
X92710000Y-69670000D01*
X92710000Y-76130000D02*
X92710000Y-75110000D01*
X94180000Y-70450000D02*
X91240000Y-70450000D01*
X94180000Y-70570000D02*
X91240000Y-70570000D01*
X94180000Y-70690000D02*
X91240000Y-70690000D01*
X91240000Y-69670000D02*
X94180000Y-69670000D01*
X94180000Y-75110000D01*
X91240000Y-75110000D01*
X91240000Y-69670000D01*
%TD*%
M02*
